SplineFontDB: 3.2
FontName: FdSymbolD-Medium
FullName: FdSymbolD-Medium
FamilyName: FdSymbolD
Weight: Medium
Copyright: Copyright (c) 2011-2025, Michael Ummels. This Font Software is licensed under the SIL Open Font License, Version 1.1.
Version: 1.010
ItalicAngle: 0
UnderlinePosition: -100
UnderlineWidth: 50
Ascent: 800
Descent: 200
InvalidEm: 0
LayerCount: 2
Layer: 0 0 "Back" 1
Layer: 1 0 "Fore" 0
OS2Version: 0
OS2_WeightWidthSlopeOnly: 0
OS2_UseTypoMetrics: 0
CreationTime: 1739799035
ModificationTime: 1739799035
OS2TypoAscent: 0
OS2TypoAOffset: 1
OS2TypoDescent: 0
OS2TypoDOffset: 1
OS2TypoLinegap: 0
OS2WinAscent: 0
OS2WinAOffset: 1
OS2WinDescent: 0
OS2WinDOffset: 1
HheadAscent: 0
HheadAOffset: 1
HheadDescent: 0
HheadDOffset: 1
OS2Vendor: 'PfEd'
DEI: 91125
Encoding: Custom
UnicodeInterp: none
NameList: AGL For New Fonts
DisplaySize: -48
AntiAlias: 1
FitToEm: 0
BeginPrivate: 2
BlueValues 31 [-10 0 546 556 707 717 754 764]
OtherBlues 11 [-230 -220]
EndPrivate
BeginChars: 256 232

StartChar: uni219B
Encoding: 0 8603 0
Width: 930
Flags: HW
HStem: 257 86<90 330 444 693>
LayerCount: 2
Fore
SplineSet
449 584 m 1
 522 557 l 1
 444 343 l 1
 693 343 l 1
 611 426 l 1
 671 486 l 1
 858 300 l 1
 671 114 l 1
 611 174 l 1
 693 257 l 1
 413 257 l 1
 325 16 l 1
 252 43 l 1
 330 257 l 1
 90 257 l 1
 90 343 l 1
 361 343 l 1
 449 584 l 1
EndSplineSet
EndChar

StartChar: uni21910338
Encoding: 1 -1 1
Width: 734
Flags: HW
VStem: 324 86<-75 165 279 528>
LayerCount: 2
Fore
SplineSet
110 87 m 1
 83 160 l 1
 324 248 l 1
 324 528 l 1
 241 446 l 1
 181 506 l 1
 367 693 l 1
 553 506 l 1
 493 446 l 1
 410 528 l 1
 410 279 l 1
 624 357 l 1
 651 284 l 1
 410 196 l 1
 410 -75 l 1
 324 -75 l 1
 324 165 l 1
 110 87 l 1
EndSplineSet
EndChar

StartChar: uni219A
Encoding: 2 8602 2
Width: 930
Flags: HW
HStem: 257 86<237 486 600 840>
LayerCount: 2
Fore
SplineSet
481 16 m 1
 408 43 l 1
 486 257 l 1
 237 257 l 1
 319 174 l 1
 259 114 l 1
 72 300 l 1
 259 486 l 1
 319 426 l 1
 237 343 l 1
 517 343 l 1
 605 584 l 1
 678 557 l 1
 600 343 l 1
 840 343 l 1
 840 257 l 1
 569 257 l 1
 481 16 l 1
EndSplineSet
EndChar

StartChar: uni21930338
Encoding: 3 -1 3
Width: 734
Flags: HW
VStem: 324 86<72 321 435 675>
LayerCount: 2
Fore
SplineSet
624 513 m 1
 651 440 l 1
 410 352 l 1
 410 72 l 1
 493 154 l 1
 553 94 l 1
 367 -93 l 1
 181 94 l 1
 241 154 l 1
 324 72 l 1
 324 321 l 1
 110 243 l 1
 83 316 l 1
 324 404 l 1
 324 675 l 1
 410 675 l 1
 410 435 l 1
 624 513 l 1
EndSplineSet
EndChar

StartChar: uni21970338
Encoding: 4 -1 4
Width: 1102
Flags: HW
HStem: 492 86<565 682>
VStem: 743 86<314 431>
LayerCount: 2
Fore
SplineSet
339 489 m 1
 409 522 l 1
 506 316 l 1
 682 492 l 1
 565 492 l 1
 565 578 l 1
 829 578 l 1
 829 314 l 1
 743 314 l 1
 743 431 l 1
 544 232 l 1
 653 0 l 1
 582 -32 l 1
 486 174 l 1
 316 4 l 1
 255 65 l 1
 447 257 l 1
 339 489 l 1
EndSplineSet
EndChar

StartChar: uni21960338
Encoding: 5 -1 5
Width: 1102
Flags: HW
HStem: 492 86<420 537>
VStem: 273 86<314 431>
LayerCount: 2
Fore
SplineSet
520 -32 m 1
 450 0 l 1
 558 232 l 1
 359 431 l 1
 359 314 l 1
 273 314 l 1
 273 578 l 1
 537 578 l 1
 537 492 l 1
 420 492 l 1
 597 315 l 1
 693 522 l 1
 763 489 l 1
 655 257 l 1
 847 65 l 1
 786 4 l 1
 616 174 l 1
 520 -32 l 1
EndSplineSet
EndChar

StartChar: uni21990338
Encoding: 6 -1 6
Width: 1102
Flags: HW
HStem: 22 86<420 537>
VStem: 273 86<169 286>
LayerCount: 2
Fore
SplineSet
763 111 m 1
 693 78 l 1
 597 285 l 1
 420 108 l 1
 537 108 l 1
 537 22 l 1
 273 22 l 1
 273 286 l 1
 359 286 l 1
 359 169 l 1
 558 368 l 1
 450 600 l 1
 520 632 l 1
 616 426 l 1
 786 596 l 1
 847 535 l 1
 655 343 l 1
 763 111 l 1
EndSplineSet
EndChar

StartChar: uni21980338
Encoding: 7 -1 7
Width: 1102
Flags: HW
HStem: 22 86<565 682>
VStem: 743 86<169 286>
LayerCount: 2
Fore
SplineSet
582 632 m 1
 653 600 l 1
 544 368 l 1
 743 169 l 1
 743 286 l 1
 829 286 l 1
 829 22 l 1
 565 22 l 1
 565 108 l 1
 682 108 l 1
 506 284 l 1
 409 78 l 1
 339 111 l 1
 447 343 l 1
 255 535 l 1
 316 596 l 1
 486 426 l 1
 582 632 l 1
EndSplineSet
EndChar

StartChar: uni21CF
Encoding: 8 8655 8
Width: 1080
Flags: HW
HStem: 160 86<90 292 405 746> 354 87<90 363 476 746>
LayerCount: 2
Fore
SplineSet
832 354 m 1
 444 354 l 1
 405 246 l 1
 832 246 l 1
 886 300 l 1
 832 354 l 1
469 646 m 1
 541 620 l 1
 476 440 l 1
 746 440 l 1
 714 472 l 1
 775 533 l 1
 1008 300 l 1
 775 67 l 1
 714 128 l 1
 746 160 l 1
 374 160 l 1
 299 -46 l 1
 227 -20 l 1
 292 160 l 1
 90 160 l 1
 90 246 l 1
 324 246 l 1
 363 354 l 1
 90 354 l 1
 90 441 l 1
 394 441 l 1
 469 646 l 1
EndSplineSet
EndChar

StartChar: uni21D10338
Encoding: 9 -1 9
Width: 859
Flags: HW
VStem: 289 86<-150 52 165 506> 484 86<-150 123 236 506>
LayerCount: 2
Fore
SplineSet
375 592 m 1
 375 165 l 1
 484 205 l 1
 484 591 l 1
 429 646 l 1
 375 592 l 1
110 -13 m 1
 83 59 l 1
 289 134 l 1
 289 506 l 1
 257 474 l 1
 196 535 l 1
 429 768 l 1
 663 535 l 1
 602 474 l 1
 570 506 l 1
 570 236 l 1
 749 301 l 1
 775 229 l 1
 570 154 l 1
 570 -150 l 1
 484 -150 l 1
 484 123 l 1
 375 83 l 1
 375 -150 l 1
 289 -150 l 1
 289 52 l 1
 110 -13 l 1
EndSplineSet
EndChar

StartChar: uni21CD
Encoding: 10 8653 10
Width: 1080
Flags: HW
HStem: 160 86<334 604 717 990> 355 86<334 675 788 990>
LayerCount: 2
Fore
SplineSet
248 246 m 1
 636 246 l 1
 675 355 l 1
 248 354 l 1
 194 300 l 1
 248 246 l 1
611 -46 m 1
 539 -20 l 1
 604 160 l 1
 334 160 l 1
 366 128 l 1
 305 67 l 1
 72 300 l 1
 305 533 l 1
 366 472 l 1
 334 440 l 1
 706 441 l 1
 781 646 l 1
 853 620 l 1
 788 441 l 1
 990 441 l 1
 990 355 l 1
 757 355 l 1
 717 246 l 1
 990 246 l 1
 990 160 l 1
 686 160 l 1
 611 -46 l 1
EndSplineSet
EndChar

StartChar: uni21D30338
Encoding: 11 -1 11
Width: 859
Flags: HW
VStem: 289 86<94 364 477 750> 484 86<94 435 548 750>
LayerCount: 2
Fore
SplineSet
484 9 m 1
 484 435 l 1
 375 395 l 1
 375 8 l 1
 429 -46 l 1
 484 9 l 1
749 613 m 1
 775 541 l 1
 570 466 l 1
 570 94 l 1
 602 126 l 1
 663 65 l 1
 429 -168 l 1
 196 65 l 1
 257 126 l 1
 289 94 l 1
 289 364 l 1
 110 299 l 1
 83 371 l 1
 289 446 l 1
 289 750 l 1
 375 750 l 1
 375 477 l 1
 484 517 l 1
 484 750 l 1
 570 750 l 1
 570 548 l 1
 749 613 l 1
EndSplineSet
EndChar

StartChar: uni21D70338
Encoding: 12 -1 12
Width: 1296
Flags: HW
HStem: 545 86<649 695 817 893>
VStem: 893 86<301 347 467 545>
LayerCount: 2
Fore
SplineSet
817 545 m 1
 543 271 l 1
 592 166 l 1
 893 467 l 1
 893 545 l 1
 817 545 l 1
353 494 m 1
 423 527 l 1
 504 354 l 1
 695 545 l 1
 649 545 l 1
 649 631 l 1
 979 631 l 1
 979 301 l 1
 893 301 l 1
 893 347 l 1
 630 84 l 1
 723 -115 l 1
 652 -148 l 1
 572 25 l 1
 429 -118 l 1
 369 -57 l 1
 533 107 l 1
 484 213 l 1
 291 20 l 1
 231 81 l 1
 445 295 l 1
 353 494 l 1
EndSplineSet
EndChar

StartChar: uni21D60338
Encoding: 13 -1 13
Width: 1296
Flags: HW
HStem: 545 86<403 480 602 647>
VStem: 317 86<301 347 468 545>
LayerCount: 2
Fore
SplineSet
403 468 m 1
 705 166 l 1
 754 271 l 1
 480 545 l 1
 403 545 l 1
 403 468 l 1
644 -148 m 1
 574 -115 l 1
 666 83 l 1
 403 347 l 1
 403 301 l 1
 317 301 l 1
 317 631 l 1
 647 631 l 1
 647 545 l 1
 602 545 l 1
 793 354 l 1
 873 527 l 1
 943 494 l 1
 851 296 l 1
 1066 81 l 1
 1005 20 l 1
 812 213 l 1
 763 108 l 1
 928 -57 l 1
 867 -118 l 1
 724 25 l 1
 644 -148 l 1
EndSplineSet
EndChar

StartChar: uni21D90338
Encoding: 14 -1 14
Width: 1296
Flags: HW
HStem: -31 86<403 480 602 647> 698 20G<847 887>
VStem: 317 86<55 132 253 299>
LayerCount: 2
Fore
SplineSet
480 55 m 1
 754 329 l 1
 705 434 l 1
 403 132 l 1
 403 55 l 1
 480 55 l 1
943 106 m 1
 873 73 l 1
 793 246 l 1
 602 55 l 1
 647 55 l 1
 647 -31 l 1
 317 -31 l 1
 317 299 l 1
 403 299 l 1
 403 253 l 1
 666 517 l 1
 574 715 l 1
 644 748 l 1
 724 575 l 1
 867 718 l 1
 928 657 l 1
 763 492 l 1
 812 387 l 1
 1005 580 l 1
 1066 519 l 1
 851 304 l 1
 943 106 l 1
EndSplineSet
EndChar

StartChar: uni21D80338
Encoding: 15 -1 15
Width: 1296
Flags: HW
HStem: -31 86<649 695 817 893> 698 20G<409.328 449>
VStem: 893 86<55 133 253 299>
LayerCount: 2
Fore
SplineSet
893 133 m 1
 592 434 l 1
 543 329 l 1
 817 55 l 1
 893 55 l 1
 893 133 l 1
652 748 m 1
 723 715 l 1
 630 516 l 1
 893 253 l 1
 893 299 l 1
 979 299 l 1
 979 -31 l 1
 649 -31 l 1
 649 55 l 1
 695 55 l 1
 504 246 l 1
 423 73 l 1
 353 106 l 1
 445 305 l 1
 231 519 l 1
 291 580 l 1
 484 387 l 1
 533 493 l 1
 369 657 l 1
 429 718 l 1
 572 575 l 1
 652 748 l 1
EndSplineSet
EndChar

StartChar: uni21AE
Encoding: 16 8622 16
Width: 1080
Flags: HW
HStem: 257 86<237 483 597 843>
LayerCount: 2
Fore
SplineSet
602 584 m 1
 675 557 l 1
 597 343 l 1
 843 343 l 1
 761 426 l 1
 821 486 l 1
 1008 300 l 1
 821 114 l 1
 761 174 l 1
 843 257 l 1
 566 257 l 1
 478 16 l 1
 405 43 l 1
 483 257 l 1
 237 257 l 1
 319 174 l 1
 259 114 l 1
 72 300 l 1
 259 486 l 1
 319 426 l 1
 237 343 l 1
 514 343 l 1
 602 584 l 1
EndSplineSet
EndChar

StartChar: uni21950338
Encoding: 17 -1 17
Width: 734
Flags: HW
VStem: 324 86<-3 243 357 603>
LayerCount: 2
Fore
SplineSet
110 165 m 1
 83 238 l 1
 324 326 l 1
 324 603 l 1
 241 521 l 1
 181 581 l 1
 367 768 l 1
 553 581 l 1
 493 521 l 1
 410 603 l 1
 410 357 l 1
 624 435 l 1
 651 362 l 1
 410 274 l 1
 410 -3 l 1
 493 79 l 1
 553 19 l 1
 367 -168 l 1
 181 19 l 1
 241 79 l 1
 324 -3 l 1
 324 243 l 1
 110 165 l 1
EndSplineSet
EndChar

StartChar: uni29210338
Encoding: 18 -1 18
Width: 1208
Flags: HW
HStem: -31 86<420 537> 545 86<671 788>
VStem: 273 86<116 233> 849 86<367 484>
LayerCount: 2
Fore
SplineSet
447 544 m 1
 518 577 l 1
 614 371 l 1
 788 545 l 1
 671 545 l 1
 671 631 l 1
 935 631 l 1
 935 367 l 1
 849 367 l 1
 849 484 l 1
 653 288 l 1
 761 56 l 1
 691 23 l 1
 594 229 l 1
 420 55 l 1
 537 55 l 1
 537 -31 l 1
 273 -31 l 1
 273 233 l 1
 359 233 l 1
 359 116 l 1
 555 312 l 1
 447 544 l 1
EndSplineSet
EndChar

StartChar: uni29220338
Encoding: 19 -1 19
Width: 1208
Flags: HW
HStem: -31 86<671 788> 545 86<420 537>
VStem: 273 86<367 484> 849 86<116 233>
LayerCount: 2
Fore
SplineSet
518 23 m 1
 447 56 l 1
 555 288 l 1
 359 484 l 1
 359 367 l 1
 273 367 l 1
 273 631 l 1
 537 631 l 1
 537 545 l 1
 420 545 l 1
 594 371 l 1
 691 577 l 1
 761 544 l 1
 653 312 l 1
 849 116 l 1
 849 233 l 1
 935 233 l 1
 935 -31 l 1
 671 -31 l 1
 671 55 l 1
 788 55 l 1
 614 229 l 1
 518 23 l 1
EndSplineSet
EndChar

StartChar: uni21CE
Encoding: 20 8654 20
Width: 1230
Flags: HW
HStem: 160 86<334 523 636 896> 354 86<334 594 707 896>
LayerCount: 2
Fore
SplineSet
248 354 m 1
 194 300 l 1
 248 246 l 1
 555 246 l 1
 594 354 l 1
 248 354 l 1
982 354 m 1
 675 354 l 1
 636 246 l 1
 982 246 l 1
 1036 300 l 1
 982 354 l 1
700 646 m 1
 772 620 l 1
 707 440 l 1
 896 440 l 1
 864 472 l 1
 925 533 l 1
 1158 300 l 1
 925 67 l 1
 864 128 l 1
 896 160 l 1
 605 160 l 1
 530 -46 l 1
 458 -20 l 1
 523 160 l 1
 334 160 l 1
 366 128 l 1
 305 67 l 1
 72 300 l 1
 305 533 l 1
 366 472 l 1
 334 440 l 1
 625 440 l 1
 700 646 l 1
EndSplineSet
EndChar

StartChar: uni21D50338
Encoding: 21 -1 21
Width: 859
Flags: HW
HStem: 549 21G<237 277 582 622>
VStem: 289 86<19 208 321 581> 484 86<19 279 392 581>
LayerCount: 2
Fore
SplineSet
375 -67 m 1
 429 -121 l 1
 484 -66 l 1
 484 279 l 1
 375 239 l 1
 375 -67 l 1
375 667 m 1
 375 321 l 1
 484 361 l 1
 484 666 l 1
 429 721 l 1
 375 667 l 1
110 143 m 1
 83 215 l 1
 289 290 l 1
 289 581 l 1
 257 549 l 1
 196 610 l 1
 429 843 l 1
 663 610 l 1
 602 549 l 1
 570 581 l 1
 570 392 l 1
 749 457 l 1
 775 385 l 1
 570 310 l 1
 570 19 l 1
 602 51 l 1
 663 -10 l 1
 429 -243 l 1
 196 -10 l 1
 257 51 l 1
 289 19 l 1
 289 208 l 1
 110 143 l 1
EndSplineSet
EndChar

StartChar: sym030_uni0338
Encoding: 22 -1 22
Width: 1402
Flags: HW
HStem: -84 86<403 480 602 647> 598 86<755 801 923 999>
VStem: 317 86<2 79 200 246> 999 86<354 400 520 598>
LayerCount: 2
Fore
SplineSet
403 79 m 1
 403 2 l 1
 480 2 l 1
 697 218 l 1
 648 323 l 1
 403 79 l 1
923 598 m 1
 706 381 l 1
 755 276 l 1
 999 520 l 1
 999 598 l 1
 923 598 l 1
516 605 m 1
 587 637 l 1
 667 464 l 1
 801 598 l 1
 755 598 l 1
 755 684 l 1
 1085 684 l 1
 1085 354 l 1
 999 354 l 1
 999 400 l 1
 793 194 l 1
 886 -5 l 1
 816 -37 l 1
 735 136 l 1
 602 2 l 1
 647 2 l 1
 647 -84 l 1
 317 -84 l 1
 317 246 l 1
 403 246 l 1
 403 200 l 1
 609 406 l 1
 516 605 l 1
EndSplineSet
EndChar

StartChar: sym031_uni0338
Encoding: 23 -1 23
Width: 1402
Flags: HW
HStem: -84 86<755 801 923 999> 598 86<403 480 602 647>
VStem: 317 86<354 400 521 598> 999 86<2 80 200 246>
LayerCount: 2
Fore
SplineSet
923 2 m 1
 999 2 l 1
 999 80 l 1
 755 324 l 1
 706 219 l 1
 923 2 l 1
403 521 m 1
 648 277 l 1
 697 382 l 1
 480 598 l 1
 403 598 l 1
 403 521 l 1
587 -37 m 1
 516 -5 l 1
 609 194 l 1
 403 400 l 1
 403 354 l 1
 317 354 l 1
 317 684 l 1
 647 684 l 1
 647 598 l 1
 602 598 l 1
 735 464 l 1
 816 637 l 1
 886 605 l 1
 793 406 l 1
 999 200 l 1
 999 246 l 1
 1085 246 l 1
 1085 -84 l 1
 755 -84 l 1
 755 2 l 1
 801 2 l 1
 667 136 l 1
 587 -37 l 1
EndSplineSet
EndChar

StartChar: uni21A00338
Encoding: 24 -1 24
Width: 1118
Flags: HW
HStem: 257 86<90 307 420 646 768 881>
LayerCount: 2
Fore
SplineSet
426 584 m 1
 498 557 l 1
 420 343 l 1
 646 343 l 1
 564 426 l 1
 625 486 l 1
 768 343 l 1
 881 343 l 1
 798 426 l 1
 859 486 l 1
 1045 300 l 1
 859 114 l 1
 798 174 l 1
 881 257 l 1
 768 257 l 1
 625 114 l 1
 564 174 l 1
 646 257 l 1
 389 257 l 1
 302 16 l 1
 229 43 l 1
 307 257 l 1
 90 257 l 1
 90 343 l 1
 338 343 l 1
 426 584 l 1
EndSplineSet
EndChar

StartChar: uni219F0338
Encoding: 25 -1 25
Width: 734
Flags: HW
VStem: 324 86<-169 48 162 388 509 622>
LayerCount: 2
Fore
SplineSet
110 -30 m 1
 83 43 l 1
 324 131 l 1
 324 388 l 1
 241 305 l 1
 181 366 l 1
 324 509 l 1
 324 622 l 1
 241 539 l 1
 181 600 l 1
 367 787 l 1
 553 600 l 1
 493 539 l 1
 410 622 l 1
 410 509 l 1
 553 366 l 1
 493 305 l 1
 410 388 l 1
 410 162 l 1
 624 240 l 1
 651 167 l 1
 410 79 l 1
 410 -169 l 1
 324 -169 l 1
 324 48 l 1
 110 -30 l 1
EndSplineSet
EndChar

StartChar: uni219E0338
Encoding: 26 -1 26
Width: 1118
Flags: HW
HStem: 257 86<237 350 471 697 811 1028>
LayerCount: 2
Fore
SplineSet
692 16 m 1
 619 43 l 1
 697 257 l 1
 471 257 l 1
 554 174 l 1
 493 114 l 1
 350 257 l 1
 237 257 l 1
 319 174 l 1
 259 114 l 1
 72 300 l 1
 259 486 l 1
 319 426 l 1
 237 343 l 1
 350 343 l 1
 493 486 l 1
 554 426 l 1
 471 343 l 1
 728 343 l 1
 816 584 l 1
 889 557 l 1
 811 343 l 1
 1028 343 l 1
 1028 257 l 1
 780 257 l 1
 692 16 l 1
EndSplineSet
EndChar

StartChar: uni21A10338
Encoding: 27 -1 27
Width: 734
Flags: HW
VStem: 324 86<-22 91 212 438 552 769>
LayerCount: 2
Fore
SplineSet
624 630 m 1
 651 557 l 1
 410 469 l 1
 410 212 l 1
 493 295 l 1
 553 234 l 1
 410 91 l 1
 410 -22 l 1
 493 61 l 1
 553 0 l 1
 367 -187 l 1
 181 0 l 1
 241 61 l 1
 324 -22 l 1
 324 91 l 1
 181 234 l 1
 241 295 l 1
 324 212 l 1
 324 438 l 1
 110 360 l 1
 83 433 l 1
 324 521 l 1
 324 769 l 1
 410 769 l 1
 410 552 l 1
 624 630 l 1
EndSplineSet
EndChar

StartChar: sym033_uni0338
Encoding: 28 -1 28
Width: 1235
Flags: HW
HStem: 392 86<532 649> 558 86<698 815>
VStem: 710 86<215 332> 875 86<380 497>
LayerCount: 2
Fore
SplineSet
323 406 m 1
 393 439 l 1
 489 233 l 1
 649 392 l 1
 532 392 l 1
 532 478 l 1
 735 478 l 1
 815 558 l 1
 698 558 l 1
 698 644 l 1
 961 644 l 1
 961 380 l 1
 875 380 l 1
 875 497 l 1
 796 418 l 1
 796 215 l 1
 710 215 l 1
 710 332 l 1
 528 150 l 1
 636 -82 l 1
 566 -115 l 1
 470 92 l 1
 316 -62 l 1
 255 -1 l 1
 431 175 l 1
 323 406 l 1
EndSplineSet
EndChar

StartChar: sym032_uni0338
Encoding: 29 -1 29
Width: 1235
Flags: HW
HStem: 392 86<586 703> 558 86<420 537>
VStem: 273 86<380 498> 439 86<215 332>
LayerCount: 2
Fore
SplineSet
669 -115 m 1
 599 -82 l 1
 707 149 l 1
 525 332 l 1
 525 215 l 1
 439 215 l 1
 439 418 l 1
 359 498 l 1
 359 380 l 1
 273 380 l 1
 273 644 l 1
 537 644 l 1
 537 558 l 1
 420 558 l 1
 500 478 l 1
 703 478 l 1
 703 392 l 1
 586 392 l 1
 746 232 l 1
 842 439 l 1
 912 406 l 1
 804 174 l 1
 979 -1 l 1
 918 -62 l 1
 765 91 l 1
 669 -115 l 1
EndSplineSet
EndChar

StartChar: sym035_uni0338
Encoding: 30 -1 30
Width: 1235
Flags: HW
HStem: -44 86<420 537> 122 86<586 703> 695 20G<626.576 678.32>
VStem: 273 86<102 220> 439 86<268 385>
LayerCount: 2
Fore
SplineSet
912 194 m 1
 842 161 l 1
 746 368 l 1
 586 208 l 1
 703 208 l 1
 703 122 l 1
 500 122 l 1
 420 42 l 1
 537 42 l 1
 537 -44 l 1
 273 -44 l 1
 273 220 l 1
 359 220 l 1
 359 102 l 1
 439 182 l 1
 439 385 l 1
 525 385 l 1
 525 268 l 1
 707 451 l 1
 599 682 l 1
 669 715 l 1
 765 509 l 1
 918 662 l 1
 979 601 l 1
 804 426 l 1
 912 194 l 1
EndSplineSet
EndChar

StartChar: sym034_uni0338
Encoding: 31 -1 31
Width: 1235
Flags: HW
HStem: -44 86<698 815> 122 86<532 649> 695 20G<556.725 608.424>
VStem: 710 86<268 385> 875 86<103 220>
LayerCount: 2
Fore
SplineSet
566 715 m 1
 636 682 l 1
 528 450 l 1
 710 268 l 1
 710 385 l 1
 796 385 l 1
 796 182 l 1
 875 103 l 1
 875 220 l 1
 961 220 l 1
 961 -44 l 1
 698 -44 l 1
 698 42 l 1
 815 42 l 1
 735 122 l 1
 532 122 l 1
 532 208 l 1
 649 208 l 1
 489 367 l 1
 393 161 l 1
 323 194 l 1
 431 425 l 1
 255 601 l 1
 316 662 l 1
 470 508 l 1
 566 715 l 1
EndSplineSet
EndChar

StartChar: uni21A30338
Encoding: 32 -1 32
Width: 930
Flags: HW
HStem: 257 86<307 408 522 693>
LayerCount: 2
Fore
SplineSet
527 584 m 1
 600 557 l 1
 522 343 l 1
 693 343 l 1
 611 426 l 1
 671 486 l 1
 858 300 l 1
 671 114 l 1
 611 174 l 1
 693 257 l 1
 491 257 l 1
 403 16 l 1
 330 43 l 1
 408 257 l 1
 307 257 l 1
 163 114 l 1
 103 174 l 1
 228 300 l 1
 103 426 l 1
 163 486 l 1
 307 343 l 1
 439 343 l 1
 527 584 l 1
EndSplineSet
EndChar

StartChar: sym036_uni0338
Encoding: 33 -1 33
Width: 734
Flags: HW
VStem: 324 86<142 243 357 528>
LayerCount: 2
Fore
SplineSet
110 165 m 1
 83 238 l 1
 324 326 l 1
 324 528 l 1
 241 446 l 1
 181 506 l 1
 367 693 l 1
 553 506 l 1
 493 446 l 1
 410 528 l 1
 410 357 l 1
 624 435 l 1
 651 362 l 1
 410 274 l 1
 410 142 l 1
 553 -2 l 1
 493 -62 l 1
 367 63 l 1
 241 -62 l 1
 181 -2 l 1
 324 142 l 1
 324 243 l 1
 110 165 l 1
EndSplineSet
EndChar

StartChar: uni21A20338
Encoding: 34 -1 34
Width: 930
Flags: HW
HStem: 257 86<237 408 522 623>
LayerCount: 2
Fore
SplineSet
403 16 m 1
 330 43 l 1
 408 257 l 1
 237 257 l 1
 319 174 l 1
 259 114 l 1
 72 300 l 1
 259 486 l 1
 319 426 l 1
 237 343 l 1
 439 343 l 1
 527 584 l 1
 600 557 l 1
 522 343 l 1
 623 343 l 1
 767 486 l 1
 827 426 l 1
 702 300 l 1
 827 174 l 1
 767 114 l 1
 623 257 l 1
 491 257 l 1
 403 16 l 1
EndSplineSet
EndChar

StartChar: sym037_uni0338
Encoding: 35 -1 35
Width: 734
Flags: HW
VStem: 324 86<72 243 357 458>
LayerCount: 2
Fore
SplineSet
624 435 m 1
 651 362 l 1
 410 274 l 1
 410 72 l 1
 493 154 l 1
 553 94 l 1
 367 -93 l 1
 181 94 l 1
 241 154 l 1
 324 72 l 1
 324 243 l 1
 110 165 l 1
 83 238 l 1
 324 326 l 1
 324 458 l 1
 181 602 l 1
 241 662 l 1
 367 537 l 1
 493 662 l 1
 553 602 l 1
 410 458 l 1
 410 357 l 1
 624 435 l 1
EndSplineSet
EndChar

StartChar: sym039_uni0338
Encoding: 36 -1 36
Width: 1102
Flags: HW
HStem: 133 86<206 384> 492 86<565 682>
VStem: 384 86<-45 133> 743 86<314 431>
LayerCount: 2
Fore
SplineSet
394 544 m 1
 465 577 l 1
 561 371 l 1
 682 492 l 1
 565 492 l 1
 565 578 l 1
 829 578 l 1
 829 314 l 1
 743 314 l 1
 743 431 l 1
 600 288 l 1
 708 56 l 1
 638 23 l 1
 541 229 l 1
 470 158 l 1
 470 -45 l 1
 384 -45 l 1
 384 133 l 1
 206 133 l 1
 206 219 l 1
 409 219 l 1
 502 312 l 1
 394 544 l 1
EndSplineSet
EndChar

StartChar: sym038_uni0338
Encoding: 37 -1 37
Width: 1102
Flags: HW
HStem: 133 86<718 896> 492 86<420 537>
VStem: 273 86<314 431> 632 86<-45 133>
LayerCount: 2
Fore
SplineSet
465 23 m 1
 394 56 l 1
 502 288 l 1
 359 431 l 1
 359 314 l 1
 273 314 l 1
 273 578 l 1
 537 578 l 1
 537 492 l 1
 420 492 l 1
 541 371 l 1
 638 577 l 1
 708 544 l 1
 600 312 l 1
 693 219 l 1
 896 219 l 1
 896 133 l 1
 718 133 l 1
 718 -45 l 1
 632 -45 l 1
 632 158 l 1
 561 229 l 1
 465 23 l 1
EndSplineSet
EndChar

StartChar: sym03B_uni0338
Encoding: 38 -1 38
Width: 1102
Flags: HW
HStem: 22 86<420 537> 381 86<718 896>
VStem: 273 86<169 286> 632 86<467 645>
LayerCount: 2
Fore
SplineSet
708 56 m 1
 638 23 l 1
 541 229 l 1
 420 108 l 1
 537 108 l 1
 537 22 l 1
 273 22 l 1
 273 286 l 1
 359 286 l 1
 359 169 l 1
 502 312 l 1
 394 544 l 1
 465 577 l 1
 561 371 l 1
 632 442 l 1
 632 645 l 1
 718 645 l 1
 718 467 l 1
 896 467 l 1
 896 381 l 1
 693 381 l 1
 600 288 l 1
 708 56 l 1
EndSplineSet
EndChar

StartChar: sym03A_uni0338
Encoding: 39 -1 39
Width: 1102
Flags: HW
HStem: 22 86<565 682> 381 86<206 384>
VStem: 384 86<467 645> 743 86<169 286>
LayerCount: 2
Fore
SplineSet
638 577 m 1
 708 544 l 1
 600 312 l 1
 743 169 l 1
 743 286 l 1
 829 286 l 1
 829 22 l 1
 565 22 l 1
 565 108 l 1
 682 108 l 1
 561 229 l 1
 465 23 l 1
 394 56 l 1
 502 288 l 1
 409 381 l 1
 206 381 l 1
 206 467 l 1
 384 467 l 1
 384 645 l 1
 470 645 l 1
 470 442 l 1
 541 371 l 1
 638 577 l 1
EndSplineSet
EndChar

StartChar: uni21A60338
Encoding: 40 -1 40
Width: 930
Flags: HW
HStem: 257 86<176 330 444 693>
VStem: 90 86<101 257 343 499>
LayerCount: 2
Fore
SplineSet
449 584 m 1
 522 557 l 1
 444 343 l 1
 693 343 l 1
 611 426 l 1
 671 486 l 1
 858 300 l 1
 671 114 l 1
 611 174 l 1
 693 257 l 1
 413 257 l 1
 325 16 l 1
 252 43 l 1
 330 257 l 1
 176 257 l 1
 176 101 l 1
 90 101 l 1
 90 499 l 1
 176 499 l 1
 176 343 l 1
 361 343 l 1
 449 584 l 1
EndSplineSet
EndChar

StartChar: uni21A50338
Encoding: 41 -1 41
Width: 734
Flags: HW
HStem: -75 86<168 324 410 566>
VStem: 324 86<11 165 279 528>
LayerCount: 2
Fore
SplineSet
110 87 m 1
 83 160 l 1
 324 248 l 1
 324 528 l 1
 241 446 l 1
 181 506 l 1
 367 693 l 1
 553 506 l 1
 493 446 l 1
 410 528 l 1
 410 279 l 1
 624 357 l 1
 651 284 l 1
 410 196 l 1
 410 11 l 1
 566 11 l 1
 566 -75 l 1
 168 -75 l 1
 168 11 l 1
 324 11 l 1
 324 165 l 1
 110 87 l 1
EndSplineSet
EndChar

StartChar: uni21A40338
Encoding: 42 -1 42
Width: 930
Flags: HW
HStem: 257 86<237 486 600 754>
VStem: 754 86<101 257 343 499>
LayerCount: 2
Fore
SplineSet
481 16 m 1
 408 43 l 1
 486 257 l 1
 237 257 l 1
 319 174 l 1
 259 114 l 1
 72 300 l 1
 259 486 l 1
 319 426 l 1
 237 343 l 1
 517 343 l 1
 605 584 l 1
 678 557 l 1
 600 343 l 1
 754 343 l 1
 754 499 l 1
 840 499 l 1
 840 101 l 1
 754 101 l 1
 754 257 l 1
 569 257 l 1
 481 16 l 1
EndSplineSet
EndChar

StartChar: uni21A70338
Encoding: 43 -1 43
Width: 734
Flags: HW
HStem: 589 86<168 324 410 566>
VStem: 324 86<72 321 435 589>
LayerCount: 2
Fore
SplineSet
624 513 m 1
 651 440 l 1
 410 352 l 1
 410 72 l 1
 493 154 l 1
 553 94 l 1
 367 -93 l 1
 181 94 l 1
 241 154 l 1
 324 72 l 1
 324 321 l 1
 110 243 l 1
 83 316 l 1
 324 404 l 1
 324 589 l 1
 168 589 l 1
 168 675 l 1
 566 675 l 1
 566 589 l 1
 410 589 l 1
 410 435 l 1
 624 513 l 1
EndSplineSet
EndChar

StartChar: uni29070338
Encoding: 44 -1 44
Width: 1080
Flags: HW
HStem: 160 86<176 370 483 746> 354 86<176 441 554 746> 526 20G<90 176>
VStem: 90 86<54 160 246 354 441 546>
LayerCount: 2
Fore
SplineSet
832 354 m 1
 522 354 l 1
 483 246 l 1
 832 246 l 1
 886 300 l 1
 832 354 l 1
176 354 m 1
 176 246 l 1
 402 246 l 1
 441 354 l 1
 176 354 l 1
547 646 m 1
 619 620 l 1
 554 440 l 1
 746 440 l 1
 714 472 l 1
 775 533 l 1
 1008 300 l 1
 775 67 l 1
 714 128 l 1
 746 160 l 1
 452 160 l 1
 377 -46 l 1
 305 -20 l 1
 370 160 l 1
 176 160 l 1
 176 54 l 1
 90 54 l 1
 90 546 l 1
 176 546 l 1
 176 441 l 1
 472 440 l 1
 547 646 l 1
EndSplineSet
EndChar

StartChar: sym03C_uni0338
Encoding: 45 -1 45
Width: 859
Flags: HW
HStem: -150 86<184 289 375 484 570 675>
VStem: 289 86<-64 130 243 506> 484 86<-64 201 314 506>
LayerCount: 2
Fore
SplineSet
375 592 m 1
 375 243 l 1
 484 283 l 1
 484 591 l 1
 429 646 l 1
 375 592 l 1
375 -64 m 1
 484 -64 l 1
 484 201 l 1
 375 161 l 1
 375 -64 l 1
110 65 m 1
 83 137 l 1
 289 212 l 1
 289 506 l 1
 257 474 l 1
 196 535 l 1
 429 768 l 1
 663 535 l 1
 602 474 l 1
 570 506 l 1
 570 314 l 1
 749 379 l 1
 775 307 l 1
 570 232 l 1
 570 -64 l 1
 675 -64 l 1
 675 -150 l 1
 184 -150 l 1
 184 -64 l 1
 289 -64 l 1
 289 130 l 1
 110 65 l 1
EndSplineSet
EndChar

StartChar: uni29060338
Encoding: 46 -1 46
Width: 1080
Flags: HW
HStem: 160 86<334 526 639 904> 354 87<334 597 710 904> 526 20G<904 990>
VStem: 904 86<54 160 246 355 441 546>
LayerCount: 2
Fore
SplineSet
248 246 m 1
 558 246 l 1
 597 354 l 1
 248 354 l 1
 194 300 l 1
 248 246 l 1
904 246 m 1
 904 355 l 1
 679 355 l 1
 639 246 l 1
 904 246 l 1
533 -46 m 1
 461 -20 l 1
 526 160 l 1
 334 160 l 1
 366 128 l 1
 305 67 l 1
 72 300 l 1
 305 533 l 1
 366 472 l 1
 334 440 l 1
 628 441 l 1
 703 646 l 1
 775 620 l 1
 710 441 l 1
 904 441 l 1
 904 546 l 1
 990 546 l 1
 990 54 l 1
 904 54 l 1
 904 160 l 1
 608 160 l 1
 533 -46 l 1
EndSplineSet
EndChar

StartChar: sym03D_uni0338
Encoding: 47 -1 47
Width: 859
Flags: HW
HStem: 664 86<184 289 375 484 570 675>
VStem: 289 86<94 286 399 664> 484 86<94 357 470 664>
LayerCount: 2
Fore
SplineSet
484 9 m 1
 484 357 l 1
 375 317 l 1
 375 8 l 1
 429 -46 l 1
 484 9 l 1
484 664 m 1
 375 664 l 1
 375 399 l 1
 484 439 l 1
 484 664 l 1
749 535 m 1
 775 463 l 1
 570 388 l 1
 570 94 l 1
 602 126 l 1
 663 65 l 1
 429 -168 l 1
 196 65 l 1
 257 126 l 1
 289 94 l 1
 289 286 l 1
 110 221 l 1
 83 293 l 1
 289 368 l 1
 289 664 l 1
 184 664 l 1
 184 750 l 1
 675 750 l 1
 675 664 l 1
 570 664 l 1
 570 470 l 1
 749 535 l 1
EndSplineSet
EndChar

StartChar: uni21AA0338
Encoding: 48 -1 48
Width: 930
Flags: HW
HStem: 257 86<180.702 330 444 693> 413 86<180.702 254>
VStem: 90 86<346.75 409.25>
LayerCount: 2
Fore
SplineSet
449 584 m 1
 522 557 l 1
 444 343 l 1
 693 343 l 1
 611 426 l 1
 671 486 l 1
 858 300 l 1
 671 114 l 1
 611 174 l 1
 693 257 l 1
 413 257 l 1
 325 16 l 1
 252 43 l 1
 330 257 l 1
 211 257 l 2
 144 257 90 311 90 378 c 0
 90 445 144 499 211 499 c 2
 254 499 l 1
 254 413 l 1
 211 413 l 2
 192 413 176 397 176 378 c 0
 176 359 192 343 211 343 c 2
 361 343 l 1
 449 584 l 1
EndSplineSet
EndChar

StartChar: sym03E_uni0338
Encoding: 49 -1 49
Width: 734
Flags: HW
HStem: -75 86<257.75 320.25>
VStem: 168 86<15.7023 89> 324 86<15.7023 165 279 528>
LayerCount: 2
Fore
SplineSet
110 87 m 1
 83 160 l 1
 324 248 l 1
 324 528 l 1
 241 446 l 1
 181 506 l 1
 367 693 l 1
 553 506 l 1
 493 446 l 1
 410 528 l 1
 410 279 l 1
 624 357 l 1
 651 284 l 1
 410 196 l 1
 410 46 l 2
 410 -21 356 -75 289 -75 c 0
 222 -75 168 -21 168 46 c 2
 168 89 l 1
 254 89 l 1
 254 46 l 2
 254 27 270 11 289 11 c 0
 308 11 324 27 324 46 c 2
 324 165 l 1
 110 87 l 1
EndSplineSet
EndChar

StartChar: uni21A90338.alt
Encoding: 50 -1 50
Width: 930
Flags: HW
HStem: 101 86<676 749.298> 257 86<237 486 600 749.298>
VStem: 754 86<190.75 253.25>
LayerCount: 2
Fore
SplineSet
481 16 m 1
 408 43 l 1
 486 257 l 1
 237 257 l 1
 319 174 l 1
 259 114 l 1
 72 300 l 1
 259 486 l 1
 319 426 l 1
 237 343 l 1
 517 343 l 1
 605 584 l 1
 678 557 l 1
 600 343 l 1
 719 343 l 2
 786 343 840 289 840 222 c 0
 840 155 786 101 719 101 c 2
 676 101 l 1
 676 187 l 1
 719 187 l 2
 738 187 754 203 754 222 c 0
 754 241 738 257 719 257 c 2
 569 257 l 1
 481 16 l 1
EndSplineSet
EndChar

StartChar: sym03F_uni0338.alt
Encoding: 51 -1 51
Width: 734
Flags: HW
HStem: 589 86<413.75 476.25>
VStem: 324 86<72 321 435 584.298> 480 86<511 584.298>
LayerCount: 2
Fore
SplineSet
624 513 m 1
 651 440 l 1
 410 352 l 1
 410 72 l 1
 493 154 l 1
 553 94 l 1
 367 -93 l 1
 181 94 l 1
 241 154 l 1
 324 72 l 1
 324 321 l 1
 110 243 l 1
 83 316 l 1
 324 404 l 1
 324 554 l 2
 324 621 378 675 445 675 c 0
 512 675 566 621 566 554 c 2
 566 511 l 1
 480 511 l 1
 480 554 l 2
 480 573 464 589 445 589 c 0
 426 589 410 573 410 554 c 2
 410 435 l 1
 624 513 l 1
EndSplineSet
EndChar

StartChar: uni29240338.alt
Encoding: 52 -1 52
Width: 1102
Flags: HW
HStem: 55 85<285.336 351.424> 492 86<565 682>
VStem: 195 87<142.888 211.841> 743 86<314 431>
LayerCount: 2
Fore
SplineSet
282 176 m 0
 282 157 297 140 316 140 c 0
 325 140 334 144 341 151 c 2
 447 257 l 1
 339 489 l 1
 409 522 l 1
 506 316 l 1
 682 492 l 1
 565 492 l 1
 565 578 l 1
 829 578 l 1
 829 314 l 1
 743 314 l 1
 743 431 l 1
 544 232 l 1
 653 0 l 1
 582 -32 l 1
 486 174 l 1
 402 90 l 2
 378 66 347 55 316 55 c 0
 249 55 195 110 195 176 c 0
 195 207 207 237 231 261 c 2
 261 292 l 1
 322 231 l 1
 292 200 l 2
 285 194 282 185 282 176 c 0
EndSplineSet
EndChar

StartChar: uni29230338
Encoding: 53 -1 53
Width: 1102
Flags: HW
HStem: -56 86<639.732 706.77> 492 86<420 537>
VStem: 273 86<314 431> 710 86<32.5039 101.692>
LayerCount: 2
Fore
SplineSet
676 30 m 0
 697 30 710 47 710 65 c 0
 710 74 707 83 700 90 c 2
 616 174 l 1
 520 -32 l 1
 450 0 l 1
 558 232 l 1
 359 431 l 1
 359 314 l 1
 273 314 l 1
 273 578 l 1
 537 578 l 1
 537 492 l 1
 420 492 l 1
 597 315 l 1
 693 522 l 1
 763 489 l 1
 655 257 l 1
 761 151 l 2
 785 127 796 97 796 66 c 0
 796 -1 742 -56 676 -56 c 0
 645 -56 614 -44 590 -20 c 2
 560 10 l 1
 620 71 l 1
 651 40 l 2
 657 34 667 30 676 30 c 0
EndSplineSet
EndChar

StartChar: uni29260338.alt
Encoding: 54 -1 54
Width: 1102
Flags: HW
HStem: 22 86<420 537> 460 85<750.576 817.18>
VStem: 273 86<169 286> 821 86<388.401 457.081>
LayerCount: 2
Fore
SplineSet
821 424 m 0
 821 445 804 460 786 460 c 0
 777 460 768 456 761 449 c 2
 655 343 l 1
 763 111 l 1
 693 78 l 1
 597 285 l 1
 420 108 l 1
 537 108 l 1
 537 22 l 1
 273 22 l 1
 273 286 l 1
 359 286 l 1
 359 169 l 1
 558 368 l 1
 450 600 l 1
 520 632 l 1
 616 426 l 1
 700 510 l 2
 724 534 755 545 786 545 c 0
 853 545 907 490 907 424 c 0
 907 393 895 363 871 339 c 2
 841 308 l 1
 780 369 l 1
 811 400 l 2
 817 406 821 415 821 424 c 0
EndSplineSet
EndChar

StartChar: uni29250338
Encoding: 55 -1 55
Width: 1102
Flags: HW
HStem: 22 86<565 682> 570 86<395.379 462.268>
VStem: 306 86<498.308 567.398> 743 86<169 286>
LayerCount: 2
Fore
SplineSet
427 570 m 0
 407 570 392 554 392 535 c 0
 392 526 395 517 402 510 c 2
 486 426 l 1
 582 632 l 1
 653 600 l 1
 544 368 l 1
 743 169 l 1
 743 286 l 1
 829 286 l 1
 829 22 l 1
 565 22 l 1
 565 108 l 1
 682 108 l 1
 506 284 l 1
 409 78 l 1
 339 111 l 1
 447 343 l 1
 341 449 l 2
 317 473 306 503 306 534 c 0
 306 601 360 656 426 656 c 0
 457 656 488 644 512 620 c 2
 543 590 l 1
 482 529 l 1
 451 560 l 2
 445 566 436 570 427 570 c 0
EndSplineSet
EndChar

StartChar: uni21AA0338.alt
Encoding: 56 -1 56
Width: 930
Flags: HW
HStem: 101 86<180.702 254> 257 86<180.702 330 444 693>
VStem: 90 86<190.75 253.25>
LayerCount: 2
Fore
SplineSet
449 584 m 1
 522 557 l 1
 444 343 l 1
 693 343 l 1
 611 426 l 1
 671 486 l 1
 858 300 l 1
 671 114 l 1
 611 174 l 1
 693 257 l 1
 413 257 l 1
 325 16 l 1
 252 43 l 1
 330 257 l 1
 211 257 l 2
 192 257 176 241 176 222 c 0
 176 203 192 187 211 187 c 2
 254 187 l 1
 254 101 l 1
 211 101 l 2
 144 101 90 155 90 222 c 0
 90 289 144 343 211 343 c 2
 361 343 l 1
 449 584 l 1
EndSplineSet
EndChar

StartChar: sym03E_uni0338.alt
Encoding: 57 -1 57
Width: 734
Flags: HW
HStem: -75 86<413.75 476.25>
VStem: 324 86<15.7023 165 279 528> 480 86<15.7023 89>
LayerCount: 2
Fore
SplineSet
110 87 m 1
 83 160 l 1
 324 248 l 1
 324 528 l 1
 241 446 l 1
 181 506 l 1
 367 693 l 1
 553 506 l 1
 493 446 l 1
 410 528 l 1
 410 279 l 1
 624 357 l 1
 651 284 l 1
 410 196 l 1
 410 46 l 2
 410 27 426 11 445 11 c 0
 464 11 480 27 480 46 c 2
 480 89 l 1
 566 89 l 1
 566 46 l 2
 566 -21 512 -75 445 -75 c 0
 378 -75 324 -21 324 46 c 2
 324 165 l 1
 110 87 l 1
EndSplineSet
EndChar

StartChar: uni21A90338
Encoding: 58 -1 58
Width: 930
Flags: HW
HStem: 257 86<237 486 600 749.298> 413 86<676 749.298>
VStem: 754 86<346.75 409.25>
LayerCount: 2
Fore
SplineSet
481 16 m 1
 408 43 l 1
 486 257 l 1
 237 257 l 1
 319 174 l 1
 259 114 l 1
 72 300 l 1
 259 486 l 1
 319 426 l 1
 237 343 l 1
 517 343 l 1
 605 584 l 1
 678 557 l 1
 600 343 l 1
 719 343 l 2
 738 343 754 359 754 378 c 0
 754 397 738 413 719 413 c 2
 676 413 l 1
 676 499 l 1
 719 499 l 2
 786 499 840 445 840 378 c 0
 840 311 786 257 719 257 c 2
 569 257 l 1
 481 16 l 1
EndSplineSet
EndChar

StartChar: sym03F_uni0338
Encoding: 59 -1 59
Width: 734
Flags: HW
HStem: 589 86<257.75 320.25>
VStem: 168 86<511 584.298> 324 86<72 321 435 584.298>
LayerCount: 2
Fore
SplineSet
624 513 m 1
 651 440 l 1
 410 352 l 1
 410 72 l 1
 493 154 l 1
 553 94 l 1
 367 -93 l 1
 181 94 l 1
 241 154 l 1
 324 72 l 1
 324 321 l 1
 110 243 l 1
 83 316 l 1
 324 404 l 1
 324 554 l 2
 324 573 308 589 289 589 c 0
 270 589 254 573 254 554 c 2
 254 511 l 1
 168 511 l 1
 168 554 l 2
 168 621 222 675 289 675 c 0
 356 675 410 621 410 554 c 2
 410 435 l 1
 624 513 l 1
EndSplineSet
EndChar

StartChar: uni29240338
Encoding: 60 -1 60
Width: 1102
Flags: HW
HStem: -56 86<395.379 462.268> 492 86<565 682>
VStem: 306 86<32.6021 101.692> 743 86<314 431>
LayerCount: 2
Fore
SplineSet
426 -56 m 0
 360 -56 306 -1 306 66 c 0
 306 97 317 127 341 151 c 2
 447 257 l 1
 339 489 l 1
 409 522 l 1
 506 316 l 1
 682 492 l 1
 565 492 l 1
 565 578 l 1
 829 578 l 1
 829 314 l 1
 743 314 l 1
 743 431 l 1
 544 232 l 1
 653 0 l 1
 582 -32 l 1
 486 174 l 1
 402 90 l 2
 395 83 392 74 392 65 c 0
 392 46 407 30 427 30 c 0
 436 30 445 34 451 40 c 2
 482 71 l 1
 543 10 l 1
 512 -20 l 2
 488 -44 457 -56 426 -56 c 0
EndSplineSet
EndChar

StartChar: uni29230338.alt
Encoding: 61 -1 61
Width: 1102
Flags: HW
HStem: 55 85<750.576 817.18> 492 86<420 537>
VStem: 273 86<314 431> 821 86<142.919 211.599>
LayerCount: 2
Fore
SplineSet
907 176 m 0
 907 110 853 55 786 55 c 0
 755 55 724 66 700 90 c 2
 616 174 l 1
 520 -32 l 1
 450 0 l 1
 558 232 l 1
 359 431 l 1
 359 314 l 1
 273 314 l 1
 273 578 l 1
 537 578 l 1
 537 492 l 1
 420 492 l 1
 597 315 l 1
 693 522 l 1
 763 489 l 1
 655 257 l 1
 761 151 l 2
 768 144 777 140 786 140 c 0
 804 140 821 155 821 176 c 0
 821 185 817 194 811 200 c 2
 780 231 l 1
 841 292 l 1
 871 261 l 2
 895 237 907 207 907 176 c 0
EndSplineSet
EndChar

StartChar: uni29260338
Encoding: 62 -1 62
Width: 1102
Flags: HW
HStem: 22 86<420 537> 570 86<639.732 706.77>
VStem: 273 86<169 286> 710 86<498.308 567.496>
LayerCount: 2
Fore
SplineSet
676 656 m 0
 742 656 796 601 796 534 c 0
 796 503 785 473 761 449 c 2
 655 343 l 1
 763 111 l 1
 693 78 l 1
 597 285 l 1
 420 108 l 1
 537 108 l 1
 537 22 l 1
 273 22 l 1
 273 286 l 1
 359 286 l 1
 359 169 l 1
 558 368 l 1
 450 600 l 1
 520 632 l 1
 616 426 l 1
 700 510 l 2
 707 517 710 526 710 535 c 0
 710 553 697 570 676 570 c 0
 667 570 657 566 651 560 c 2
 620 529 l 1
 560 590 l 1
 590 620 l 2
 614 644 645 656 676 656 c 0
EndSplineSet
EndChar

StartChar: uni29250338.alt
Encoding: 63 -1 63
Width: 1102
Flags: HW
HStem: 22 86<565 682> 460 85<285.336 351.424>
VStem: 195 87<388.159 457.112> 743 86<169 286>
LayerCount: 2
Fore
SplineSet
195 424 m 0
 195 490 249 545 316 545 c 0
 347 545 378 534 402 510 c 2
 486 426 l 1
 582 632 l 1
 653 600 l 1
 544 368 l 1
 743 169 l 1
 743 286 l 1
 829 286 l 1
 829 22 l 1
 565 22 l 1
 565 108 l 1
 682 108 l 1
 506 284 l 1
 409 78 l 1
 339 111 l 1
 447 343 l 1
 341 449 l 2
 334 456 325 460 316 460 c 0
 297 460 282 443 282 424 c 0
 282 415 285 406 292 400 c 2
 322 369 l 1
 261 308 l 1
 231 339 l 2
 207 363 195 393 195 424 c 0
EndSplineSet
EndChar

StartChar: uni21C00338
Encoding: 64 -1 64
Width: 930
Flags: HW
HStem: 257 86<90 330 444 693>
LayerCount: 2
Fore
SplineSet
449 584 m 1
 522 557 l 1
 444 343 l 1
 693 343 l 1
 589 447 l 1
 650 508 l 1
 858 300 l 1
 846 257 l 1
 413 257 l 1
 325 16 l 1
 252 43 l 1
 330 257 l 1
 90 257 l 1
 90 343 l 1
 361 343 l 1
 449 584 l 1
EndSplineSet
EndChar

StartChar: uni21BF0338
Encoding: 65 -1 65
Width: 734
Flags: HW
VStem: 324 86<-75 165 279 528>
LayerCount: 2
Fore
SplineSet
110 87 m 1
 83 160 l 1
 324 248 l 1
 324 528 l 1
 220 424 l 1
 159 485 l 1
 367 693 l 1
 410 681 l 1
 410 279 l 1
 624 357 l 1
 651 284 l 1
 410 196 l 1
 410 -75 l 1
 324 -75 l 1
 324 165 l 1
 110 87 l 1
EndSplineSet
EndChar

StartChar: uni21BD0338
Encoding: 66 -1 66
Width: 930
Flags: HW
HStem: 257 86<237 486 600 840>
LayerCount: 2
Fore
SplineSet
481 16 m 1
 408 43 l 1
 486 257 l 1
 237 257 l 1
 341 153 l 1
 280 92 l 1
 72 300 l 1
 84 343 l 1
 517 343 l 1
 605 584 l 1
 678 557 l 1
 600 343 l 1
 840 343 l 1
 840 257 l 1
 569 257 l 1
 481 16 l 1
EndSplineSet
EndChar

StartChar: uni21C20338
Encoding: 67 -1 67
Width: 734
Flags: HW
VStem: 324 86<72 321 435 675>
LayerCount: 2
Fore
SplineSet
624 513 m 1
 651 440 l 1
 410 352 l 1
 410 72 l 1
 514 176 l 1
 575 115 l 1
 367 -93 l 1
 324 -81 l 1
 324 321 l 1
 110 243 l 1
 83 316 l 1
 324 404 l 1
 324 675 l 1
 410 675 l 1
 410 435 l 1
 624 513 l 1
EndSplineSet
EndChar

StartChar: sym041_uni0338
Encoding: 68 -1 68
Width: 1102
Flags: HW
HStem: 492 86<535 682>
LayerCount: 2
Fore
SplineSet
339 489 m 1
 409 522 l 1
 506 316 l 1
 682 492 l 1
 535 492 l 1
 535 578 l 1
 829 578 l 1
 851 539 l 1
 544 232 l 1
 653 0 l 1
 582 -32 l 1
 486 174 l 1
 316 4 l 1
 255 65 l 1
 447 257 l 1
 339 489 l 1
EndSplineSet
EndChar

StartChar: sym040_uni0338
Encoding: 69 -1 69
Width: 1102
Flags: HW
VStem: 273 86<284 431>
LayerCount: 2
Fore
SplineSet
520 -32 m 1
 450 0 l 1
 558 232 l 1
 359 431 l 1
 359 284 l 1
 273 284 l 1
 273 578 l 1
 312 600 l 1
 597 315 l 1
 693 522 l 1
 763 489 l 1
 655 257 l 1
 847 65 l 1
 786 4 l 1
 616 174 l 1
 520 -32 l 1
EndSplineSet
EndChar

StartChar: sym043_uni0338
Encoding: 70 -1 70
Width: 1102
Flags: HW
HStem: 22 86<420 567>
LayerCount: 2
Fore
SplineSet
763 111 m 1
 693 78 l 1
 597 285 l 1
 420 108 l 1
 567 108 l 1
 567 22 l 1
 273 22 l 1
 251 61 l 1
 558 368 l 1
 450 600 l 1
 520 632 l 1
 616 426 l 1
 786 596 l 1
 847 535 l 1
 655 343 l 1
 763 111 l 1
EndSplineSet
EndChar

StartChar: sym042_uni0338
Encoding: 71 -1 71
Width: 1102
Flags: HW
HStem: 0 21G<770 825.455>
VStem: 743 86<169 316>
LayerCount: 2
Fore
SplineSet
582 632 m 1
 653 600 l 1
 544 368 l 1
 743 169 l 1
 743 316 l 1
 829 316 l 1
 829 22 l 1
 790 0 l 1
 506 284 l 1
 409 78 l 1
 339 111 l 1
 447 343 l 1
 255 535 l 1
 316 596 l 1
 486 426 l 1
 582 632 l 1
EndSplineSet
EndChar

StartChar: uni21C10338
Encoding: 72 -1 72
Width: 930
Flags: HW
HStem: 257 86<90 330 444 693>
LayerCount: 2
Fore
SplineSet
449 584 m 1
 522 557 l 1
 444 343 l 1
 846 343 l 1
 858 300 l 1
 650 92 l 1
 589 153 l 1
 693 257 l 1
 413 257 l 1
 325 16 l 1
 252 43 l 1
 330 257 l 1
 90 257 l 1
 90 343 l 1
 361 343 l 1
 449 584 l 1
EndSplineSet
EndChar

StartChar: uni21BE0338
Encoding: 73 -1 73
Width: 734
Flags: HW
VStem: 324 86<-75 165 279 528>
LayerCount: 2
Fore
SplineSet
110 87 m 1
 83 160 l 1
 324 248 l 1
 324 681 l 1
 367 693 l 1
 575 485 l 1
 514 424 l 1
 410 528 l 1
 410 279 l 1
 624 357 l 1
 651 284 l 1
 410 196 l 1
 410 -75 l 1
 324 -75 l 1
 324 165 l 1
 110 87 l 1
EndSplineSet
EndChar

StartChar: uni21BC0338
Encoding: 74 -1 74
Width: 930
Flags: HW
HStem: 257 86<237 486 600 840>
LayerCount: 2
Fore
SplineSet
481 16 m 1
 408 43 l 1
 486 257 l 1
 84 257 l 1
 72 300 l 1
 280 508 l 1
 341 447 l 1
 237 343 l 1
 517 343 l 1
 605 584 l 1
 678 557 l 1
 600 343 l 1
 840 343 l 1
 840 257 l 1
 569 257 l 1
 481 16 l 1
EndSplineSet
EndChar

StartChar: uni21C30338
Encoding: 75 -1 75
Width: 734
Flags: HW
VStem: 324 86<72 321 435 675>
LayerCount: 2
Fore
SplineSet
624 513 m 1
 651 440 l 1
 410 352 l 1
 410 -81 l 1
 367 -93 l 1
 159 115 l 1
 220 176 l 1
 324 72 l 1
 324 321 l 1
 110 243 l 1
 83 316 l 1
 324 404 l 1
 324 675 l 1
 410 675 l 1
 410 435 l 1
 624 513 l 1
EndSplineSet
EndChar

StartChar: sym045_uni0338
Encoding: 76 -1 76
Width: 1102
Flags: HW
VStem: 743 86<284 431>
LayerCount: 2
Fore
SplineSet
339 489 m 1
 409 522 l 1
 506 316 l 1
 790 600 l 1
 829 578 l 1
 829 284 l 1
 743 284 l 1
 743 431 l 1
 544 232 l 1
 653 0 l 1
 582 -32 l 1
 486 174 l 1
 316 4 l 1
 255 65 l 1
 447 257 l 1
 339 489 l 1
EndSplineSet
EndChar

StartChar: sym044_uni0338
Encoding: 77 -1 77
Width: 1102
Flags: HW
HStem: 492 86<420 567>
LayerCount: 2
Fore
SplineSet
520 -32 m 1
 450 0 l 1
 558 232 l 1
 251 539 l 1
 273 578 l 1
 567 578 l 1
 567 492 l 1
 420 492 l 1
 597 315 l 1
 693 522 l 1
 763 489 l 1
 655 257 l 1
 847 65 l 1
 786 4 l 1
 616 174 l 1
 520 -32 l 1
EndSplineSet
EndChar

StartChar: sym047_uni0338
Encoding: 78 -1 78
Width: 1102
Flags: HW
HStem: 0 21G<276.545 332>
VStem: 273 86<169 316>
LayerCount: 2
Fore
SplineSet
763 111 m 1
 693 78 l 1
 597 285 l 1
 312 0 l 1
 273 22 l 1
 273 316 l 1
 359 316 l 1
 359 169 l 1
 558 368 l 1
 450 600 l 1
 520 632 l 1
 616 426 l 1
 786 596 l 1
 847 535 l 1
 655 343 l 1
 763 111 l 1
EndSplineSet
EndChar

StartChar: sym046_uni0338
Encoding: 79 -1 79
Width: 1102
Flags: HW
HStem: 22 86<535 682>
LayerCount: 2
Fore
SplineSet
582 632 m 1
 653 600 l 1
 544 368 l 1
 851 61 l 1
 829 22 l 1
 535 22 l 1
 535 108 l 1
 682 108 l 1
 506 284 l 1
 409 78 l 1
 339 111 l 1
 447 343 l 1
 255 535 l 1
 316 596 l 1
 486 426 l 1
 582 632 l 1
EndSplineSet
EndChar

StartChar: uni294B0338
Encoding: 80 -1 80
Width: 930
Flags: HW
HStem: 257 86<237 418 512 693>
LayerCount: 2
Fore
SplineSet
475 579 m 1
 551 565 l 1
 512 343 l 1
 693 343 l 1
 589 447 l 1
 650 508 l 1
 858 300 l 1
 846 257 l 1
 497 257 l 1
 455 21 l 1
 379 35 l 1
 418 257 l 1
 237 257 l 1
 341 153 l 1
 280 92 l 1
 72 300 l 1
 84 343 l 1
 433 343 l 1
 475 579 l 1
EndSplineSet
EndChar

StartChar: uni294D0338
Encoding: 81 -1 81
Width: 734
Flags: HW
VStem: 324 86<72 243 357 528>
LayerCount: 2
Fore
SplineSet
110 165 m 1
 83 238 l 1
 324 326 l 1
 324 528 l 1
 220 424 l 1
 159 485 l 1
 367 693 l 1
 410 681 l 1
 410 357 l 1
 624 435 l 1
 651 362 l 1
 410 274 l 1
 410 72 l 1
 514 176 l 1
 575 115 l 1
 367 -93 l 1
 324 -81 l 1
 324 243 l 1
 110 165 l 1
EndSplineSet
EndChar

StartChar: sym049_uni0338
Encoding: 82 -1 82
Width: 1102
Flags: HW
HStem: 22 86<420 567> 492 86<535 682> 529 20G<396 438.054>
LayerCount: 2
Fore
SplineSet
361 504 m 1xc0
 424 549 l 1xa0
 554 364 l 1
 682 492 l 1
 535 492 l 1
 535 578 l 1
 829 578 l 1
 851 539 l 1
 604 292 l 1
 741 96 l 1
 678 51 l 1
 548 236 l 1
 420 108 l 1
 567 108 l 1
 567 22 l 1
 273 22 l 1
 251 61 l 1
 498 308 l 1
 361 504 l 1xc0
EndSplineSet
EndChar

StartChar: sym048_uni0338
Encoding: 83 -1 83
Width: 1102
Flags: HW
HStem: 0 21G<770 825.455>
VStem: 273 86<284 431> 743 86<169 316>
LayerCount: 2
Fore
SplineSet
465 23 m 1
 394 56 l 1
 502 288 l 1
 359 431 l 1
 359 284 l 1
 273 284 l 1
 273 578 l 1
 312 600 l 1
 541 371 l 1
 638 577 l 1
 708 544 l 1
 600 312 l 1
 743 169 l 1
 743 316 l 1
 829 316 l 1
 829 22 l 1
 790 0 l 1
 561 229 l 1
 465 23 l 1
EndSplineSet
EndChar

StartChar: uni294A0338
Encoding: 84 -1 84
Width: 930
Flags: HW
HStem: 257 86<237 408 522 693>
LayerCount: 2
Fore
SplineSet
527 584 m 1
 600 557 l 1
 522 343 l 1
 846 343 l 1
 858 300 l 1
 650 92 l 1
 589 153 l 1
 693 257 l 1
 491 257 l 1
 403 16 l 1
 330 43 l 1
 408 257 l 1
 84 257 l 1
 72 300 l 1
 280 508 l 1
 341 447 l 1
 237 343 l 1
 439 343 l 1
 527 584 l 1
EndSplineSet
EndChar

StartChar: uni294C0338
Encoding: 85 -1 85
Width: 734
Flags: HW
VStem: 324 86<72 253 347 528>
LayerCount: 2
Fore
SplineSet
102 214 m 1
 88 290 l 1
 324 332 l 1
 324 681 l 1
 367 693 l 1
 575 485 l 1
 514 424 l 1
 410 528 l 1
 410 347 l 1
 632 386 l 1
 646 310 l 1
 410 268 l 1
 410 -81 l 1
 367 -93 l 1
 159 115 l 1
 220 176 l 1
 324 72 l 1
 324 253 l 1
 102 214 l 1
EndSplineSet
EndChar

StartChar: sym04B_uni0338
Encoding: 86 -1 86
Width: 1102
Flags: HW
HStem: 0 21G<276.545 332>
VStem: 273 86<169 316> 743 86<284 431>
LayerCount: 2
Fore
SplineSet
394 544 m 1
 465 577 l 1
 561 371 l 1
 790 600 l 1
 829 578 l 1
 829 284 l 1
 743 284 l 1
 743 431 l 1
 600 288 l 1
 708 56 l 1
 638 23 l 1
 541 229 l 1
 312 0 l 1
 273 22 l 1
 273 316 l 1
 359 316 l 1
 359 169 l 1
 502 312 l 1
 394 544 l 1
EndSplineSet
EndChar

StartChar: sym04A_uni0338
Encoding: 87 -1 87
Width: 1102
Flags: HW
HStem: 22 86<535 682> 492 86<420 567> 529 20G<663.946 706>
LayerCount: 2
Fore
SplineSet
424 51 m 1xa0
 361 96 l 1
 498 292 l 1
 251 539 l 1
 273 578 l 1
 567 578 l 1
 567 492 l 1
 420 492 l 1xc0
 548 364 l 1
 678 549 l 1
 741 504 l 1
 604 308 l 1
 851 61 l 1
 829 22 l 1
 535 22 l 1
 535 108 l 1
 682 108 l 1
 554 236 l 1
 424 51 l 1xa0
EndSplineSet
EndChar

StartChar: uni21CC0338
Encoding: 88 -1 88
Width: 930
Flags: HW
HStem: -5 21G<260 300.333> 160 86<237 401 495 840> 354 87<90 435 529 692>
LayerCount: 2
Fore
SplineSet
492 676 m 1
 568 663 l 1
 529 441 l 1
 692 441 l 1
 589 545 l 1
 650 605 l 1
 858 398 l 1
 846 354 l 1
 514 354 l 1
 495 246 l 1
 840 246 l 1
 840 160 l 1
 480 160 l 1
 438 -76 l 1
 362 -63 l 1
 401 160 l 1
 237 160 l 1
 341 55 l 1
 280 -5 l 1
 72 203 l 1
 84 246 l 1
 416 246 l 1
 435 354 l 1
 90 354 l 1
 90 441 l 1
 451 441 l 1
 492 676 l 1
EndSplineSet
EndChar

StartChar: uni296E0338
Encoding: 89 -1 89
Width: 929
Flags: HW
VStem: 324 86<-75 208 321 528> 519 86<72 279 392 675>
LayerCount: 2
Fore
SplineSet
110 130 m 1
 83 202 l 1
 324 290 l 1
 324 528 l 1
 220 424 l 1
 159 485 l 1
 367 693 l 1
 410 681 l 1
 410 321 l 1
 519 361 l 1
 519 675 l 1
 605 675 l 1
 605 392 l 1
 819 470 l 1
 846 398 l 1
 605 310 l 1
 605 72 l 1
 709 176 l 1
 770 115 l 1
 562 -93 l 1
 519 -81 l 1
 519 279 l 1
 410 239 l 1
 410 -75 l 1
 324 -75 l 1
 324 208 l 1
 110 130 l 1
EndSplineSet
EndChar

StartChar: sym04D_uni0338
Encoding: 90 -1 90
Width: 1240
Flags: HW
HStem: -47 86<558 705> 561 86<535 682>
LayerCount: 2
Fore
SplineSet
373 585 m 1
 436 630 l 1
 566 445 l 1
 682 561 l 1
 535 561 l 1
 535 647 l 1
 829 647 l 1
 851 608 l 1
 616 373 l 1
 680 283 l 1
 924 527 l 1
 984 466 l 1
 730 211 l 1
 867 15 l 1
 804 -30 l 1
 674 155 l 1
 558 39 l 1
 705 39 l 1
 705 -47 l 1
 411 -47 l 1
 389 -8 l 1
 624 227 l 1
 560 317 l 1
 316 73 l 1
 255 134 l 1
 510 389 l 1
 373 585 l 1
EndSplineSet
EndChar

StartChar: sym04C_uni0338
Encoding: 91 -1 91
Width: 1240
Flags: HW
VStem: 273 86<215 362> 881 86<238 385>
LayerCount: 2
Fore
SplineSet
490 -71 m 1
 419 -38 l 1
 527 194 l 1
 359 362 l 1
 359 215 l 1
 273 215 l 1
 273 509 l 1
 312 531 l 1
 566 277 l 1
 615 382 l 1
 393 604 l 1
 454 665 l 1
 654 465 l 1
 750 671 l 1
 821 638 l 1
 713 406 l 1
 881 238 l 1
 881 385 l 1
 967 385 l 1
 967 91 l 1
 928 69 l 1
 674 323 l 1
 625 218 l 1
 847 -4 l 1
 786 -65 l 1
 586 135 l 1
 490 -71 l 1
EndSplineSet
EndChar

StartChar: uni21CB0338
Encoding: 92 -1 92
Width: 930
Flags: HW
HStem: -5 21G<629.667 670> 160 86<90 373 486 693> 354 87<238 444 557 840>
LayerCount: 2
Fore
SplineSet
563 681 m 1
 635 655 l 1
 557 441 l 1
 840 441 l 1
 840 354 l 1
 525 354 l 1
 486 246 l 1
 846 246 l 1
 858 203 l 1
 650 -5 l 1
 589 55 l 1
 693 160 l 1
 455 160 l 1
 367 -81 l 1
 295 -55 l 1
 373 160 l 1
 90 160 l 1
 90 246 l 1
 405 246 l 1
 444 354 l 1
 84 354 l 1
 72 398 l 1
 280 605 l 1
 341 545 l 1
 238 441 l 1
 476 441 l 1
 563 681 l 1
EndSplineSet
EndChar

StartChar: uni296F0338
Encoding: 93 -1 93
Width: 929
Flags: HW
VStem: 324 86<72 236 330 675> 519 86<-75 270 364 528>
LayerCount: 2
Fore
SplineSet
102 197 m 1
 88 273 l 1
 324 315 l 1
 324 675 l 1
 410 675 l 1
 410 330 l 1
 519 349 l 1
 519 681 l 1
 562 693 l 1
 770 485 l 1
 709 424 l 1
 605 528 l 1
 605 364 l 1
 827 403 l 1
 841 327 l 1
 605 285 l 1
 605 -75 l 1
 519 -75 l 1
 519 270 l 1
 410 251 l 1
 410 -81 l 1
 367 -93 l 1
 159 115 l 1
 220 176 l 1
 324 72 l 1
 324 236 l 1
 102 197 l 1
EndSplineSet
EndChar

StartChar: sym04F_uni0338
Encoding: 94 -1 94
Width: 1240
Flags: HW
VStem: 273 86<238 385> 881 86<215 362>
LayerCount: 2
Fore
SplineSet
419 638 m 1
 490 671 l 1
 586 465 l 1
 786 665 l 1
 847 604 l 1
 625 382 l 1
 674 277 l 1
 928 531 l 1
 967 509 l 1
 967 215 l 1
 881 215 l 1
 881 362 l 1
 713 194 l 1
 821 -38 l 1
 750 -71 l 1
 654 135 l 1
 454 -65 l 1
 393 -4 l 1
 615 218 l 1
 566 323 l 1
 312 69 l 1
 273 91 l 1
 273 385 l 1
 359 385 l 1
 359 238 l 1
 527 406 l 1
 419 638 l 1
EndSplineSet
EndChar

StartChar: sym04E_uni0338
Encoding: 95 -1 95
Width: 1240
Flags: HW
HStem: -47 86<535 682> 561 86<558 705>
LayerCount: 2
Fore
SplineSet
436 -30 m 1
 373 15 l 1
 510 211 l 1
 255 466 l 1
 316 527 l 1
 560 283 l 1
 624 373 l 1
 389 608 l 1
 411 647 l 1
 705 647 l 1
 705 561 l 1
 558 561 l 1
 674 445 l 1
 804 630 l 1
 867 585 l 1
 730 389 l 1
 984 134 l 1
 924 73 l 1
 680 317 l 1
 616 227 l 1
 851 -8 l 1
 829 -47 l 1
 535 -47 l 1
 535 39 l 1
 682 39 l 1
 566 155 l 1
 436 -30 l 1
EndSplineSet
EndChar

StartChar: uni21E20338
Encoding: 96 -1 96
Width: 930
Flags: HW
HStem: 257 86<90 266 565 693>
LayerCount: 2
Fore
SplineSet
90 257 m 1
 90 343 l 1
 266 343 l 1
 266 257 l 1
 90 257 l 1
858 300 m 1
 671 114 l 1
 611 174 l 1
 693 257 l 1
 565 257 l 1
 565 343 l 1
 693 343 l 1
 611 426 l 1
 671 486 l 1
 858 300 l 1
477 584 m 1
 550 557 l 1
 353 16 l 1
 280 43 l 1
 477 584 l 1
EndSplineSet
EndChar

StartChar: uni21E10338
Encoding: 97 -1 97
Width: 734
Flags: HW
VStem: 324 86<-75 101 400 528>
LayerCount: 2
Fore
SplineSet
410 -75 m 1
 324 -75 l 1
 324 101 l 1
 410 101 l 1
 410 -75 l 1
367 693 m 1
 553 506 l 1
 493 446 l 1
 410 528 l 1
 410 400 l 1
 324 400 l 1
 324 528 l 1
 241 446 l 1
 181 506 l 1
 367 693 l 1
110 115 m 1
 83 188 l 1
 624 385 l 1
 651 312 l 1
 110 115 l 1
EndSplineSet
EndChar

StartChar: uni21E00338
Encoding: 98 -1 98
Width: 930
Flags: HW
HStem: 257 86<237 365 664 840>
LayerCount: 2
Fore
SplineSet
840 343 m 1
 840 257 l 1
 664 257 l 1
 664 343 l 1
 840 343 l 1
72 300 m 1
 259 486 l 1
 319 426 l 1
 237 343 l 1
 365 343 l 1
 365 257 l 1
 237 257 l 1
 319 174 l 1
 259 114 l 1
 72 300 l 1
453 16 m 1
 380 43 l 1
 577 584 l 1
 650 557 l 1
 453 16 l 1
EndSplineSet
EndChar

StartChar: uni21E30338
Encoding: 99 -1 99
Width: 734
Flags: HW
VStem: 324 86<72 200 499 675>
LayerCount: 2
Fore
SplineSet
324 675 m 1
 410 675 l 1
 410 499 l 1
 324 499 l 1
 324 675 l 1
367 -93 m 1
 181 94 l 1
 241 154 l 1
 324 72 l 1
 324 200 l 1
 410 200 l 1
 410 72 l 1
 493 154 l 1
 553 94 l 1
 367 -93 l 1
624 485 m 1
 651 412 l 1
 110 215 l 1
 83 288 l 1
 624 485 l 1
EndSplineSet
EndChar

StartChar: sym051_uni0338
Encoding: 100 -1 100
Width: 1102
Flags: HW
HStem: 492 86<565 682>
VStem: 743 86<314 431>
LayerCount: 2
Fore
SplineSet
316 4 m 1
 255 65 l 1
 380 190 l 1
 441 129 l 1
 316 4 l 1
829 578 m 1
 829 314 l 1
 743 314 l 1
 743 431 l 1
 652 340 l 1
 591 401 l 1
 682 492 l 1
 565 492 l 1
 565 578 l 1
 829 578 l 1
359 509 m 1
 429 542 l 1
 672 20 l 1
 602 -12 l 1
 359 509 l 1
EndSplineSet
EndChar

StartChar: sym050_uni0338
Encoding: 101 -1 101
Width: 1102
Flags: HW
HStem: 492 86<420 537>
VStem: 273 86<314 431>
LayerCount: 2
Fore
SplineSet
847 65 m 1
 786 4 l 1
 661 129 l 1
 722 190 l 1
 847 65 l 1
273 578 m 1
 537 578 l 1
 537 492 l 1
 420 492 l 1
 511 401 l 1
 450 340 l 1
 359 431 l 1
 359 314 l 1
 273 314 l 1
 273 578 l 1
500 -12 m 1
 430 20 l 1
 673 542 l 1
 743 509 l 1
 500 -12 l 1
EndSplineSet
EndChar

StartChar: sym053_uni0338
Encoding: 102 -1 102
Width: 1102
Flags: HW
HStem: 22 86<420 537>
VStem: 273 86<169 286>
LayerCount: 2
Fore
SplineSet
786 596 m 1
 847 535 l 1
 722 410 l 1
 661 471 l 1
 786 596 l 1
273 22 m 1
 273 286 l 1
 359 286 l 1
 359 169 l 1
 450 260 l 1
 511 199 l 1
 420 108 l 1
 537 108 l 1
 537 22 l 1
 273 22 l 1
743 91 m 1
 673 58 l 1
 430 580 l 1
 500 612 l 1
 743 91 l 1
EndSplineSet
EndChar

StartChar: sym052_uni0338
Encoding: 103 -1 103
Width: 1102
Flags: HW
HStem: 22 86<565 682>
VStem: 743 86<169 286>
LayerCount: 2
Fore
SplineSet
255 535 m 1
 316 596 l 1
 441 471 l 1
 380 410 l 1
 255 535 l 1
829 22 m 1
 565 22 l 1
 565 108 l 1
 682 108 l 1
 591 199 l 1
 652 260 l 1
 743 169 l 1
 743 286 l 1
 829 286 l 1
 829 22 l 1
602 612 m 1
 672 580 l 1
 429 58 l 1
 359 91 l 1
 602 612 l 1
EndSplineSet
EndChar

StartChar: uni22B80338
Encoding: 104 -1 104
Width: 930
Flags: HW
HStem: 132 86<617.189 726.494> 257 86<90 283 397 516.577> 382 86<617.189 726.494>
VStem: 754 86<245.506 354.494>
CounterMasks: 1 e0
LayerCount: 2
Fore
SplineSet
672 218 m 0
 717 218 754 255 754 300 c 0
 754 345 717 382 672 382 c 0
 631 382 590 349 590 300 c 0
 590 251 631 218 672 218 c 0
672 132 m 0
 596 132 529 185 510 257 c 1
 366 257 l 1
 278 16 l 1
 205 43 l 1
 283 257 l 1
 90 257 l 1
 90 343 l 1
 314 343 l 1
 402 584 l 1
 475 557 l 1
 397 343 l 1
 510 343 l 1
 529 415 596 468 672 468 c 0
 765 468 840 393 840 300 c 0
 840 207 765 132 672 132 c 0
EndSplineSet
EndChar

StartChar: uni2AEF0338
Encoding: 105 -1 105
Width: 734
Flags: HW
HStem: 589 86<312.903 421.494>
VStem: 199 86<452.535 561.163> 324 86<-75 118 232 351.577> 449 86<452.189 561.494>
CounterMasks: 1 70
LayerCount: 2
Fore
SplineSet
367 425 m 0
 416 425 449 466 449 507 c 0
 449 552 412 589 367 589 c 0
 324 589 285 554 285 507 c 0
 285 464 320 425 367 425 c 0
535 507 m 0
 535 431 482 364 410 345 c 1
 410 232 l 1
 624 310 l 1
 651 237 l 1
 410 149 l 1
 410 -75 l 1
 324 -75 l 1
 324 118 l 1
 110 40 l 1
 83 113 l 1
 324 201 l 1
 324 345 l 1
 252 364 199 431 199 507 c 0
 199 600 274 675 367 675 c 0
 460 675 535 600 535 507 c 0
EndSplineSet
EndChar

StartChar: uni27DC0338
Encoding: 106 -1 106
Width: 930
Flags: HW
HStem: 132 86<203.506 312.811> 257 86<413.423 533 647 840> 382 86<203.506 312.811>
VStem: 90 86<245.506 354.494>
CounterMasks: 1 e0
LayerCount: 2
Fore
SplineSet
258 218 m 0
 299 218 340 251 340 300 c 0
 340 349 299 382 258 382 c 0
 213 382 176 345 176 300 c 0
 176 255 213 218 258 218 c 0
258 468 m 0
 334 468 401 415 420 343 c 1
 564 343 l 1
 652 584 l 1
 725 557 l 1
 647 343 l 1
 840 343 l 1
 840 257 l 1
 616 257 l 1
 528 16 l 1
 455 43 l 1
 533 257 l 1
 420 257 l 1
 401 185 334 132 258 132 c 0
 165 132 90 207 90 300 c 0
 90 393 165 468 258 468 c 0
EndSplineSet
EndChar

StartChar: uni2AF00338
Encoding: 107 -1 107
Width: 734
Flags: HW
HStem: -75 86<312.903 421.494>
VStem: 199 86<38.8373 147.465> 324 86<248.423 368 482 675> 449 86<38.5065 147.811>
CounterMasks: 1 70
LayerCount: 2
Fore
SplineSet
367 11 m 0
 412 11 449 48 449 93 c 0
 449 134 416 175 367 175 c 0
 320 175 285 136 285 93 c 0
 285 46 324 11 367 11 c 0
199 93 m 0
 199 169 252 236 324 255 c 1
 324 368 l 1
 110 290 l 1
 83 363 l 1
 324 451 l 1
 324 675 l 1
 410 675 l 1
 410 482 l 1
 624 560 l 1
 651 487 l 1
 410 399 l 1
 410 255 l 1
 482 236 535 169 535 93 c 0
 535 0 460 -75 367 -75 c 0
 274 -75 199 0 199 93 c 0
EndSplineSet
EndChar

StartChar: sym054_uni0338
Encoding: 108 -1 108
Width: 930
Flags: HW
HStem: 132 336<592.354 752.175> 257 86<90 283 397 516.577>
LayerCount: 2
Fore
SplineSet
672 132 m 0x80
 596 132 529 185 510 257 c 1
 366 257 l 1
 278 16 l 1
 205 43 l 1
 283 257 l 1
 90 257 l 1
 90 343 l 1
 314 343 l 1
 402 584 l 1
 475 557 l 1
 397 343 l 1
 510 343 l 1x40
 529 415 596 468 672 468 c 0
 765 468 840 393 840 300 c 0
 840 207 765 132 672 132 c 0x80
EndSplineSet
EndChar

StartChar: sym056_uni0338
Encoding: 109 -1 109
Width: 734
Flags: HW
VStem: 199 336<427.354 587.175> 324 86<-75 118 232 351.577>
LayerCount: 2
Fore
SplineSet
535 507 m 0x80
 535 431 482 364 410 345 c 1
 410 232 l 1
 624 310 l 1
 651 237 l 1
 410 149 l 1
 410 -75 l 1
 324 -75 l 1
 324 118 l 1
 110 40 l 1
 83 113 l 1
 324 201 l 1
 324 345 l 1x40
 252 364 199 431 199 507 c 0
 199 600 274 675 367 675 c 0
 460 675 535 600 535 507 c 0x80
EndSplineSet
EndChar

StartChar: sym055_uni0338
Encoding: 110 -1 110
Width: 930
Flags: HW
HStem: 132 336<177.825 337.646> 257 86<413.423 533 647 840>
LayerCount: 2
Fore
SplineSet
258 468 m 0x80
 334 468 401 415 420 343 c 1
 564 343 l 1
 652 584 l 1
 725 557 l 1
 647 343 l 1
 840 343 l 1
 840 257 l 1
 616 257 l 1
 528 16 l 1
 455 43 l 1
 533 257 l 1
 420 257 l 1x40
 401 185 334 132 258 132 c 0
 165 132 90 207 90 300 c 0
 90 393 165 468 258 468 c 0x80
EndSplineSet
EndChar

StartChar: sym057_uni0338
Encoding: 111 -1 111
Width: 734
Flags: HW
VStem: 199 336<12.8254 172.646> 324 86<248.423 368 482 675>
LayerCount: 2
Fore
SplineSet
199 93 m 0x80
 199 169 252 236 324 255 c 1
 324 368 l 1
 110 290 l 1
 83 363 l 1
 324 451 l 1
 324 675 l 1
 410 675 l 1
 410 482 l 1
 624 560 l 1
 651 487 l 1
 410 399 l 1
 410 255 l 1x40
 482 236 535 169 535 93 c 0
 535 0 460 -75 367 -75 c 0
 274 -75 199 0 199 93 c 0x80
EndSplineSet
EndChar

StartChar: uni29DF0338
Encoding: 112 -1 112
Width: 1230
Flags: HW
HStem: 132 86<203.506 312.811 917.189 1026.49> 257 86<413.423 558 672 816.577> 382 86<203.506 312.811 917.189 1026.49>
VStem: 90 86<245.506 354.494> 1054 86<245.506 354.494>
CounterMasks: 1 e0
LayerCount: 2
Fore
SplineSet
972 218 m 0
 1017 218 1054 255 1054 300 c 0
 1054 345 1017 382 972 382 c 0
 931 382 890 349 890 300 c 0
 890 251 931 218 972 218 c 0
258 218 m 0
 299 218 340 251 340 300 c 0
 340 349 299 382 258 382 c 0
 213 382 176 345 176 300 c 0
 176 255 213 218 258 218 c 0
258 468 m 0
 334 468 401 415 420 343 c 1
 589 343 l 1
 677 584 l 1
 750 557 l 1
 672 343 l 1
 810 343 l 1
 829 415 896 468 972 468 c 0
 1065 468 1140 393 1140 300 c 0
 1140 207 1065 132 972 132 c 0
 896 132 829 185 810 257 c 1
 641 257 l 1
 553 16 l 1
 480 43 l 1
 558 257 l 1
 420 257 l 1
 401 185 334 132 258 132 c 0
 165 132 90 207 90 300 c 0
 90 393 165 468 258 468 c 0
EndSplineSet
EndChar

StartChar: sym058_uni0338
Encoding: 113 -1 113
Width: 1230
Flags: HW
HStem: 132 336<177.825 337.646 892.354 1052.17> 257 86<413.423 558 672 816.577>
LayerCount: 2
Fore
SplineSet
258 468 m 0x80
 334 468 401 415 420 343 c 1
 589 343 l 1
 677 584 l 1
 750 557 l 1
 672 343 l 1
 810 343 l 1x40
 829 415 896 468 972 468 c 0
 1065 468 1140 393 1140 300 c 0
 1140 207 1065 132 972 132 c 0x80
 896 132 829 185 810 257 c 1
 641 257 l 1
 553 16 l 1
 480 43 l 1
 558 257 l 1
 420 257 l 1x40
 401 185 334 132 258 132 c 0
 165 132 90 207 90 300 c 0
 90 393 165 468 258 468 c 0x80
EndSplineSet
EndChar

StartChar: uni22B70338
Encoding: 114 -1 114
Width: 1230
Flags: HW
HStem: 132 336<177.825 337.646> 132 86<917.189 1026.49> 257 86<413.423 558 672 816.577> 382 86<917.189 1026.49>
VStem: 1054 86<245.506 354.494>
LayerCount: 2
Fore
SplineSet
972 218 m 0x58
 1017 218 1054 255 1054 300 c 0
 1054 345 1017 382 972 382 c 0
 931 382 890 349 890 300 c 0
 890 251 931 218 972 218 c 0x58
258 468 m 0x88
 334 468 401 415 420 343 c 1
 589 343 l 1
 677 584 l 1
 750 557 l 1
 672 343 l 1
 810 343 l 1
 829 415 896 468 972 468 c 0
 1065 468 1140 393 1140 300 c 0
 1140 207 1065 132 972 132 c 0
 896 132 829 185 810 257 c 1
 641 257 l 1
 553 16 l 1
 480 43 l 1
 558 257 l 1
 420 257 l 1x78
 401 185 334 132 258 132 c 0
 165 132 90 207 90 300 c 0
 90 393 165 468 258 468 c 0x88
EndSplineSet
EndChar

StartChar: uni22B60338
Encoding: 115 -1 115
Width: 1230
Flags: HW
HStem: 132 336<892.354 1052.17> 132 86<203.506 312.811> 257 86<413.423 558 672 816.577> 382 86<203.506 312.811>
VStem: 90 86<245.506 354.494>
LayerCount: 2
Fore
SplineSet
258 218 m 0x58
 299 218 340 251 340 300 c 0
 340 349 299 382 258 382 c 0
 213 382 176 345 176 300 c 0
 176 255 213 218 258 218 c 0x58
972 132 m 0x88
 896 132 829 185 810 257 c 1
 641 257 l 1
 553 16 l 1
 480 43 l 1
 558 257 l 1
 420 257 l 1
 401 185 334 132 258 132 c 0
 165 132 90 207 90 300 c 0
 90 393 165 468 258 468 c 0
 334 468 401 415 420 343 c 1
 589 343 l 1
 677 584 l 1
 750 557 l 1
 672 343 l 1
 810 343 l 1x78
 829 415 896 468 972 468 c 0
 1065 468 1140 393 1140 300 c 0
 1140 207 1065 132 972 132 c 0x88
EndSplineSet
EndChar

StartChar: sym05A_uni0338
Encoding: 116 -1 116
Width: 930
Flags: HW
HStem: 54 86<90 216 310 365.337> 257 86<90 252 346 418 501.571 840> 460 86<90 288>
VStem: 418 87<201.82 257 343 399.299>
CounterMasks: 1 e0
LayerCount: 2
Fore
SplineSet
310 140 m 1
 368 143 406 195 418 257 c 1
 331 257 l 1
 310 140 l 1
363 440 m 1
 346 343 l 1
 418 343 l 1
 410 383 391 419 363 440 c 1
331 703 m 1
 407 690 l 1
 379 530 l 1
 447 499 493 426 505 343 c 1
 840 343 l 1
 840 257 l 1
 505 257 l 1
 489 146 411 54 304 54 c 2
 295 54 l 1
 267 -103 l 1
 191 -90 l 1
 216 54 l 1
 90 54 l 1
 90 140 l 1
 232 140 l 1
 252 257 l 1
 90 257 l 1
 90 343 l 1
 267 343 l 1
 288 460 l 1
 90 460 l 1
 90 546 l 1
 303 546 l 1
 331 703 l 1
EndSplineSet
EndChar

StartChar: uni22D40338
Encoding: 117 -1 117
Width: 983
Flags: HW
HStem: 253 87<393.82 449 535 590.748>
VStem: 246 86<-75 51 145 200.337> 449 86<-75 87 181 253 336.571 675> 651 86<-75 123>
LayerCount: 2
Fore
SplineSet
631 198 m 1
 610 226 575 245 535 253 c 1
 535 181 l 1
 631 198 l 1
332 145 m 1
 449 166 l 1
 449 253 l 1
 387 241 335 202 332 145 c 1
102 26 m 1
 88 102 l 1
 246 130 l 1
 246 139 l 2
 246 246 338 324 449 340 c 1
 449 675 l 1
 535 675 l 1
 535 340 l 1
 617 328 690 282 721 214 c 1
 881 242 l 1
 895 166 l 1
 737 138 l 1
 737 -75 l 1
 651 -75 l 1
 651 123 l 1
 535 102 l 1
 535 -75 l 1
 449 -75 l 1
 449 87 l 1
 332 67 l 1
 332 -75 l 1
 246 -75 l 1
 246 51 l 1
 102 26 l 1
EndSplineSet
EndChar

StartChar: sym05B_uni0338
Encoding: 118 -1 118
Width: 930
Flags: HW
HStem: 54 86<642 840> 257 86<90 428.429 512 584 678 840> 460 86<564.663 620 714 840>
VStem: 425 87<200.701 257 343 398.18>
CounterMasks: 1 e0
LayerCount: 2
Fore
SplineSet
620 460 m 1
 562 457 524 405 512 343 c 1
 599 343 l 1
 620 460 l 1
567 160 m 1
 584 257 l 1
 512 257 l 1
 520 217 539 181 567 160 c 1
599 -103 m 1
 523 -90 l 1
 551 70 l 1
 483 101 437 174 425 257 c 1
 90 257 l 1
 90 343 l 1
 425 343 l 1
 441 454 519 546 626 546 c 2
 635 546 l 1
 663 703 l 1
 739 690 l 1
 714 546 l 1
 840 546 l 1
 840 460 l 1
 698 460 l 1
 678 343 l 1
 840 343 l 1
 840 257 l 1
 663 257 l 1
 642 140 l 1
 840 140 l 1
 840 54 l 1
 627 54 l 1
 599 -103 l 1
EndSplineSet
EndChar

StartChar: sym059_uni0338
Encoding: 119 -1 119
Width: 983
Flags: HW
HStem: 260 87<392.701 449 535 589.748>
VStem: 246 86<477 675> 449 86<-75 263.429 347 419 513 675> 651 86<399.663 455 549 675>
LayerCount: 2
Fore
SplineSet
352 402 m 1
 373 374 409 355 449 347 c 1
 449 419 l 1
 352 402 l 1
651 455 m 1
 535 434 l 1
 535 347 l 1
 596 359 648 398 651 455 c 1
881 574 m 1
 895 498 l 1
 737 470 l 1
 737 461 l 2
 737 354 645 276 535 260 c 1
 535 -75 l 1
 449 -75 l 1
 449 260 l 1
 366 272 293 318 262 386 c 1
 102 358 l 1
 88 434 l 1
 246 462 l 1
 246 675 l 1
 332 675 l 1
 332 477 l 1
 449 498 l 1
 449 675 l 1
 535 675 l 1
 535 513 l 1
 651 533 l 1
 651 675 l 1
 737 675 l 1
 737 549 l 1
 881 574 l 1
EndSplineSet
EndChar

StartChar: uni21C90338
Encoding: 120 -1 120
Width: 930
Flags: HW
HStem: 101 86<90 273 387 693> 413 86<90 387 501 693>
LayerCount: 2
Fore
SplineSet
641 300 m 1
 611 330 l 1
 693 413 l 1
 469 413 l 1
 387 187 l 1
 693 187 l 1
 611 270 l 1
 641 300 l 1
477 662 m 1
 550 635 l 1
 501 499 l 1
 693 499 l 1
 611 582 l 1
 671 642 l 1
 858 456 l 1
 701 300 l 1
 858 144 l 1
 671 -42 l 1
 611 18 l 1
 693 101 l 1
 356 101 l 1
 297 -62 l 1
 224 -35 l 1
 273 101 l 1
 90 101 l 1
 90 187 l 1
 305 187 l 1
 387 413 l 1
 90 413 l 1
 90 499 l 1
 418 499 l 1
 477 662 l 1
EndSplineSet
EndChar

StartChar: uni21C80338
Encoding: 121 -1 121
Width: 890
Flags: HW
VStem: 246 86<-75 108 222 528> 558 86<-75 222 336 528>
LayerCount: 2
Fore
SplineSet
445 476 m 1
 415 446 l 1
 332 528 l 1
 332 222 l 1
 558 304 l 1
 558 528 l 1
 475 446 l 1
 445 476 l 1
110 59 m 1
 83 132 l 1
 246 191 l 1
 246 528 l 1
 163 446 l 1
 103 506 l 1
 289 693 l 1
 445 536 l 1
 601 693 l 1
 787 506 l 1
 727 446 l 1
 644 528 l 1
 644 336 l 1
 780 385 l 1
 807 312 l 1
 644 253 l 1
 644 -75 l 1
 558 -75 l 1
 558 222 l 1
 332 140 l 1
 332 -75 l 1
 246 -75 l 1
 246 108 l 1
 110 59 l 1
EndSplineSet
EndChar

StartChar: uni21C70338
Encoding: 122 -1 122
Width: 930
Flags: HW
HStem: 101 86<237 429 543 840> 413 86<237 543 657 840>
LayerCount: 2
Fore
SplineSet
289 300 m 1
 319 270 l 1
 237 187 l 1
 461 187 l 1
 543 413 l 1
 237 413 l 1
 319 330 l 1
 289 300 l 1
453 -62 m 1
 380 -35 l 1
 429 101 l 1
 237 101 l 1
 319 18 l 1
 259 -42 l 1
 72 144 l 1
 229 300 l 1
 72 456 l 1
 259 642 l 1
 319 582 l 1
 237 499 l 1
 574 499 l 1
 633 662 l 1
 706 635 l 1
 657 499 l 1
 840 499 l 1
 840 413 l 1
 625 413 l 1
 543 187 l 1
 840 187 l 1
 840 101 l 1
 512 101 l 1
 453 -62 l 1
EndSplineSet
EndChar

StartChar: uni21CA0338
Encoding: 123 -1 123
Width: 890
Flags: HW
VStem: 246 86<72 264 378 675> 558 86<72 378 492 675>
LayerCount: 2
Fore
SplineSet
445 124 m 1
 475 154 l 1
 558 72 l 1
 558 378 l 1
 332 296 l 1
 332 72 l 1
 415 154 l 1
 445 124 l 1
780 541 m 1
 807 468 l 1
 644 409 l 1
 644 72 l 1
 727 154 l 1
 787 94 l 1
 601 -93 l 1
 445 64 l 1
 289 -93 l 1
 103 94 l 1
 163 154 l 1
 246 72 l 1
 246 264 l 1
 110 215 l 1
 83 288 l 1
 246 347 l 1
 246 675 l 1
 332 675 l 1
 332 378 l 1
 558 460 l 1
 558 675 l 1
 644 675 l 1
 644 492 l 1
 780 541 l 1
EndSplineSet
EndChar

StartChar: sym05D_uni0338
Encoding: 124 -1 124
Width: 1212
Flags: HW
HStem: 381 86<774 847> 602 86<510 627>
VStem: 688 86<467 542> 908 86<204 320>
LayerCount: 2
Fore
SplineSet
731 424 m 1
 688 424 l 1
 688 542 l 1
 529 383 l 1
 631 165 l 1
 847 381 l 1
 731 381 l 1
 731 424 l 1
359 564 m 1
 429 597 l 1
 490 466 l 1
 627 602 l 1
 510 602 l 1
 510 688 l 1
 774 688 l 1
 774 467 l 1
 994 467 l 1
 994 204 l 1
 908 204 l 1
 908 320 l 1
 670 82 l 1
 743 -75 l 1
 673 -108 l 1
 612 24 l 1
 482 -106 l 1
 421 -45 l 1
 573 107 l 1
 471 325 l 1
 261 115 l 1
 200 176 l 1
 432 408 l 1
 359 564 l 1
EndSplineSet
EndChar

StartChar: sym05C_uni0338
Encoding: 125 -1 125
Width: 1212
Flags: HW
HStem: 381 86<366 439> 602 86<585 702>
VStem: 218 86<204 321> 439 86<467 541>
LayerCount: 2
Fore
SplineSet
482 424 m 1
 482 381 l 1
 366 381 l 1
 582 165 l 1
 683 383 l 1
 525 541 l 1
 525 424 l 1
 482 424 l 1
540 -108 m 1
 470 -75 l 1
 543 82 l 1
 304 321 l 1
 304 204 l 1
 218 204 l 1
 218 467 l 1
 439 467 l 1
 439 688 l 1
 702 688 l 1
 702 602 l 1
 585 602 l 1
 722 466 l 1
 783 597 l 1
 853 564 l 1
 780 407 l 1
 1012 176 l 1
 951 115 l 1
 741 325 l 1
 640 106 l 1
 791 -45 l 1
 731 -106 l 1
 601 24 l 1
 540 -108 l 1
EndSplineSet
EndChar

StartChar: sym05F_uni0338
Encoding: 126 -1 126
Width: 1212
Flags: HW
HStem: -88 86<585 702> 133 86<366 439> 688 20G<497.576 549.242 711 750.672>
VStem: 218 86<279 396> 439 86<59 133>
LayerCount: 2
Fore
SplineSet
482 176 m 1
 525 176 l 1
 525 59 l 1
 683 217 l 1
 582 435 l 1
 366 219 l 1
 482 219 l 1
 482 176 l 1
853 36 m 1
 783 3 l 1
 722 134 l 1
 585 -2 l 1
 702 -2 l 1
 702 -88 l 1
 439 -88 l 1
 439 133 l 1
 218 133 l 1
 218 396 l 1
 304 396 l 1
 304 279 l 1
 543 518 l 1
 470 675 l 1
 540 708 l 1
 601 576 l 1
 731 706 l 1
 791 645 l 1
 640 494 l 1
 741 275 l 1
 951 485 l 1
 1012 424 l 1
 780 193 l 1
 853 36 l 1
EndSplineSet
EndChar

StartChar: sym05E_uni0338
Encoding: 127 -1 127
Width: 1212
Flags: HW
HStem: -88 86<510 627> 133 86<774 847> 688 20G<462 502 663.758 715.424>
VStem: 688 86<58 133> 908 86<280 396>
LayerCount: 2
Fore
SplineSet
731 176 m 1
 731 219 l 1
 847 219 l 1
 631 435 l 1
 529 217 l 1
 688 58 l 1
 688 176 l 1
 731 176 l 1
673 708 m 1
 743 675 l 1
 670 518 l 1
 908 280 l 1
 908 396 l 1
 994 396 l 1
 994 133 l 1
 774 133 l 1
 774 -88 l 1
 510 -88 l 1
 510 -2 l 1
 627 -2 l 1
 490 134 l 1
 429 3 l 1
 359 36 l 1
 432 192 l 1
 200 424 l 1
 261 485 l 1
 471 275 l 1
 573 493 l 1
 421 645 l 1
 482 706 l 1
 612 576 l 1
 673 708 l 1
EndSplineSet
EndChar

StartChar: uni21C40338
Encoding: 128 -1 128
Width: 930
Flags: HW
HStem: 101 86<237 391 484 840> 413 86<90 446 539 693>
LayerCount: 2
Fore
SplineSet
489 657 m 1
 565 643 l 1
 539 499 l 1
 693 499 l 1
 611 582 l 1
 671 642 l 1
 858 456 l 1
 671 270 l 1
 611 330 l 1
 693 413 l 1
 524 413 l 1
 484 187 l 1
 840 187 l 1
 840 101 l 1
 469 101 l 1
 441 -57 l 1
 365 -43 l 1
 391 101 l 1
 237 101 l 1
 319 18 l 1
 259 -42 l 1
 72 144 l 1
 259 330 l 1
 319 270 l 1
 237 187 l 1
 406 187 l 1
 446 413 l 1
 90 413 l 1
 90 499 l 1
 461 499 l 1
 489 657 l 1
EndSplineSet
EndChar

StartChar: uni21C50338
Encoding: 129 -1 129
Width: 890
Flags: HW
VStem: 246 86<-75 186 300 528> 558 86<72 300 414 675>
LayerCount: 2
Fore
SplineSet
110 137 m 1
 83 210 l 1
 246 269 l 1
 246 528 l 1
 163 446 l 1
 103 506 l 1
 289 693 l 1
 475 506 l 1
 415 446 l 1
 332 528 l 1
 332 300 l 1
 558 382 l 1
 558 675 l 1
 644 675 l 1
 644 414 l 1
 780 463 l 1
 807 390 l 1
 644 331 l 1
 644 72 l 1
 727 154 l 1
 787 94 l 1
 601 -93 l 1
 415 94 l 1
 475 154 l 1
 558 72 l 1
 558 300 l 1
 332 218 l 1
 332 -75 l 1
 246 -75 l 1
 246 186 l 1
 110 137 l 1
EndSplineSet
EndChar

StartChar: sym061_uni0338
Encoding: 130 -1 130
Width: 1212
Flags: HW
HStem: -88 86<585 702> 602 86<510 627>
VStem: 439 86<59 176> 688 86<424 542>
LayerCount: 2
Fore
SplineSet
371 569 m 1
 434 613 l 1
 518 493 l 1
 627 602 l 1
 510 602 l 1
 510 688 l 1
 774 688 l 1
 774 424 l 1
 688 424 l 1
 688 542 l 1
 568 422 l 1
 700 234 l 1
 951 485 l 1
 1012 424 l 1
 750 162 l 1
 842 31 l 1
 778 -13 l 1
 694 107 l 1
 585 -2 l 1
 702 -2 l 1
 702 -88 l 1
 439 -88 l 1
 439 176 l 1
 525 176 l 1
 525 59 l 1
 644 178 l 1
 513 367 l 1
 261 115 l 1
 200 176 l 1
 463 438 l 1
 371 569 l 1
EndSplineSet
EndChar

StartChar: sym060_uni0338
Encoding: 131 -1 131
Width: 1212
Flags: HW
HStem: 133 86<731 847> 381 86<366 482> 686 20G<462 502>
VStem: 218 86<204 321> 908 86<280 396>
LayerCount: 2
Fore
SplineSet
485 -52 m 1
 414 -20 l 1
 488 137 l 1
 304 321 l 1
 304 204 l 1
 218 204 l 1
 218 467 l 1
 482 467 l 1
 482 381 l 1
 366 381 l 1
 526 220 l 1
 628 438 l 1
 421 645 l 1
 482 706 l 1
 667 521 l 1
 728 652 l 1
 798 620 l 1
 725 463 l 1
 908 280 l 1
 908 396 l 1
 994 396 l 1
 994 133 l 1
 731 133 l 1
 731 219 l 1
 847 219 l 1
 686 380 l 1
 585 162 l 1
 791 -45 l 1
 731 -106 l 1
 546 79 l 1
 485 -52 l 1
EndSplineSet
EndChar

StartChar: uni21C60338
Encoding: 132 -1 132
Width: 930
Flags: HW
HStem: 101 86<90 351 465 693> 413 86<237 465 579 840>
LayerCount: 2
Fore
SplineSet
555 662 m 1
 628 635 l 1
 579 499 l 1
 840 499 l 1
 840 413 l 1
 547 413 l 1
 465 187 l 1
 693 187 l 1
 611 270 l 1
 671 330 l 1
 858 144 l 1
 671 -42 l 1
 611 18 l 1
 693 101 l 1
 434 101 l 1
 375 -62 l 1
 302 -35 l 1
 351 101 l 1
 90 101 l 1
 90 187 l 1
 383 187 l 1
 465 413 l 1
 237 413 l 1
 319 330 l 1
 259 270 l 1
 72 456 l 1
 259 642 l 1
 319 582 l 1
 237 499 l 1
 496 499 l 1
 555 662 l 1
EndSplineSet
EndChar

StartChar: uni21F50338
Encoding: 133 -1 133
Width: 890
Flags: HW
VStem: 246 86<72 226 319 675> 558 86<-75 281 374 528>
LayerCount: 2
Fore
SplineSet
102 200 m 1
 88 276 l 1
 246 304 l 1
 246 675 l 1
 332 675 l 1
 332 319 l 1
 558 359 l 1
 558 528 l 1
 475 446 l 1
 415 506 l 1
 601 693 l 1
 787 506 l 1
 727 446 l 1
 644 528 l 1
 644 374 l 1
 788 400 l 1
 802 324 l 1
 644 296 l 1
 644 -75 l 1
 558 -75 l 1
 558 281 l 1
 332 241 l 1
 332 72 l 1
 415 154 l 1
 475 94 l 1
 289 -93 l 1
 103 94 l 1
 163 154 l 1
 246 72 l 1
 246 226 l 1
 102 200 l 1
EndSplineSet
EndChar

StartChar: sym063_uni0338
Encoding: 134 -1 134
Width: 1212
Flags: HW
HStem: 133 86<366 482> 381 86<731 847> 686 20G<711 750.672>
VStem: 218 86<279 396> 908 86<204 320>
LayerCount: 2
Fore
SplineSet
414 620 m 1
 485 652 l 1
 546 521 l 1
 731 706 l 1
 791 645 l 1
 585 438 l 1
 686 220 l 1
 847 381 l 1
 731 381 l 1
 731 467 l 1
 994 467 l 1
 994 204 l 1
 908 204 l 1
 908 320 l 1
 725 137 l 1
 798 -20 l 1
 728 -52 l 1
 667 79 l 1
 482 -106 l 1
 421 -45 l 1
 628 162 l 1
 526 380 l 1
 366 219 l 1
 482 219 l 1
 482 133 l 1
 218 133 l 1
 218 396 l 1
 304 396 l 1
 304 279 l 1
 488 463 l 1
 414 620 l 1
EndSplineSet
EndChar

StartChar: sym062_uni0338
Encoding: 135 -1 135
Width: 1212
Flags: HW
HStem: -88 86<510 627> 602 86<585 702>
VStem: 439 86<424 541> 688 86<58 176>
LayerCount: 2
Fore
SplineSet
434 -13 m 1
 371 31 l 1
 463 162 l 1
 200 424 l 1
 261 485 l 1
 513 233 l 1
 644 422 l 1
 525 541 l 1
 525 424 l 1
 439 424 l 1
 439 688 l 1
 702 688 l 1
 702 602 l 1
 585 602 l 1
 694 493 l 1
 778 613 l 1
 842 569 l 1
 750 438 l 1
 1012 176 l 1
 951 115 l 1
 700 366 l 1
 568 178 l 1
 688 58 l 1
 688 176 l 1
 774 176 l 1
 774 -88 l 1
 510 -88 l 1
 510 -2 l 1
 627 -2 l 1
 518 107 l 1
 434 -13 l 1
EndSplineSet
EndChar

StartChar: uni219D0338
Encoding: 136 57883 136
Width: 930
Flags: HW
HStem: 179 86<456.715 539.602> 257 86<614.266 693> 335 86<227.933 325.765>
LayerCount: 2
Fore
SplineSet
449 584 m 1xa0
 522 557 l 1
 434 314 l 1
 452 289 472 265 502 265 c 0xa0
 522 265 535 285 551 296 c 0
 582 318 618 343 649 343 c 2
 693 343 l 1
 611 426 l 1
 671 486 l 1
 858 300 l 1
 671 114 l 1
 611 174 l 1
 693 257 l 1
 649 257 l 2x40
 645 257 617 237 600 226 c 0
 570 204 539 179 502 179 c 0
 463 179 429 197 400 223 c 1
 325 16 l 1
 252 43 l 1
 343 293 l 1
 326 315 308 335 281 335 c 0
 227 335 199 280 168 236 c 1
 98 286 l 1
 144 352 200 421 281 421 c 0
 317 421 349 405 376 382 c 1
 449 584 l 1xa0
EndSplineSet
EndChar

StartChar: sym064_uni0338.alt
Encoding: 137 -1 137
Width: 734
Flags: HW
VStem: 246 86<62.9328 160.765> 324 86<449.266 528> 402 86<291.715 374.602>
LayerCount: 2
Fore
SplineSet
83 284 m 1xa0
 110 357 l 1
 353 269 l 1
 378 287 402 307 402 337 c 0xa0
 402 357 382 370 371 386 c 0
 349 417 324 453 324 484 c 2
 324 528 l 1
 241 446 l 1
 181 506 l 1
 367 693 l 1
 553 506 l 1
 493 446 l 1
 410 528 l 1
 410 484 l 2x40
 410 480 430 452 441 435 c 0
 463 405 488 374 488 337 c 0
 488 298 470 264 444 235 c 1
 651 160 l 1
 624 87 l 1
 374 178 l 1
 352 161 332 143 332 116 c 0
 332 62 387 34 431 3 c 1
 381 -67 l 1
 315 -21 246 35 246 116 c 0
 246 152 262 184 285 211 c 1
 83 284 l 1xa0
EndSplineSet
EndChar

StartChar: uni219C0338.alt
Encoding: 138 -1 138
Width: 930
Flags: HW
HStem: 179 86<604.235 702.067> 257 86<237 315.734> 335 86<390.398 473.285>
LayerCount: 2
Fore
SplineSet
481 16 m 1xa0
 408 43 l 1
 496 286 l 1
 478 311 458 335 428 335 c 0xa0
 408 335 395 315 379 304 c 0
 348 282 312 257 281 257 c 2
 237 257 l 1
 319 174 l 1
 259 114 l 1
 72 300 l 1
 259 486 l 1
 319 426 l 1
 237 343 l 1
 281 343 l 2x40
 285 343 313 363 330 374 c 0
 360 396 391 421 428 421 c 0
 467 421 501 403 530 377 c 1
 605 584 l 1
 678 557 l 1
 587 307 l 1
 604 285 622 265 649 265 c 0
 703 265 731 320 762 364 c 1
 832 314 l 1
 786 248 730 179 649 179 c 0
 613 179 581 195 554 218 c 1
 481 16 l 1xa0
EndSplineSet
EndChar

StartChar: sym065_uni0338
Encoding: 139 -1 139
Width: 734
Flags: HW
VStem: 246 86<225.398 308.285> 324 86<72 150.734> 402 86<439.235 537.067>
LayerCount: 2
Fore
SplineSet
651 316 m 1xa0
 624 243 l 1
 381 331 l 1
 356 313 332 293 332 263 c 0xa0
 332 243 352 230 363 214 c 0
 385 183 410 147 410 116 c 2
 410 72 l 1
 493 154 l 1
 553 94 l 1
 367 -93 l 1
 181 94 l 1
 241 154 l 1
 324 72 l 1
 324 116 l 2x40
 324 120 304 148 293 165 c 0
 271 195 246 226 246 263 c 0
 246 302 264 336 290 365 c 1
 83 440 l 1
 110 513 l 1
 360 422 l 1
 382 439 402 457 402 484 c 0
 402 538 347 566 303 597 c 1
 353 667 l 1
 419 621 488 565 488 484 c 0
 488 448 472 416 449 389 c 1
 651 316 l 1xa0
EndSplineSet
EndChar

StartChar: uni219D0338.alt
Encoding: 140 -1 140
Width: 930
Flags: HW
HStem: 179 86<227.933 301.738> 257 86<614.266 693> 335 86<471.761 539.602>
LayerCount: 2
Fore
SplineSet
449 584 m 1x80
 522 557 l 1
 471 417 l 1
 481 419 491 421 502 421 c 0xa0
 539 421 570 396 600 374 c 0
 617 363 645 343 649 343 c 2
 693 343 l 1
 611 426 l 1
 671 486 l 1
 858 300 l 1
 671 114 l 1
 611 174 l 1
 693 257 l 1
 649 257 l 2x40
 618 257 582 282 551 304 c 0
 535 315 522 335 502 335 c 0x20
 468 335 446 304 426 275 c 0
 422 269 418 263 413 257 c 1x40
 325 16 l 1
 252 43 l 1
 302 181 l 1
 295 180 288 179 281 179 c 0
 200 179 144 248 98 314 c 1
 168 364 l 1
 199 320 227 265 281 265 c 0
 313 265 334 293 353 321 c 1
 449 584 l 1x80
EndSplineSet
EndChar

StartChar: sym064_uni0338
Encoding: 141 -1 141
Width: 734
Flags: HW
VStem: 246 86<306.761 374.602> 324 86<449.266 528> 402 86<62.9328 136.738>
LayerCount: 2
Fore
SplineSet
83 284 m 1x20
 110 357 l 1
 250 306 l 1
 248 316 246 326 246 337 c 0xa0
 246 374 271 405 293 435 c 0
 304 452 324 480 324 484 c 2
 324 528 l 1
 241 446 l 1
 181 506 l 1
 367 693 l 1
 553 506 l 1
 493 446 l 1
 410 528 l 1
 410 484 l 2x40
 410 453 385 417 363 386 c 0
 352 370 332 357 332 337 c 0x80
 332 303 363 281 392 261 c 0
 398 257 404 253 410 248 c 1x40
 651 160 l 1
 624 87 l 1
 486 137 l 1
 487 130 488 123 488 116 c 0
 488 35 419 -21 353 -67 c 1
 303 3 l 1
 347 34 402 62 402 116 c 0
 402 148 374 169 346 188 c 1
 83 284 l 1x20
EndSplineSet
EndChar

StartChar: uni219C0338
Encoding: 142 -1 142
Width: 930
Flags: HW
HStem: 179 86<390.398 458.239> 257 86<237 315.734> 335 86<628.262 702.067>
LayerCount: 2
Fore
SplineSet
481 16 m 1x20
 408 43 l 1
 459 183 l 1
 449 181 439 179 428 179 c 0xa0
 391 179 360 204 330 226 c 0
 313 237 285 257 281 257 c 2
 237 257 l 1
 319 174 l 1
 259 114 l 1
 72 300 l 1
 259 486 l 1
 319 426 l 1
 237 343 l 1
 281 343 l 2x40
 312 343 348 318 379 296 c 0
 395 285 408 265 428 265 c 0x80
 462 265 484 296 504 325 c 0
 508 331 512 337 517 343 c 1x40
 605 584 l 1
 678 557 l 1
 628 419 l 1
 635 420 642 421 649 421 c 0
 730 421 786 352 832 286 c 1
 762 236 l 1
 731 280 703 335 649 335 c 0
 617 335 596 307 577 279 c 1
 481 16 l 1x20
EndSplineSet
EndChar

StartChar: sym065_uni0338.alt
Encoding: 143 -1 143
Width: 734
Flags: HW
VStem: 246 86<463.262 537.067> 324 86<72 150.734> 402 86<225.398 293.239>
LayerCount: 2
Fore
SplineSet
651 316 m 1x80
 624 243 l 1
 484 294 l 1
 486 284 488 274 488 263 c 0xa0
 488 226 463 195 441 165 c 0
 430 148 410 120 410 116 c 2
 410 72 l 1
 493 154 l 1
 553 94 l 1
 367 -93 l 1
 181 94 l 1
 241 154 l 1
 324 72 l 1
 324 116 l 2x40
 324 147 349 183 371 214 c 0
 382 230 402 243 402 263 c 0x20
 402 297 371 319 342 339 c 0
 336 343 330 347 324 352 c 1x40
 83 440 l 1
 110 513 l 1
 248 463 l 1
 247 470 246 477 246 484 c 0
 246 565 315 621 381 667 c 1
 431 597 l 1
 387 566 332 538 332 484 c 0
 332 452 360 431 388 412 c 1
 651 316 l 1x80
EndSplineSet
EndChar

StartChar: uni21AD0338
Encoding: 144 -1 144
Width: 1080
Flags: HW
HStem: 179 86<605.297 686.288> 257 86<237 318.406 762.493 843> 335 86<391.375 474.703>
LayerCount: 2
Fore
SplineSet
651 265 m 0xa0
 669 265 741 343 799 343 c 2
 843 343 l 1
 761 426 l 1
 821 486 l 1
 1008 300 l 1
 821 114 l 1
 761 174 l 1
 843 257 l 1
 799 257 l 2x40
 779 257 766 237 750 226 c 0
 719 204 683 179 651 179 c 0
 613 179 580 196 552 221 c 1
 478 16 l 1
 405 43 l 1
 495 290 l 1
 478 314 457 335 429 335 c 0xa0
 409 335 396 315 380 304 c 0
 349 282 318 257 281 257 c 2
 237 257 l 1
 319 174 l 1
 259 114 l 1
 72 300 l 1
 259 486 l 1
 319 426 l 1
 237 343 l 1
 281 343 l 2x40
 301 343 314 363 330 374 c 0
 361 396 392 421 429 421 c 0
 467 421 500 404 528 379 c 1
 602 584 l 1
 675 557 l 1
 585 310 l 1
 602 286 623 265 651 265 c 0xa0
EndSplineSet
EndChar

StartChar: sym066_uni0338.alt
Encoding: 145 -1 145
Width: 734
Flags: HW
VStem: 246 86<151.375 234.703> 324 86<-3 78.4062 522.493 603> 402 86<365.297 446.288>
LayerCount: 2
Fore
SplineSet
402 411 m 0xa0
 402 429 324 501 324 559 c 2
 324 603 l 1
 241 521 l 1
 181 581 l 1
 367 768 l 1
 553 581 l 1
 493 521 l 1
 410 603 l 1
 410 559 l 2x40
 410 539 430 526 441 510 c 0
 463 479 488 443 488 411 c 0
 488 373 471 340 446 312 c 1
 651 238 l 1
 624 165 l 1
 377 255 l 1
 353 238 332 217 332 189 c 0xa0
 332 169 352 156 363 140 c 0
 385 109 410 78 410 41 c 2
 410 -3 l 1
 493 79 l 1
 553 19 l 1
 367 -168 l 1
 181 19 l 1
 241 79 l 1
 324 -3 l 1
 324 41 l 2x40
 324 61 304 74 293 90 c 0
 271 121 246 152 246 189 c 0
 246 227 263 260 288 288 c 1
 83 362 l 1
 110 435 l 1
 357 345 l 1
 381 362 402 383 402 411 c 0xa0
EndSplineSet
EndChar

StartChar: uni21AD0338.alt
Encoding: 146 -1 146
Width: 1080
Flags: HW
HStem: 179 86<391.375 455.32> 257 86<237 318.406 762.493 843> 335 86<624.68 686.288>
LayerCount: 2
Fore
SplineSet
799 257 m 2x40
 741 257 669 335 651 335 c 0
 617 335 595 304 575 275 c 0
 573 272 572 269 570 267 c 2
 478 16 l 1
 405 43 l 1
 456 182 l 1
 447 180 438 179 429 179 c 0xa0
 392 179 361 204 330 226 c 0
 314 237 301 257 281 257 c 2
 237 257 l 1
 319 174 l 1
 259 114 l 1
 72 300 l 1
 259 486 l 1
 319 426 l 1
 237 343 l 1
 281 343 l 2x40
 318 343 349 318 380 296 c 0
 396 285 409 265 429 265 c 0
 463 265 485 296 505 325 c 0
 507 328 508 331 510 333 c 2
 602 584 l 1
 675 557 l 1
 624 418 l 1
 633 420 642 421 651 421 c 0xa0
 683 421 719 396 750 374 c 0
 766 363 779 343 799 343 c 2
 843 343 l 1
 761 426 l 1
 821 486 l 1
 1008 300 l 1
 821 114 l 1
 761 174 l 1
 843 257 l 1
 799 257 l 2x40
EndSplineSet
EndChar

StartChar: sym066_uni0338
Encoding: 147 -1 147
Width: 734
Flags: HW
VStem: 246 86<384.68 446.288> 324 86<-3 78.4062 522.493 603> 402 86<151.375 215.32>
LayerCount: 2
Fore
SplineSet
410 559 m 2x40
 410 501 332 429 332 411 c 0
 332 377 363 355 392 335 c 0
 395 333 398 332 400 330 c 2
 651 238 l 1
 624 165 l 1
 485 216 l 1
 487 207 488 198 488 189 c 0xa0
 488 152 463 121 441 90 c 0
 430 74 410 61 410 41 c 2
 410 -3 l 1
 493 79 l 1
 553 19 l 1
 367 -168 l 1
 181 19 l 1
 241 79 l 1
 324 -3 l 1
 324 41 l 2x40
 324 78 349 109 371 140 c 0
 382 156 402 169 402 189 c 0
 402 223 371 245 342 265 c 0
 339 267 336 268 334 270 c 2
 83 362 l 1
 110 435 l 1
 249 384 l 1
 247 393 246 402 246 411 c 0xa0
 246 443 271 479 293 510 c 0
 304 526 324 539 324 559 c 2
 324 603 l 1
 241 521 l 1
 181 581 l 1
 367 768 l 1
 553 581 l 1
 493 521 l 1
 410 603 l 1
 410 559 l 2x40
EndSplineSet
EndChar

StartChar: sym069_uni0338
Encoding: 148 -1 148
Width: 930
Flags: HW
HStem: 321 85<520 553.531> 335 86<311.515 429>
LayerCount: 2
Fore
SplineSet
416 421 m 0x40
 420 421 430 421 444 420 c 1
 475 594 l 1
 551 581 l 1
 520 406 l 1
 602 382 673 330 731 264 c 1
 740 368 l 1
 826 360 l 1
 803 97 l 1
 540 120 l 1
 548 206 l 1
 677 195 l 1
 630 253 572 299 505 321 c 1x80
 455 37 l 1
 379 50 l 1
 429 335 l 1
 425 335 421 335 417 335 c 0
 317 335 226 280 168 197 c 1
 98 247 l 1
 172 353 288 421 416 421 c 0x40
EndSplineSet
EndChar

StartChar: sym068_uni0338
Encoding: 149 -1 149
Width: 734
Flags: HW
VStem: 246 86<146.515 264> 261 85<355 388.531>
LayerCount: 2
Fore
SplineSet
246 251 m 0x80
 246 255 246 265 247 279 c 1
 73 310 l 1
 86 386 l 1
 261 355 l 1
 285 437 337 508 403 566 c 1
 299 575 l 1
 307 661 l 1
 570 638 l 1
 547 375 l 1
 461 383 l 1
 472 512 l 1
 414 465 368 407 346 340 c 1x40
 630 290 l 1
 617 214 l 1
 332 264 l 1
 332 260 332 256 332 252 c 0
 332 152 387 61 470 3 c 1
 420 -67 l 1
 314 7 246 123 246 251 c 0x80
EndSplineSet
EndChar

StartChar: sym067_uni0338
Encoding: 150 -1 150
Width: 930
Flags: HW
HStem: 179 86<501 618.485> 194 85<376.469 410>
LayerCount: 2
Fore
SplineSet
514 179 m 0x80
 510 179 500 179 486 180 c 1
 455 6 l 1
 379 19 l 1
 410 194 l 1
 328 218 257 270 199 336 c 1
 190 232 l 1
 104 240 l 1
 127 503 l 1
 390 480 l 1
 382 394 l 1
 253 405 l 1
 300 347 358 301 425 279 c 1x40
 475 563 l 1
 551 550 l 1
 501 265 l 1
 505 265 509 265 513 265 c 0
 613 265 704 320 762 403 c 1
 832 353 l 1
 758 247 642 179 514 179 c 0x80
EndSplineSet
EndChar

StartChar: uni29380338
Encoding: 151 -1 151
Width: 734
Flags: HW
VStem: 388 85<211.064 245> 402 86<336 453.485>
LayerCount: 2
Fore
SplineSet
488 349 m 0x40
 488 345 488 335 487 321 c 1
 661 290 l 1
 648 214 l 1
 473 245 l 1
 449 163 397 92 331 34 c 1
 435 25 l 1
 427 -61 l 1
 164 -38 l 1
 187 225 l 1
 273 217 l 1
 262 87 l 1
 320 134 366 192 388 260 c 1x80
 104 310 l 1
 117 386 l 1
 402 336 l 1
 402 340 402 344 402 348 c 0
 402 448 347 539 264 597 c 1
 314 667 l 1
 420 593 488 477 488 349 c 0x40
EndSplineSet
EndChar

StartChar: sym06C_uni0338
Encoding: 152 -1 152
Width: 1102
Flags: HW
HStem: 378 86<596.207 764>
VStem: 322 86<16.2694 194.729>
LayerCount: 2
Fore
SplineSet
322 79 m 0
 322 144 338 274 451 370 c 1
 350 515 l 1
 413 560 l 1
 515 414 l 1
 579 449 653 464 728 464 c 0
 740 464 752 464 764 463 c 1
 698 542 l 1
 764 598 l 1
 933 396 l 1
 731 226 l 1
 676 292 l 1
 776 375 l 1
 759 377 741 378 724 378 c 0
 668 378 613 367 565 343 c 1
 730 107 l 1
 667 62 l 1
 501 299 l 1
 439 243 408 163 408 80 c 0
 408 59 410 38 414 18 c 1
 329 3 l 1
 325 28 322 54 322 79 c 0
EndSplineSet
EndChar

StartChar: sym06B_uni0338
Encoding: 153 -1 153
Width: 1102
Flags: HW
HStem: 71 86<656.271 834.731>
VStem: 387 86<344.993 514>
LayerCount: 2
Fore
SplineSet
772 71 m 0
 707 71 577 87 481 200 c 1
 336 99 l 1
 291 162 l 1
 437 264 l 1
 403 328 387 401 387 475 c 0
 387 488 388 501 389 514 c 1
 309 447 l 1
 253 513 l 1
 455 682 l 1
 625 480 l 1
 559 425 l 1
 476 524 l 1
 474 507 473 490 473 473 c 0
 473 417 484 362 508 314 c 1
 744 479 l 1
 789 416 l 1
 552 250 l 1
 608 188 688 157 771 157 c 0
 792 157 813 159 833 163 c 1
 848 78 l 1
 823 74 797 71 772 71 c 0
EndSplineSet
EndChar

StartChar: uni29360338
Encoding: 154 -1 154
Width: 1102
Flags: HW
HStem: 136 86<338 505.793>
VStem: 694 86<405.271 583.731>
LayerCount: 2
Fore
SplineSet
780 521 m 0
 780 456 764 326 651 230 c 1
 752 85 l 1
 689 40 l 1
 587 186 l 1
 523 151 449 136 374 136 c 0
 362 136 350 136 338 137 c 1
 404 58 l 1
 338 2 l 1
 169 204 l 1
 371 374 l 1
 426 308 l 1
 327 225 l 1
 344 223 361 222 378 222 c 0
 434 222 489 233 537 257 c 1
 372 493 l 1
 435 538 l 1
 601 301 l 1
 663 357 694 437 694 520 c 0
 694 541 692 562 688 582 c 1
 773 597 l 1
 777 572 780 546 780 521 c 0
EndSplineSet
EndChar

StartChar: uni29350338
Encoding: 155 -1 155
Width: 1102
Flags: HW
HStem: 443 86<267.269 445.567>
VStem: 629 86<87 254.793>
LayerCount: 2
Fore
SplineSet
330 529 m 0
 395 529 524 513 621 400 c 1
 766 501 l 1
 811 438 l 1
 665 336 l 1
 700 272 715 198 715 123 c 0
 715 111 715 99 714 87 c 1
 793 153 l 1
 849 87 l 1
 647 -82 l 1
 477 120 l 1
 543 175 l 1
 626 76 l 1
 628 93 629 110 629 127 c 0
 629 183 618 238 594 286 c 1
 358 121 l 1
 314 184 l 1
 550 350 l 1
 494 412 414 443 331 443 c 0
 310 443 289 441 269 437 c 1
 254 522 l 1
 279 526 305 529 330 529 c 0
EndSplineSet
EndChar

StartChar: uni293B0338
Encoding: 156 -1 156
Width: 930
Flags: HW
HStem: 1 21G<519.667 583.154> 179 86<311.515 430.441>
LayerCount: 2
Fore
SplineSet
461 181 m 1
 454 180 438 179 416 179 c 0
 288 179 172 247 98 353 c 1
 168 403 l 1
 226 320 317 265 417 265 c 0
 422 265 426 265 431 265 c 1
 330 542 l 1
 403 568 l 1
 508 280 l 1
 574 303 631 348 677 405 c 1
 548 394 l 1
 540 480 l 1
 803 503 l 1
 826 240 l 1
 740 232 l 1
 731 336 l 1
 677 274 612 225 537 199 c 1
 600 27 l 1
 527 1 l 1
 461 181 l 1
EndSplineSet
EndChar

StartChar: sym06A_uni0338
Encoding: 157 -1 157
Width: 734
Flags: HW
VStem: 402 86<146.515 265.441>
LayerCount: 2
Fore
SplineSet
486 296 m 1
 487 289 488 273 488 251 c 0
 488 123 420 7 314 -67 c 1
 264 3 l 1
 347 61 402 152 402 252 c 0
 402 257 402 261 402 266 c 1
 125 165 l 1
 99 238 l 1
 387 343 l 1
 364 409 319 467 262 513 c 1
 273 383 l 1
 187 375 l 1
 164 638 l 1
 427 661 l 1
 435 575 l 1
 331 566 l 1
 393 512 442 447 468 372 c 1
 640 435 l 1
 666 362 l 1
 486 296 l 1
EndSplineSet
EndChar

StartChar: uni293A0338
Encoding: 158 -1 158
Width: 930
Flags: HW
HStem: 335 86<499.559 618.485>
LayerCount: 2
Fore
SplineSet
469 419 m 1
 476 420 492 421 514 421 c 0
 642 421 758 353 832 247 c 1
 762 197 l 1
 704 280 613 335 513 335 c 0
 508 335 504 335 499 335 c 1
 600 58 l 1
 527 32 l 1
 422 320 l 1
 356 297 299 252 253 195 c 1
 382 206 l 1
 390 120 l 1
 127 97 l 1
 104 360 l 1
 190 368 l 1
 199 264 l 1
 253 326 318 375 393 401 c 1
 330 573 l 1
 403 599 l 1
 469 419 l 1
EndSplineSet
EndChar

StartChar: uni29390338
Encoding: 159 -1 159
Width: 734
Flags: HW
VStem: 246 86<334.559 453.485>
LayerCount: 2
Fore
SplineSet
248 304 m 1
 247 311 246 327 246 349 c 0
 246 477 314 593 420 667 c 1
 470 597 l 1
 387 539 332 448 332 348 c 0
 332 343 332 339 332 334 c 1
 609 435 l 1
 635 362 l 1
 347 257 l 1
 370 191 415 134 472 88 c 1
 461 217 l 1
 547 225 l 1
 570 -38 l 1
 307 -61 l 1
 299 25 l 1
 403 34 l 1
 341 88 292 153 266 228 c 1
 94 165 l 1
 68 238 l 1
 248 304 l 1
EndSplineSet
EndChar

StartChar: uni29340338
Encoding: 160 -1 160
Width: 1102
Flags: HW
HStem: 71 86<267.269 445.645>
VStem: 629 86<344.013 513>
LayerCount: 2
Fore
SplineSet
632 213 m 1
 595 165 500 71 330 71 c 0
 305 71 279 74 254 78 c 1
 269 163 l 1
 289 159 310 157 331 157 c 0
 414 157 495 188 551 251 c 1
 285 375 l 1
 318 446 l 1
 595 316 l 1
 619 364 629 418 629 473 c 0
 629 490 628 507 626 524 c 1
 543 425 l 1
 477 480 l 1
 647 682 l 1
 849 513 l 1
 793 447 l 1
 714 513 l 1
 715 501 715 489 715 477 c 0
 715 408 702 340 673 280 c 1
 839 202 l 1
 806 132 l 1
 632 213 l 1
EndSplineSet
EndChar

StartChar: sym06D_uni0338
Encoding: 161 -1 161
Width: 1102
Flags: HW
HStem: 378 86<338 506.987>
VStem: 694 86<16.2694 194.645>
LayerCount: 2
Fore
SplineSet
638 381 m 1
 686 344 780 249 780 79 c 0
 780 54 777 28 773 3 c 1
 688 18 l 1
 692 38 694 59 694 80 c 0
 694 163 663 244 600 300 c 1
 476 34 l 1
 405 67 l 1
 535 344 l 1
 487 368 433 378 378 378 c 0
 361 378 344 377 327 375 c 1
 426 292 l 1
 371 226 l 1
 169 396 l 1
 338 598 l 1
 404 542 l 1
 338 463 l 1
 350 464 362 464 374 464 c 0
 443 464 511 451 571 422 c 1
 649 588 l 1
 719 555 l 1
 638 381 l 1
EndSplineSet
EndChar

StartChar: sym06E_uni0338
Encoding: 162 -1 162
Width: 1102
Flags: HW
HStem: 443 86<656.355 834.731>
VStem: 387 86<86 256.144>
LayerCount: 2
Fore
SplineSet
470 387 m 1
 507 435 602 529 772 529 c 0
 797 529 823 526 848 522 c 1
 833 437 l 1
 813 441 792 443 771 443 c 0
 688 443 607 412 551 349 c 1
 817 225 l 1
 784 154 l 1
 507 284 l 1
 483 236 473 182 473 127 c 0
 473 110 474 93 476 76 c 1
 559 175 l 1
 625 120 l 1
 455 -82 l 1
 253 87 l 1
 309 153 l 1
 389 86 l 1
 388 99 387 112 387 125 c 0
 387 193 400 260 429 320 c 1
 263 398 l 1
 296 468 l 1
 470 387 l 1
EndSplineSet
EndChar

StartChar: uni29370338
Encoding: 163 -1 163
Width: 1102
Flags: HW
HStem: 136 86<595.013 764>
VStem: 322 86<405.355 583.731>
LayerCount: 2
Fore
SplineSet
465 219 m 1
 417 256 322 351 322 521 c 0
 322 546 325 572 329 597 c 1
 414 582 l 1
 410 562 408 541 408 520 c 0
 408 437 439 356 502 300 c 1
 627 566 l 1
 697 533 l 1
 567 256 l 1
 615 232 669 222 724 222 c 0
 741 222 759 223 776 225 c 1
 676 308 l 1
 731 374 l 1
 933 204 l 1
 764 2 l 1
 698 58 l 1
 764 137 l 1
 752 136 740 136 728 136 c 0
 659 136 591 149 531 178 c 1
 453 12 l 1
 383 45 l 1
 465 219 l 1
EndSplineSet
EndChar

StartChar: sym06F_uni0338
Encoding: 164 -1 164
Width: 1080
Flags: HW
HStem: 333 84<422.37 500 593 662.693>
LayerCount: 2
Fore
SplineSet
550 618 m 1
 626 604 l 1
 593 417 l 1
 702 403 799 345 873 262 c 1
 883 368 l 1
 968 360 l 1
 945 97 l 1
 683 120 l 1
 690 206 l 1
 818 195 l 1
 756 269 672 322 578 333 c 1
 530 60 l 1
 454 74 l 1
 500 332 l 1
 407 320 324 268 262 195 c 1
 390 206 l 1
 397 120 l 1
 135 97 l 1
 112 360 l 1
 197 368 l 1
 207 262 l 1
 288 352 395 413 515 420 c 1
 550 618 l 1
EndSplineSet
EndChar

StartChar: sym070_uni0338
Encoding: 165 -1 165
Width: 734
Flags: HW
VStem: 250 84<177.307 247 340 417.63>
LayerCount: 2
Fore
SplineSet
63 214 m 1
 49 290 l 1
 247 325 l 1
 254 445 315 552 405 633 c 1
 299 643 l 1
 307 728 l 1
 570 705 l 1
 547 443 l 1
 461 450 l 1
 472 578 l 1
 399 516 347 433 335 340 c 1
 593 386 l 1
 607 310 l 1
 334 262 l 1
 345 168 398 84 472 22 c 1
 461 150 l 1
 547 157 l 1
 570 -105 l 1
 307 -128 l 1
 299 -43 l 1
 405 -33 l 1
 322 41 264 138 250 247 c 1
 63 214 l 1
EndSplineSet
EndChar

StartChar: sym071_uni0338
Encoding: 166 -1 166
Width: 1080
Flags: HW
HStem: 183 84<417.307 487 580 657.63>
LayerCount: 2
Fore
SplineSet
530 -18 m 1
 454 -4 l 1
 487 183 l 1
 378 197 281 255 207 338 c 1
 197 232 l 1
 112 240 l 1
 135 503 l 1
 397 480 l 1
 390 394 l 1
 262 405 l 1
 324 331 408 278 502 267 c 1
 550 540 l 1
 626 526 l 1
 580 268 l 1
 673 280 756 332 818 405 c 1
 690 394 l 1
 683 480 l 1
 945 503 l 1
 968 240 l 1
 883 232 l 1
 873 338 l 1
 792 248 685 187 565 180 c 1
 530 -18 l 1
EndSplineSet
EndChar

StartChar: sym072_uni0338
Encoding: 167 -1 167
Width: 734
Flags: HW
VStem: 399 88<180.104 260 353 422.693>
LayerCount: 2
Fore
SplineSet
671 386 m 1
 685 310 l 1
 487 275 l 1
 480 155 419 48 330 -33 c 1
 435 -43 l 1
 427 -128 l 1
 164 -105 l 1
 187 157 l 1
 273 150 l 1
 262 22 l 1
 335 84 387 167 399 260 c 1
 141 214 l 1
 127 290 l 1
 400 338 l 1
 389 432 335 516 262 578 c 1
 273 450 l 1
 187 443 l 1
 164 705 l 1
 427 728 l 1
 435 643 l 1
 330 633 l 1
 412 559 470 462 484 353 c 1
 671 386 l 1
EndSplineSet
EndChar

StartChar: sym074_uni0338
Encoding: 168 -1 168
Width: 1208
Flags: HW
HStem: 424 86<703.761 867>
VStem: 394 86<37 199.869>
LayerCount: 2
Fore
SplineSet
386 532 m 1
 450 576 l 1
 559 421 l 1
 638 482 736 510 837 510 c 0
 847 510 857 510 867 509 c 1
 799 590 l 1
 865 645 l 1
 1034 443 l 1
 832 274 l 1
 777 340 l 1
 875 422 l 1
 862 423 849 424 836 424 c 0
 753 424 673 401 608 350 c 1
 767 123 l 1
 703 79 l 1
 552 294 l 1
 502 229 480 150 480 68 c 0
 480 55 481 42 482 29 c 1
 564 127 l 1
 630 72 l 1
 461 -130 l 1
 259 40 l 1
 314 105 l 1
 395 37 l 1
 394 47 394 57 394 67 c 0
 394 177 428 284 501 367 c 1
 386 532 l 1
EndSplineSet
EndChar

StartChar: sym073_uni0338
Encoding: 169 -1 169
Width: 1208
Flags: HW
HStem: 90 86<703.761 867>
VStem: 394 86<400.131 563>
LayerCount: 2
Fore
SplineSet
450 24 m 1
 386 68 l 1
 501 233 l 1
 428 316 394 423 394 533 c 0
 394 543 394 553 395 563 c 1
 314 495 l 1
 259 560 l 1
 461 730 l 1
 630 528 l 1
 564 473 l 1
 482 571 l 1
 481 558 480 545 480 532 c 0
 480 450 502 371 552 306 c 1
 703 521 l 1
 767 477 l 1
 608 250 l 1
 673 199 753 176 836 176 c 0
 849 176 862 177 875 178 c 1
 777 260 l 1
 832 326 l 1
 1034 157 l 1
 865 -45 l 1
 799 10 l 1
 867 91 l 1
 857 90 847 90 837 90 c 0
 736 90 638 118 559 179 c 1
 450 24 l 1
EndSplineSet
EndChar

StartChar: sym076_uni0338
Encoding: 170 -1 170
Width: 1208
Flags: HW
HStem: 90 86<341 502.14>
VStem: 728 86<399.631 563>
LayerCount: 2
Fore
SplineSet
822 68 m 1
 758 24 l 1
 650 179 l 1
 570 118 472 90 372 90 c 0
 362 90 351 90 341 91 c 1
 409 10 l 1
 344 -45 l 1
 174 157 l 1
 376 326 l 1
 431 260 l 1
 333 178 l 1
 346 177 359 176 372 176 c 0
 455 176 535 199 600 250 c 1
 441 477 l 1
 505 521 l 1
 656 306 l 1
 706 371 728 450 728 532 c 0
 728 545 727 558 726 571 c 1
 644 473 l 1
 578 528 l 1
 747 730 l 1
 949 560 l 1
 894 495 l 1
 813 563 l 1
 814 553 814 542 814 532 c 0
 814 422 780 315 707 232 c 1
 822 68 l 1
EndSplineSet
EndChar

StartChar: sym075_uni0338
Encoding: 171 -1 171
Width: 1208
Flags: HW
HStem: 424 86<341 502.14>
VStem: 728 86<37 200.369>
LayerCount: 2
Fore
SplineSet
758 576 m 1
 822 532 l 1
 707 368 l 1
 780 285 814 178 814 68 c 0
 814 58 814 47 813 37 c 1
 894 105 l 1
 949 40 l 1
 747 -130 l 1
 578 72 l 1
 644 127 l 1
 726 29 l 1
 727 42 728 55 728 68 c 0
 728 150 706 229 656 294 c 1
 505 79 l 1
 441 123 l 1
 600 350 l 1
 535 401 455 424 372 424 c 0
 359 424 346 423 333 422 c 1
 431 340 l 1
 376 274 l 1
 174 443 l 1
 344 645 l 1
 409 590 l 1
 341 509 l 1
 351 510 362 510 372 510 c 0
 472 510 570 482 650 421 c 1
 758 576 l 1
EndSplineSet
EndChar

StartChar: sym077_uni0338
Encoding: 172 -1 172
Width: 930
Flags: HW
HStem: 257 86<176 408 522 840>
VStem: 90 86<101 257 343 499>
LayerCount: 2
Fore
SplineSet
527 584 m 1
 600 557 l 1
 522 343 l 1
 840 343 l 1
 840 257 l 1
 491 257 l 1
 403 16 l 1
 330 43 l 1
 408 257 l 1
 176 257 l 1
 176 101 l 1
 90 101 l 1
 90 499 l 1
 176 499 l 1
 176 343 l 1
 439 343 l 1
 527 584 l 1
EndSplineSet
EndChar

StartChar: sym078_uni0338
Encoding: 173 -1 173
Width: 930
Flags: HW
HStem: 257 86<90 408 522 754>
VStem: 754 86<101 257 343 499>
LayerCount: 2
Fore
SplineSet
403 16 m 1
 330 43 l 1
 408 257 l 1
 90 257 l 1
 90 343 l 1
 439 343 l 1
 527 584 l 1
 600 557 l 1
 522 343 l 1
 754 343 l 1
 754 499 l 1
 840 499 l 1
 840 101 l 1
 754 101 l 1
 754 257 l 1
 491 257 l 1
 403 16 l 1
EndSplineSet
EndChar

StartChar: sym079_uni0338
Encoding: 174 -1 174
Width: 1260
Flags: HW
HStem: -179 86<600 756.064> -164 85<470.465 509> 679 84<751 794.016> 693 86<507.055 660>
VStem: 151 86<172.065 422.945> 1017 85<381.765 440.406>
LayerCount: 2
Fore
SplineSet
630 693 m 0x5c
 413 693 237 517 237 300 c 0
 237 123 355 -32 524 -79 c 1
 660 692 l 1
 650 693 640 693 630 693 c 0x5c
151 300 m 0
 151 565 365 779 630 779 c 0x5c
 645 779 660 778 675 777 c 1
 687 847 l 1
 763 833 l 1
 751 763 l 1
 939 714 1071 561 1102 383 c 1
 1017 368 l 1
 1003 448 965 521 908 578 c 0
 860 626 800 661 736 679 c 1
 600 -92 l 1
 610 -93 620 -93 630 -93 c 0
 792 -93 936 6 995 155 c 1
 867 108 l 1
 837 189 l 1
 1085 279 l 1
 1175 32 l 1
 1094 2 l 1
 1062 92 l 1
 1039 44 1007 0 969 -39 c 0
 879 -128 757 -179 630 -179 c 0xac
 615 -179 600 -178 585 -177 c 1
 573 -247 l 1
 497 -233 l 1
 509 -164 l 1
 297 -109 151 82 151 300 c 0
EndSplineSet
EndChar

StartChar: uni21BA0338
Encoding: 175 -1 175
Width: 1260
Flags: HW
HStem: -179 86<503.426 752.945> 687 85<485.641 548.235> 691 20G<1035.95 1076.95>
VStem: 151 86<172.441 427.119> 1023 86<177.055 427.559>
LayerCount: 2
Fore
SplineSet
630 -93 m 0x98
 847 -93 1023 83 1023 300 c 0
 1023 380 999 457 955 522 c 1
 355 19 l 1
 429 -53 527 -93 630 -93 c 0x98
838 732 m 1
 862 721 920 689 971 637 c 1
 1060 711 l 1xb8
 1110 652 l 1
 1021 577 l 1
 1078 496 1109 400 1109 300 c 0
 1109 35 895 -179 630 -179 c 0
 562 -179 413 -163 289 -37 c 1
 200 -111 l 1
 150 -52 l 1
 239 23 l 1
 182 104 151 200 151 300 c 0
 151 532 318 732 547 772 c 1
 562 687 l 1xd8
 373 654 237 490 237 300 c 0
 237 220 261 143 305 78 c 1
 905 581 l 1
 868 618 823 646 775 665 c 1
 822 537 l 1
 741 507 l 1
 651 755 l 1
 898 845 l 1
 928 764 l 1
 838 732 l 1
EndSplineSet
EndChar

StartChar: uni27F20338
Encoding: 176 -1 176
Width: 1260
Flags: HW
HStem: -179 86<600 752.945> -163 84<465.984 509> 679 85<751 789.535> 693 86<503.936 660>
VStem: 158 85<159.594 218.235> 1023 86<177.055 427.935>
LayerCount: 2
Fore
SplineSet
630 -93 m 0xac
 847 -93 1023 83 1023 300 c 0
 1023 477 905 632 736 679 c 1
 600 -92 l 1
 610 -93 620 -93 630 -93 c 0xac
1109 300 m 0
 1109 35 895 -179 630 -179 c 0xac
 615 -179 600 -178 585 -177 c 1
 573 -247 l 1
 497 -233 l 1
 509 -163 l 1
 321 -114 189 39 158 217 c 1
 243 232 l 1
 257 152 295 79 352 22 c 0
 400 -26 460 -61 524 -79 c 1
 660 692 l 1
 650 693 640 693 630 693 c 0
 468 693 324 594 265 445 c 1
 393 492 l 1
 423 411 l 1
 175 321 l 1
 85 568 l 1
 166 598 l 1
 198 508 l 1
 221 556 253 600 291 639 c 0
 381 728 503 779 630 779 c 0x5c
 645 779 660 778 675 777 c 1
 687 847 l 1
 763 833 l 1
 751 764 l 1
 963 709 1109 518 1109 300 c 0
EndSplineSet
EndChar

StartChar: sym07C_uni0338
Encoding: 177 -1 177
Width: 1260
Flags: HW
HStem: -172 85<711.765 774.359> 691 20G<1035.95 1076.95> 693 86<507.055 756.574>
VStem: 151 86<172.441 422.945> 1023 86<172.881 427.559>
LayerCount: 2
Fore
SplineSet
630 693 m 0xb8
 413 693 237 517 237 300 c 0
 237 220 261 143 305 78 c 1
 905 581 l 1
 831 653 733 693 630 693 c 0xb8
630 779 m 0
 698 779 847 763 971 637 c 1
 1060 711 l 1xd8
 1110 652 l 1
 1021 577 l 1
 1078 496 1109 400 1109 300 c 0
 1109 68 942 -132 713 -172 c 1
 698 -87 l 1
 887 -54 1023 110 1023 300 c 0
 1023 380 999 457 955 522 c 1
 355 19 l 1
 392 -18 437 -46 485 -65 c 1
 438 63 l 1
 519 93 l 1
 609 -155 l 1
 362 -245 l 1
 332 -164 l 1
 422 -132 l 1
 398 -121 340 -89 289 -37 c 1
 200 -111 l 1
 150 -52 l 1
 239 23 l 1
 182 104 151 200 151 300 c 0
 151 565 365 779 630 779 c 0
EndSplineSet
EndChar

StartChar: uni27F30338
Encoding: 178 -1 178
Width: 1260
Flags: HW
HStem: -179 86<600 757.119> -164 85<470.465 509> 679 84<751 793.845> 693 86<507.055 660>
VStem: 151 86<172.065 422.945> 1017 85<155.641 218.235>
LayerCount: 2
Fore
SplineSet
630 693 m 0x5c
 413 693 237 517 237 300 c 0
 237 123 355 -32 524 -79 c 1
 660 692 l 1
 650 693 640 693 630 693 c 0x5c
151 300 m 0
 151 565 365 779 630 779 c 0x5c
 645 779 660 778 675 777 c 1
 687 847 l 1
 763 833 l 1
 751 763 l 1
 821 745 976 686 1062 508 c 1
 1094 598 l 1
 1175 568 l 1
 1085 321 l 1
 837 411 l 1
 867 492 l 1
 995 445 l 1
 976 493 908 631 736 679 c 1
 600 -92 l 1
 610 -93 620 -93 630 -93 c 0
 820 -93 984 43 1017 232 c 1
 1102 217 l 1
 1062 -12 862 -179 630 -179 c 0xac
 615 -179 600 -178 585 -177 c 1
 573 -247 l 1
 497 -233 l 1
 509 -164 l 1
 297 -109 151 82 151 300 c 0
EndSplineSet
EndChar

StartChar: uni21BB0338
Encoding: 179 -1 179
Width: 1260
Flags: HW
HStem: -179 86<503.426 752.945> 687 85<711.765 772.97> 691 20G<1035.95 1076.95>
VStem: 151 86<172.441 426.064> 1023 86<177.055 427.559>
LayerCount: 2
Fore
SplineSet
630 -93 m 0x98
 847 -93 1023 83 1023 300 c 0
 1023 380 999 457 955 522 c 1
 355 19 l 1
 429 -53 527 -93 630 -93 c 0x98
713 772 m 1xd8
 758 764 875 735 971 637 c 1
 1060 711 l 1xb8
 1110 652 l 1
 1021 577 l 1
 1078 496 1109 400 1109 300 c 0
 1109 35 895 -179 630 -179 c 0
 562 -179 413 -163 289 -37 c 1
 200 -111 l 1
 150 -52 l 1
 239 23 l 1
 182 104 151 200 151 300 c 0
 151 427 202 549 291 639 c 0
 330 677 374 709 422 732 c 1
 332 764 l 1
 362 845 l 1
 609 755 l 1
 519 507 l 1
 438 537 l 1
 485 665 l 1
 336 606 237 462 237 300 c 0
 237 220 261 143 305 78 c 1
 905 581 l 1
 848 636 777 673 698 687 c 1
 713 772 l 1xd8
EndSplineSet
EndChar

StartChar: sym07A_uni0338
Encoding: 180 -1 180
Width: 1260
Flags: HW
HStem: -179 86<600 752.945> -163 84<466.155 509> 679 85<751 789.535> 693 86<502.881 660>
VStem: 158 85<381.765 444.359> 1023 86<177.055 427.935>
LayerCount: 2
Fore
SplineSet
630 -93 m 0xac
 847 -93 1023 83 1023 300 c 0
 1023 477 905 632 736 679 c 1
 600 -92 l 1
 610 -93 620 -93 630 -93 c 0xac
158 383 m 1
 198 612 398 779 630 779 c 0x5c
 645 779 660 778 675 777 c 1
 687 847 l 1
 763 833 l 1
 751 764 l 1
 963 709 1109 518 1109 300 c 0
 1109 35 895 -179 630 -179 c 0xac
 615 -179 600 -178 585 -177 c 1
 573 -247 l 1
 497 -233 l 1
 509 -163 l 1
 439 -145 284 -86 198 92 c 1
 166 2 l 1
 85 32 l 1
 175 279 l 1
 423 189 l 1
 393 108 l 1
 265 155 l 1
 284 107 352 -31 524 -79 c 1
 660 692 l 1
 650 693 640 693 630 693 c 0x5c
 440 693 276 557 243 368 c 1
 158 383 l 1
EndSplineSet
EndChar

StartChar: sym07B_uni0338
Encoding: 181 -1 181
Width: 1260
Flags: HW
HStem: -172 85<487.03 548.235> 691 20G<1035.95 1076.95> 693 86<507.055 756.574>
VStem: 151 86<172.441 422.945> 1023 86<173.936 427.559>
LayerCount: 2
Fore
SplineSet
630 693 m 0xb8
 413 693 237 517 237 300 c 0
 237 220 261 143 305 78 c 1
 905 581 l 1
 831 653 733 693 630 693 c 0xb8
630 779 m 0
 698 779 847 763 971 637 c 1
 1060 711 l 1xd8
 1110 652 l 1
 1021 577 l 1
 1078 496 1109 400 1109 300 c 0
 1109 173 1058 51 969 -39 c 0
 930 -77 886 -109 838 -132 c 1
 928 -164 l 1
 898 -245 l 1
 651 -155 l 1
 741 93 l 1
 822 63 l 1
 775 -65 l 1
 924 -6 1023 138 1023 300 c 0
 1023 380 999 457 955 522 c 1
 355 19 l 1
 412 -36 483 -73 562 -87 c 1
 547 -172 l 1
 502 -164 385 -135 289 -37 c 1
 200 -111 l 1
 150 -52 l 1
 239 23 l 1
 182 104 151 200 151 300 c 0
 151 565 365 779 630 779 c 0
EndSplineSet
EndChar

StartChar: uni21DB0338
Encoding: 182 -1 182
Width: 1080
Flags: HW
HStem: 136 68<90 283 390 723> 266 68<90 330 438 852> 396 68<90 378 485 723>
CounterMasks: 1 e0
LayerCount: 2
Fore
SplineSet
852 266 m 1
 413 266 l 1
 390 204 l 1
 790 204 l 1
 852 266 l 1
790 396 m 1
 460 396 l 1
 438 334 l 1
 852 334 l 1
 790 396 l 1
480 677 m 1
 553 651 l 1
 485 464 l 1
 723 464 l 1
 683 504 l 1
 743 564 l 1
 1008 300 l 1
 743 36 l 1
 683 96 l 1
 723 136 l 1
 366 136 l 1
 288 -77 l 1
 215 -51 l 1
 283 136 l 1
 90 136 l 1
 90 204 l 1
 308 204 l 1
 330 266 l 1
 90 266 l 1
 90 334 l 1
 355 334 l 1
 378 396 l 1
 90 396 l 1
 90 464 l 1
 402 464 l 1
 480 677 l 1
EndSplineSet
EndChar

StartChar: uni290A0338
Encoding: 183 -1 183
Width: 921
Flags: HW
VStem: 296 69<-150 43 151 482> 426 69<-150 90 198 611> 556 69<-150 137 245 482>
CounterMasks: 1 e0
LayerCount: 2
Fore
SplineSet
495 612 m 1
 495 198 l 1
 556 220 l 1
 556 551 l 1
 495 612 l 1
365 550 m 1
 365 151 l 1
 426 173 l 1
 426 611 l 1
 365 550 l 1
110 -25 m 1
 83 48 l 1
 296 126 l 1
 296 482 l 1
 257 443 l 1
 196 503 l 1
 461 768 l 1
 725 503 l 1
 664 443 l 1
 625 482 l 1
 625 245 l 1
 811 313 l 1
 838 240 l 1
 625 162 l 1
 625 -150 l 1
 556 -150 l 1
 556 137 l 1
 495 115 l 1
 495 -150 l 1
 426 -150 l 1
 426 90 l 1
 365 68 l 1
 365 -150 l 1
 296 -150 l 1
 296 43 l 1
 110 -25 l 1
EndSplineSet
EndChar

StartChar: uni21DA0338
Encoding: 184 -1 184
Width: 1080
Flags: HW
HStem: 136 68<357 595 702 990> 266 68<228 642 750 990> 396 68<357 690 797 990>
CounterMasks: 1 e0
LayerCount: 2
Fore
SplineSet
228 334 m 1
 667 334 l 1
 690 396 l 1
 290 396 l 1
 228 334 l 1
290 204 m 1
 620 204 l 1
 642 266 l 1
 228 266 l 1
 290 204 l 1
600 -77 m 1
 527 -51 l 1
 595 136 l 1
 357 136 l 1
 397 96 l 1
 337 36 l 1
 72 300 l 1
 337 564 l 1
 397 504 l 1
 357 464 l 1
 714 464 l 1
 792 677 l 1
 865 651 l 1
 797 464 l 1
 990 464 l 1
 990 396 l 1
 772 396 l 1
 750 334 l 1
 990 334 l 1
 990 266 l 1
 725 266 l 1
 702 204 l 1
 990 204 l 1
 990 136 l 1
 678 136 l 1
 600 -77 l 1
EndSplineSet
EndChar

StartChar: uni290B0338
Encoding: 185 -1 185
Width: 921
Flags: HW
VStem: 296 69<118 355 463 750> 426 69<-11 402 510 750> 556 69<118 449 557 750>
CounterMasks: 1 e0
LayerCount: 2
Fore
SplineSet
426 -11 m 1
 426 402 l 1
 365 380 l 1
 365 50 l 1
 426 -11 l 1
556 49 m 1
 556 449 l 1
 495 427 l 1
 495 -12 l 1
 556 49 l 1
811 625 m 1
 838 552 l 1
 625 474 l 1
 625 118 l 1
 664 157 l 1
 725 97 l 1
 461 -168 l 1
 196 97 l 1
 257 157 l 1
 296 118 l 1
 296 355 l 1
 110 287 l 1
 83 360 l 1
 296 438 l 1
 296 750 l 1
 365 750 l 1
 365 463 l 1
 426 485 l 1
 426 750 l 1
 495 750 l 1
 495 510 l 1
 556 532 l 1
 556 750 l 1
 625 750 l 1
 625 557 l 1
 811 625 l 1
EndSplineSet
EndChar

StartChar: uni27F60338
Encoding: 186 -1 186
Width: 1680
Flags: HW
HStem: 257 86<90 705 819 1443>
LayerCount: 2
Fore
SplineSet
824 584 m 1
 897 557 l 1
 819 343 l 1
 1443 343 l 1
 1361 426 l 1
 1421 486 l 1
 1608 300 l 1
 1421 114 l 1
 1361 174 l 1
 1443 257 l 1
 788 257 l 1
 700 16 l 1
 627 43 l 1
 705 257 l 1
 90 257 l 1
 90 343 l 1
 736 343 l 1
 824 584 l 1
EndSplineSet
EndChar

StartChar: uni27F50338
Encoding: 187 -1 187
Width: 1680
Flags: HW
HStem: 257 86<237 861 975 1590>
LayerCount: 2
Fore
SplineSet
856 16 m 1
 783 43 l 1
 861 257 l 1
 237 257 l 1
 319 174 l 1
 259 114 l 1
 72 300 l 1
 259 486 l 1
 319 426 l 1
 237 343 l 1
 892 343 l 1
 980 584 l 1
 1053 557 l 1
 975 343 l 1
 1590 343 l 1
 1590 257 l 1
 944 257 l 1
 856 16 l 1
EndSplineSet
EndChar

StartChar: uni27F90338
Encoding: 188 -1 188
Width: 1680
Flags: HW
HStem: 160 86<90 592 705 1346> 354 87<90 663 776 1346>
LayerCount: 2
Fore
SplineSet
1432 354 m 1
 744 354 l 1
 705 246 l 1
 1432 246 l 1
 1486 300 l 1
 1432 354 l 1
769 646 m 1
 841 620 l 1
 776 440 l 1
 1346 440 l 1
 1314 472 l 1
 1375 533 l 1
 1608 300 l 1
 1375 67 l 1
 1314 128 l 1
 1346 160 l 1
 674 160 l 1
 599 -46 l 1
 527 -20 l 1
 592 160 l 1
 90 160 l 1
 90 246 l 1
 624 246 l 1
 663 354 l 1
 90 354 l 1
 90 441 l 1
 694 441 l 1
 769 646 l 1
EndSplineSet
EndChar

StartChar: uni27F80338
Encoding: 189 -1 189
Width: 1680
Flags: HW
HStem: 160 86<334 904 1017 1590> 355 86<334 975 1088 1590>
LayerCount: 2
Fore
SplineSet
248 246 m 1
 936 246 l 1
 975 355 l 1
 248 354 l 1
 194 300 l 1
 248 246 l 1
911 -46 m 1
 839 -20 l 1
 904 160 l 1
 334 160 l 1
 366 128 l 1
 305 67 l 1
 72 300 l 1
 305 533 l 1
 366 472 l 1
 334 440 l 1
 1006 441 l 1
 1081 646 l 1
 1153 620 l 1
 1088 441 l 1
 1590 441 l 1
 1590 355 l 1
 1057 355 l 1
 1017 246 l 1
 1590 246 l 1
 1590 160 l 1
 986 160 l 1
 911 -46 l 1
EndSplineSet
EndChar

StartChar: uni27F70338
Encoding: 190 -1 190
Width: 1680
Flags: HW
HStem: 257 86<237 783 897 1443>
LayerCount: 2
Fore
SplineSet
902 584 m 1
 975 557 l 1
 897 343 l 1
 1443 343 l 1
 1361 426 l 1
 1421 486 l 1
 1608 300 l 1
 1421 114 l 1
 1361 174 l 1
 1443 257 l 1
 866 257 l 1
 778 16 l 1
 705 43 l 1
 783 257 l 1
 237 257 l 1
 319 174 l 1
 259 114 l 1
 72 300 l 1
 259 486 l 1
 319 426 l 1
 237 343 l 1
 814 343 l 1
 902 584 l 1
EndSplineSet
EndChar

StartChar: uni27FA0338
Encoding: 191 -1 191
Width: 1680
Flags: HW
HStem: 160 86<334 748 861 1346> 354 86<334 819 932 1346>
LayerCount: 2
Fore
SplineSet
248 354 m 1
 194 300 l 1
 248 246 l 1
 780 246 l 1
 819 354 l 1
 248 354 l 1
1432 354 m 1
 900 354 l 1
 861 246 l 1
 1432 246 l 1
 1486 300 l 1
 1432 354 l 1
925 646 m 1
 997 620 l 1
 932 440 l 1
 1346 440 l 1
 1314 472 l 1
 1375 533 l 1
 1608 300 l 1
 1375 67 l 1
 1314 128 l 1
 1346 160 l 1
 830 160 l 1
 755 -46 l 1
 683 -20 l 1
 748 160 l 1
 334 160 l 1
 366 128 l 1
 305 67 l 1
 72 300 l 1
 305 533 l 1
 366 472 l 1
 334 440 l 1
 850 440 l 1
 925 646 l 1
EndSplineSet
EndChar

StartChar: uni27FC0338
Encoding: 192 -1 192
Width: 1680
Flags: HW
HStem: 257 86<176 705 819 1443>
VStem: 90 86<101 257 343 499>
LayerCount: 2
Fore
SplineSet
824 584 m 1
 897 557 l 1
 819 343 l 1
 1443 343 l 1
 1361 426 l 1
 1421 486 l 1
 1608 300 l 1
 1421 114 l 1
 1361 174 l 1
 1443 257 l 1
 788 257 l 1
 700 16 l 1
 627 43 l 1
 705 257 l 1
 176 257 l 1
 176 101 l 1
 90 101 l 1
 90 499 l 1
 176 499 l 1
 176 343 l 1
 736 343 l 1
 824 584 l 1
EndSplineSet
EndChar

StartChar: uni27FB0338
Encoding: 193 -1 193
Width: 1680
Flags: HW
HStem: 257 86<237 861 975 1504>
VStem: 1504 86<101 257 343 499>
LayerCount: 2
Fore
SplineSet
856 16 m 1
 783 43 l 1
 861 257 l 1
 237 257 l 1
 319 174 l 1
 259 114 l 1
 72 300 l 1
 259 486 l 1
 319 426 l 1
 237 343 l 1
 892 343 l 1
 980 584 l 1
 1053 557 l 1
 975 343 l 1
 1504 343 l 1
 1504 499 l 1
 1590 499 l 1
 1590 101 l 1
 1504 101 l 1
 1504 257 l 1
 944 257 l 1
 856 16 l 1
EndSplineSet
EndChar

StartChar: uni27FE0338
Encoding: 194 -1 194
Width: 1680
Flags: HW
HStem: 160 86<176 592 705 1346> 354 86<176 663 776 1346> 526 20G<90 176>
VStem: 90 86<54 160 246 354 441 546>
LayerCount: 2
Fore
SplineSet
1432 354 m 1
 744 354 l 1
 705 246 l 1
 1432 246 l 1
 1486 300 l 1
 1432 354 l 1
176 354 m 1
 176 246 l 1
 624 246 l 1
 663 354 l 1
 176 354 l 1
769 646 m 1
 841 620 l 1
 776 440 l 1
 1346 440 l 1
 1314 472 l 1
 1375 533 l 1
 1608 300 l 1
 1375 67 l 1
 1314 128 l 1
 1346 160 l 1
 674 160 l 1
 599 -46 l 1
 527 -20 l 1
 592 160 l 1
 176 160 l 1
 176 54 l 1
 90 54 l 1
 90 546 l 1
 176 546 l 1
 176 441 l 1
 694 441 l 1
 769 646 l 1
EndSplineSet
EndChar

StartChar: uni27FD0338
Encoding: 195 -1 195
Width: 1680
Flags: HW
HStem: 160 86<334 904 1017 1504> 355 86<334 975 1088 1504> 526 20G<1504 1590>
VStem: 1504 86<54 160 246 355 441 546>
LayerCount: 2
Fore
SplineSet
248 246 m 1
 936 246 l 1
 975 355 l 1
 248 354 l 1
 194 300 l 1
 248 246 l 1
1504 246 m 1
 1504 355 l 1
 1057 355 l 1
 1017 246 l 1
 1504 246 l 1
911 -46 m 1
 839 -20 l 1
 904 160 l 1
 334 160 l 1
 366 128 l 1
 305 67 l 1
 72 300 l 1
 305 533 l 1
 366 472 l 1
 334 440 l 1
 1006 441 l 1
 1081 646 l 1
 1153 620 l 1
 1088 441 l 1
 1504 441 l 1
 1504 546 l 1
 1590 546 l 1
 1590 54 l 1
 1504 54 l 1
 1504 160 l 1
 986 160 l 1
 911 -46 l 1
EndSplineSet
EndChar

StartChar: uni27FF0338
Encoding: 196 -1 196
Width: 1680
Flags: HW
HStem: 179 86<423.978 498.561 818.229 894.409 1214.44 1281.73> 257 86<1352.34 1443> 335 86<219.299 301.556 622.439 697.717 1015.98 1090.56>
LayerCount: 2
Fore
SplineSet
824 584 m 1xa0
 897 557 l 1
 805 306 l 1
 818 285 832 265 856 265 c 0
 888 265 902 299 920 325 c 0
 954 373 996 421 1054 421 c 0
 1112 421 1154 373 1188 325 c 0
 1206 299 1220 265 1251 265 c 0xa0
 1267 265 1275 280 1286 291 c 0
 1313 318 1345 343 1383 343 c 2
 1443 343 l 1
 1361 426 l 1
 1421 486 l 1
 1608 300 l 1
 1421 114 l 1
 1361 174 l 1
 1443 257 l 1
 1383 257 l 2x40
 1367 257 1358 242 1347 231 c 0
 1320 204 1289 179 1251 179 c 0
 1193 179 1151 227 1117 275 c 0
 1099 301 1085 335 1054 335 c 0
 1023 335 1008 301 990 275 c 0
 956 227 915 179 856 179 c 0
 824 179 797 193 773 215 c 1
 700 16 l 1
 627 43 l 1
 716 286 l 1
 701 310 686 335 659 335 c 0
 628 335 614 301 596 275 c 0
 562 227 520 179 462 179 c 0
 404 179 362 227 328 275 c 0
 310 301 296 335 265 335 c 0
 215 335 197 277 168 236 c 1
 98 286 l 1
 142 349 188 421 265 421 c 0
 323 421 365 373 398 325 c 0
 416 299 431 265 462 265 c 0
 493 265 507 299 525 325 c 0
 559 373 601 421 659 421 c 0
 694 421 724 403 749 378 c 1
 824 584 l 1xa0
EndSplineSet
EndChar

StartChar: uni2B330338
Encoding: 197 -1 197
Width: 1680
Flags: HW
HStem: 179 86<398.269 465.561 785.841 831.776 1181.44 1256.02> 257 86<237 327.661> 335 86<589.439 664.022 1003.61 1057.56 1378.44 1460.7>
LayerCount: 2
Fore
SplineSet
856 16 m 1xa0
 783 43 l 1
 833 179 l 1
 830 179 827 179 824 179 c 0
 765 179 724 227 690 275 c 0
 672 301 657 335 626 335 c 0
 595 335 581 301 563 275 c 0
 529 227 487 179 429 179 c 0xa0
 391 179 360 204 333 231 c 0
 322 242 313 257 297 257 c 2
 237 257 l 1
 319 174 l 1
 259 114 l 1
 72 300 l 1
 259 486 l 1
 319 426 l 1
 237 343 l 1
 297 343 l 2x40
 335 343 367 318 394 291 c 0
 405 280 413 265 429 265 c 0
 460 265 474 299 492 325 c 0
 526 373 568 421 626 421 c 0
 684 421 726 373 760 325 c 0
 778 299 792 265 824 265 c 0
 853 265 867 296 884 321 c 1
 980 584 l 1
 1053 557 l 1
 1003 419 l 1
 1009 420 1015 421 1021 421 c 0
 1079 421 1121 373 1155 325 c 0
 1173 299 1187 265 1218 265 c 0
 1249 265 1264 299 1282 325 c 0
 1315 373 1357 421 1415 421 c 0
 1492 421 1538 349 1582 286 c 1
 1512 236 l 1
 1483 277 1465 335 1415 335 c 0
 1384 335 1370 301 1352 275 c 0
 1318 227 1276 179 1218 179 c 0
 1160 179 1118 227 1084 275 c 0
 1066 301 1052 335 1021 335 c 0
 990 335 975 301 957 275 c 0
 953 269 948 262 943 256 c 1
 856 16 l 1xa0
EndSplineSet
EndChar

StartChar: uni27DD0338
Encoding: 198 -1 198
Width: 1680
Flags: HW
HStem: 257 86<176 783 897 1590>
VStem: 90 86<101 257 343 499>
LayerCount: 2
Fore
SplineSet
902 584 m 1
 975 557 l 1
 897 343 l 1
 1590 343 l 1
 1590 257 l 1
 866 257 l 1
 778 16 l 1
 705 43 l 1
 783 257 l 1
 176 257 l 1
 176 101 l 1
 90 101 l 1
 90 499 l 1
 176 499 l 1
 176 343 l 1
 814 343 l 1
 902 584 l 1
EndSplineSet
EndChar

StartChar: uni27DE0338
Encoding: 199 -1 199
Width: 1680
Flags: HW
HStem: 257 86<90 783 897 1504>
VStem: 1504 86<101 257 343 499>
LayerCount: 2
Fore
SplineSet
778 16 m 1
 705 43 l 1
 783 257 l 1
 90 257 l 1
 90 343 l 1
 814 343 l 1
 902 584 l 1
 975 557 l 1
 897 343 l 1
 1504 343 l 1
 1504 499 l 1
 1590 499 l 1
 1590 101 l 1
 1504 101 l 1
 1504 257 l 1
 866 257 l 1
 778 16 l 1
EndSplineSet
EndChar

StartChar: uni22AC
Encoding: 224 8876 200
Width: 840
Flags: HW
HStem: 0 17G<90 176 332 412.397> 311 86<176 411 515 750> 691 16G<90 176 513.65 594>
VStem: 90 86<0 311 397 707>
LayerCount: 2
Fore
SplineSet
519 711 m 1
 594 691 l 1
 515 397 l 1
 750 397 l 1
 750 311 l 1
 492 311 l 1
 407 -4 l 1
 332 16 l 1
 411 311 l 1
 176 311 l 1
 176 0 l 1
 90 0 l 1
 90 707 l 1
 176 707 l 1
 176 397 l 1
 435 397 l 1
 519 711 l 1
EndSplineSet
EndChar

StartChar: uni22A50338
Encoding: 225 -1 201
Width: 840
Flags: HW
HStem: 0 86<90 377 463 750> 531 20G<674.948 737.397> 687 20G<377 463>
VStem: 377 86<86 339 454 707>
LayerCount: 2
Fore
SplineSet
110 242 m 1
 83 315 l 1
 377 422 l 1
 377 707 l 1
 463 707 l 1
 463 454 l 1
 730 551 l 1
 757 478 l 1
 463 371 l 1
 463 86 l 1
 750 86 l 1
 750 0 l 1
 90 0 l 1
 90 86 l 1
 377 86 l 1
 377 339 l 1
 110 242 l 1
EndSplineSet
EndChar

StartChar: uni22A30338
Encoding: 226 -1 202
Width: 840
Flags: HW
HStem: 0 17G<246 326.397 664 750> 311 86<90 325 429 664> 691 16G<427.65 508 664 750>
VStem: 664 86<0 311 397 707>
LayerCount: 2
Fore
SplineSet
321 -4 m 1
 246 16 l 1
 325 311 l 1
 90 311 l 1
 90 397 l 1
 349 397 l 1
 433 711 l 1
 508 691 l 1
 429 397 l 1
 664 397 l 1
 664 707 l 1
 750 707 l 1
 750 0 l 1
 664 0 l 1
 664 311 l 1
 406 311 l 1
 321 -4 l 1
EndSplineSet
EndChar

StartChar: uni22A40338
Encoding: 227 -1 203
Width: 840
Flags: HW
HStem: 0 21G<377 463> 621 86<90 377 463 750>
VStem: 377 86<0 253 368 621>
LayerCount: 2
Fore
SplineSet
730 465 m 1
 757 392 l 1
 463 285 l 1
 463 0 l 1
 377 0 l 1
 377 253 l 1
 110 156 l 1
 83 229 l 1
 377 336 l 1
 377 621 l 1
 90 621 l 1
 90 707 l 1
 750 707 l 1
 750 621 l 1
 463 621 l 1
 463 368 l 1
 730 465 l 1
EndSplineSet
EndChar

StartChar: uni22A60338
Encoding: 228 -1 204
Width: 642
Flags: HW
HStem: 0 17G<90 176 233 313.397> 311 86<176 312 416 552> 691 16G<90 176 414.65 495>
VStem: 90 86<0 311 397 707>
LayerCount: 2
Fore
SplineSet
420 711 m 1
 495 691 l 1
 416 397 l 1
 552 397 l 1
 552 311 l 1
 393 311 l 1
 308 -4 l 1
 233 16 l 1
 312 311 l 1
 176 311 l 1
 176 0 l 1
 90 0 l 1
 90 707 l 1
 176 707 l 1
 176 397 l 1
 336 397 l 1
 420 711 l 1
EndSplineSet
EndChar

StartChar: uni2AE00338
Encoding: 229 -1 205
Width: 840
Flags: HW
HStem: 0 86<90 377 463 750>
VStem: 377 86<86 233 348 495>
LayerCount: 2
Fore
SplineSet
110 136 m 1
 83 209 l 1
 377 316 l 1
 377 495 l 1
 463 495 l 1
 463 348 l 1
 730 445 l 1
 757 372 l 1
 463 265 l 1
 463 86 l 1
 750 86 l 1
 750 0 l 1
 90 0 l 1
 90 86 l 1
 377 86 l 1
 377 233 l 1
 110 136 l 1
EndSplineSet
EndChar

StartChar: uni2ADE0338
Encoding: 230 -1 206
Width: 642
Flags: HW
HStem: 0 17G<147 227.397 466 552> 311 86<90 226 330 466> 691 16G<328.65 409 466 552>
VStem: 466 86<0 311 397 707>
LayerCount: 2
Fore
SplineSet
222 -4 m 1
 147 16 l 1
 226 311 l 1
 90 311 l 1
 90 397 l 1
 250 397 l 1
 334 711 l 1
 409 691 l 1
 330 397 l 1
 466 397 l 1
 466 707 l 1
 552 707 l 1
 552 0 l 1
 466 0 l 1
 466 311 l 1
 307 311 l 1
 222 -4 l 1
EndSplineSet
EndChar

StartChar: uni2ADF0338
Encoding: 231 -1 207
Width: 840
Flags: HW
HStem: 0 21G<377 463> 409 86<90 377 463 750>
VStem: 377 86<0 147 262 409>
LayerCount: 2
Fore
SplineSet
730 359 m 1
 757 286 l 1
 463 179 l 1
 463 0 l 1
 377 0 l 1
 377 147 l 1
 110 50 l 1
 83 123 l 1
 377 230 l 1
 377 409 l 1
 90 409 l 1
 90 495 l 1
 750 495 l 1
 750 409 l 1
 463 409 l 1
 463 262 l 1
 730 359 l 1
EndSplineSet
EndChar

StartChar: uni22AD
Encoding: 232 8877 208
Width: 840
Flags: HW
HStem: 0 17G<90 176 332 412.346> 213 86<176 385 489 750> 408 86<176 437 541 750> 691 16G<90 176 513.654 594>
VStem: 90 86<0 213 299 408 494 707>
LayerCount: 2
Fore
SplineSet
176 408 m 1
 176 299 l 1
 408 299 l 1
 437 408 l 1
 176 408 l 1
519 711 m 1
 594 691 l 1
 541 494 l 1
 750 494 l 1
 750 408 l 1
 518 408 l 1
 489 299 l 1
 750 299 l 1
 750 213 l 1
 465 213 l 1
 407 -4 l 1
 332 16 l 1
 385 213 l 1
 176 213 l 1
 176 0 l 1
 90 0 l 1
 90 707 l 1
 176 707 l 1
 176 494 l 1
 461 494 l 1
 519 711 l 1
EndSplineSet
EndChar

StartChar: uni2AEB0338
Encoding: 233 -1 209
Width: 840
Flags: HW
HStem: 0 86<90 280 366 475 561 750> 531 20G<675.484 737.397> 687 20G<280 366 475 561>
VStem: 280 86<86 304 418 707> 475 86<86 375 489 707>
LayerCount: 2
Fore
SplineSet
366 86 m 1
 475 86 l 1
 475 375 l 1
 366 335 l 1
 366 86 l 1
110 242 m 1
 83 315 l 1
 280 387 l 1
 280 707 l 1
 366 707 l 1
 366 418 l 1
 475 458 l 1
 475 707 l 1
 561 707 l 1
 561 489 l 1
 730 551 l 1
 757 478 l 1
 561 407 l 1
 561 86 l 1
 750 86 l 1
 750 0 l 1
 90 0 l 1
 90 86 l 1
 280 86 l 1
 280 304 l 1
 110 242 l 1
EndSplineSet
EndChar

StartChar: uni2AE40338
Encoding: 234 -1 210
Width: 840
Flags: HW
HStem: 0 17G<246 326.346 664 750> 213 86<90 299 403 664> 408 86<90 351 455 664> 691 16G<427.654 508 664 750>
VStem: 664 86<0 213 299 408 494 707>
LayerCount: 2
Fore
SplineSet
664 299 m 1
 664 408 l 1
 432 408 l 1
 403 299 l 1
 664 299 l 1
321 -4 m 1
 246 16 l 1
 299 213 l 1
 90 213 l 1
 90 299 l 1
 322 299 l 1
 351 408 l 1
 90 408 l 1
 90 494 l 1
 375 494 l 1
 433 711 l 1
 508 691 l 1
 455 494 l 1
 664 494 l 1
 664 707 l 1
 750 707 l 1
 750 0 l 1
 664 0 l 1
 664 213 l 1
 379 213 l 1
 321 -4 l 1
EndSplineSet
EndChar

StartChar: uni2AEA0338
Encoding: 235 -1 211
Width: 840
Flags: HW
HStem: 0 21G<280 366 475 561> 621 86<90 280 366 475 561 750>
VStem: 280 86<0 218 332 621> 475 86<0 289 403 621>
LayerCount: 2
Fore
SplineSet
475 621 m 1
 366 621 l 1
 366 332 l 1
 475 372 l 1
 475 621 l 1
730 465 m 1
 757 392 l 1
 561 321 l 1
 561 0 l 1
 475 0 l 1
 475 289 l 1
 366 249 l 1
 366 0 l 1
 280 0 l 1
 280 218 l 1
 110 156 l 1
 83 229 l 1
 280 301 l 1
 280 621 l 1
 90 621 l 1
 90 707 l 1
 750 707 l 1
 750 621 l 1
 561 621 l 1
 561 403 l 1
 730 465 l 1
EndSplineSet
EndChar

StartChar: uni22A70338
Encoding: 236 -1 212
Width: 642
Flags: HW
HStem: 0 17G<90 176 233 313.346> 213 86<176 286 390 552> 408 86<176 338 442 552> 691 16G<90 176 414.654 495>
VStem: 90 86<0 213 299 408 494 707>
LayerCount: 2
Fore
SplineSet
176 408 m 1
 176 299 l 1
 309 299 l 1
 338 408 l 1
 176 408 l 1
420 711 m 1
 495 691 l 1
 442 494 l 1
 552 494 l 1
 552 408 l 1
 419 408 l 1
 390 299 l 1
 552 299 l 1
 552 213 l 1
 366 213 l 1
 308 -4 l 1
 233 16 l 1
 286 213 l 1
 176 213 l 1
 176 0 l 1
 90 0 l 1
 90 707 l 1
 176 707 l 1
 176 494 l 1
 362 494 l 1
 420 711 l 1
EndSplineSet
EndChar

StartChar: sym07E_uni0338
Encoding: 237 -1 213
Width: 840
Flags: HW
HStem: 0 86<90 280 366 475 561 750>
VStem: 280 86<86 198 312 495> 475 86<86 269 383 495>
LayerCount: 2
Fore
SplineSet
366 86 m 1
 475 86 l 1
 475 269 l 1
 366 229 l 1
 366 86 l 1
110 136 m 1
 83 209 l 1
 280 281 l 1
 280 495 l 1
 366 495 l 1
 366 312 l 1
 475 352 l 1
 475 495 l 1
 561 495 l 1
 561 383 l 1
 730 445 l 1
 757 372 l 1
 561 301 l 1
 561 86 l 1
 750 86 l 1
 750 0 l 1
 90 0 l 1
 90 86 l 1
 280 86 l 1
 280 198 l 1
 110 136 l 1
EndSplineSet
EndChar

StartChar: sym07D_uni0338
Encoding: 238 -1 214
Width: 642
Flags: HW
HStem: 0 17G<147 227.346 466 552> 213 86<90 200 304 466> 408 86<90 252 356 466> 691 16G<328.654 409 466 552>
VStem: 466 86<0 213 299 408 494 707>
LayerCount: 2
Fore
SplineSet
466 299 m 1
 466 408 l 1
 333 408 l 1
 304 299 l 1
 466 299 l 1
222 -4 m 1
 147 16 l 1
 200 213 l 1
 90 213 l 1
 90 299 l 1
 223 299 l 1
 252 408 l 1
 90 408 l 1
 90 494 l 1
 276 494 l 1
 334 711 l 1
 409 691 l 1
 356 494 l 1
 466 494 l 1
 466 707 l 1
 552 707 l 1
 552 0 l 1
 466 0 l 1
 466 213 l 1
 280 213 l 1
 222 -4 l 1
EndSplineSet
EndChar

StartChar: sym07F_uni0338
Encoding: 239 -1 215
Width: 840
Flags: HW
HStem: 0 21G<280 366 475 561> 409 86<90 280 366 475 561 750>
VStem: 280 86<0 112 226 409> 475 86<0 183 297 409>
LayerCount: 2
Fore
SplineSet
475 409 m 1
 366 409 l 1
 366 226 l 1
 475 266 l 1
 475 409 l 1
730 359 m 1
 757 286 l 1
 561 215 l 1
 561 0 l 1
 475 0 l 1
 475 183 l 1
 366 143 l 1
 366 0 l 1
 280 0 l 1
 280 112 l 1
 110 50 l 1
 83 123 l 1
 280 195 l 1
 280 409 l 1
 90 409 l 1
 90 495 l 1
 750 495 l 1
 750 409 l 1
 561 409 l 1
 561 297 l 1
 730 359 l 1
EndSplineSet
EndChar

StartChar: uni22AE
Encoding: 240 8878 216
Width: 1038
Flags: HW
HStem: 0 21G<90 176 288 374 530 610.397> 311 86<374 609 713 948> 687 20G<90 176 288 374 711.65 792>
VStem: 90 86<0 707> 288 86<0 311 397 707>
LayerCount: 2
Fore
SplineSet
176 0 m 1
 90 0 l 1
 90 707 l 1
 176 707 l 1
 176 0 l 1
717 711 m 1
 792 691 l 1
 713 397 l 1
 948 397 l 1
 948 311 l 1
 690 311 l 1
 605 -4 l 1
 530 16 l 1
 609 311 l 1
 374 311 l 1
 374 0 l 1
 288 0 l 1
 288 707 l 1
 374 707 l 1
 374 397 l 1
 633 397 l 1
 717 711 l 1
EndSplineSet
EndChar

StartChar: uni234A0338
Encoding: 241 -1 217
Width: 840
Flags: HW
HStem: -106 86<90 750> 92 86<90 377 463 750>
VStem: 377 86<178 438 553 813>
LayerCount: 2
Fore
SplineSet
750 -20 m 1
 750 -106 l 1
 90 -106 l 1
 90 -20 l 1
 750 -20 l 1
110 341 m 1
 83 414 l 1
 377 521 l 1
 377 813 l 1
 463 813 l 1
 463 553 l 1
 730 650 l 1
 757 577 l 1
 463 470 l 1
 463 178 l 1
 750 178 l 1
 750 92 l 1
 90 92 l 1
 90 178 l 1
 377 178 l 1
 377 438 l 1
 110 341 l 1
EndSplineSet
EndChar

StartChar: uni2AE30338
Encoding: 242 -1 218
Width: 1038
Flags: HW
HStem: 0 21G<246 326.397 664 750 862 948> 311 86<90 325 429 664> 687 20G<427.65 508 664 750 862 948>
VStem: 664 86<0 311 397 707> 862 86<0 707>
LayerCount: 2
Fore
SplineSet
862 707 m 1
 948 707 l 1
 948 0 l 1
 862 0 l 1
 862 707 l 1
321 -4 m 1
 246 16 l 1
 325 311 l 1
 90 311 l 1
 90 397 l 1
 349 397 l 1
 433 711 l 1
 508 691 l 1
 429 397 l 1
 664 397 l 1
 664 707 l 1
 750 707 l 1
 750 0 l 1
 664 0 l 1
 664 311 l 1
 406 311 l 1
 321 -4 l 1
EndSplineSet
EndChar

StartChar: uni23510338
Encoding: 243 -1 219
Width: 840
Flags: HW
HStem: 529 86<90 377 463 750> 727 86<90 750>
VStem: 377 86<-106 154 269 529>
LayerCount: 2
Fore
SplineSet
90 727 m 1
 90 813 l 1
 750 813 l 1
 750 727 l 1
 90 727 l 1
730 366 m 1
 757 293 l 1
 463 186 l 1
 463 -106 l 1
 377 -106 l 1
 377 154 l 1
 110 57 l 1
 83 130 l 1
 377 237 l 1
 377 529 l 1
 90 529 l 1
 90 615 l 1
 750 615 l 1
 750 529 l 1
 463 529 l 1
 463 269 l 1
 730 366 l 1
EndSplineSet
EndChar

StartChar: uni22AE.alt
Encoding: 244 -1 220
Width: 840
Flags: HW
HStem: 0 21G<90 176 288 374 431 511.397> 311 86<374 510 614 750> 687 20G<90 176 288 374 612.65 693>
VStem: 90 86<0 707> 288 86<0 311 397 707>
LayerCount: 2
Fore
SplineSet
176 0 m 1
 90 0 l 1
 90 707 l 1
 176 707 l 1
 176 0 l 1
618 711 m 1
 693 691 l 1
 614 397 l 1
 750 397 l 1
 750 311 l 1
 591 311 l 1
 506 -4 l 1
 431 16 l 1
 510 311 l 1
 374 311 l 1
 374 0 l 1
 288 0 l 1
 288 707 l 1
 374 707 l 1
 374 397 l 1
 534 397 l 1
 618 711 l 1
EndSplineSet
EndChar

StartChar: uni2AE80338
Encoding: 245 -1 221
Width: 840
Flags: HW
HStem: 0 86<90 750> 198 86<90 377 463 750> 687 20G<377 463>
VStem: 377 86<284 438 553 707>
LayerCount: 2
Fore
SplineSet
750 86 m 1
 750 0 l 1
 90 0 l 1
 90 86 l 1
 750 86 l 1
110 341 m 1
 83 414 l 1
 377 521 l 1
 377 707 l 1
 463 707 l 1
 463 553 l 1
 730 650 l 1
 757 577 l 1
 463 470 l 1
 463 284 l 1
 750 284 l 1
 750 198 l 1
 90 198 l 1
 90 284 l 1
 377 284 l 1
 377 438 l 1
 110 341 l 1
EndSplineSet
EndChar

StartChar: uni2AE30338.alt
Encoding: 246 -1 222
Width: 840
Flags: HW
HStem: 0 21G<147 227.397 466 552 664 750> 311 86<90 226 330 466> 687 20G<328.65 409 466 552 664 750>
VStem: 466 86<0 311 397 707> 664 86<0 707>
LayerCount: 2
Fore
SplineSet
664 707 m 1
 750 707 l 1
 750 0 l 1
 664 0 l 1
 664 707 l 1
222 -4 m 1
 147 16 l 1
 226 311 l 1
 90 311 l 1
 90 397 l 1
 250 397 l 1
 334 711 l 1
 409 691 l 1
 330 397 l 1
 466 397 l 1
 466 707 l 1
 552 707 l 1
 552 0 l 1
 466 0 l 1
 466 311 l 1
 307 311 l 1
 222 -4 l 1
EndSplineSet
EndChar

StartChar: uni2AE70338
Encoding: 247 -1 223
Width: 840
Flags: HW
HStem: 0 21G<377 463> 423 86<90 377 463 750> 621 86<90 750>
VStem: 377 86<0 154 269 423>
LayerCount: 2
Fore
SplineSet
90 621 m 1
 90 707 l 1
 750 707 l 1
 750 621 l 1
 90 621 l 1
730 366 m 1
 757 293 l 1
 463 186 l 1
 463 0 l 1
 377 0 l 1
 377 154 l 1
 110 57 l 1
 83 130 l 1
 377 237 l 1
 377 423 l 1
 90 423 l 1
 90 509 l 1
 750 509 l 1
 750 423 l 1
 463 423 l 1
 463 269 l 1
 730 366 l 1
EndSplineSet
EndChar

StartChar: uni22AF
Encoding: 248 8879 224
Width: 1038
Flags: HW
HStem: 0 21G<90 176 288 374 530 610.346> 213 86<374 583 687 948> 408 86<374 635 739 948> 687 20G<90 176 288 374 711.654 792>
VStem: 90 86<0 707> 288 86<0 213 299 408 494 707>
LayerCount: 2
Fore
SplineSet
374 408 m 1
 374 299 l 1
 606 299 l 1
 635 408 l 1
 374 408 l 1
176 0 m 1
 90 0 l 1
 90 707 l 1
 176 707 l 1
 176 0 l 1
717 711 m 1
 792 691 l 1
 739 494 l 1
 948 494 l 1
 948 408 l 1
 716 408 l 1
 687 299 l 1
 948 299 l 1
 948 213 l 1
 663 213 l 1
 605 -4 l 1
 530 16 l 1
 583 213 l 1
 374 213 l 1
 374 0 l 1
 288 0 l 1
 288 707 l 1
 374 707 l 1
 374 494 l 1
 659 494 l 1
 717 711 l 1
EndSplineSet
EndChar

StartChar: sym080_uni0338
Encoding: 249 -1 225
Width: 840
Flags: HW
HStem: -106 86<90 750> 92 86<90 280 366 475 561 750>
VStem: 280 86<178 403 517 813> 475 86<178 474 588 813>
LayerCount: 2
Fore
SplineSet
366 178 m 1
 475 178 l 1
 475 474 l 1
 366 434 l 1
 366 178 l 1
750 -20 m 1
 750 -106 l 1
 90 -106 l 1
 90 -20 l 1
 750 -20 l 1
110 341 m 1
 83 414 l 1
 280 486 l 1
 280 813 l 1
 366 813 l 1
 366 517 l 1
 475 557 l 1
 475 813 l 1
 561 813 l 1
 561 588 l 1
 730 650 l 1
 757 577 l 1
 561 506 l 1
 561 178 l 1
 750 178 l 1
 750 92 l 1
 90 92 l 1
 90 178 l 1
 280 178 l 1
 280 403 l 1
 110 341 l 1
EndSplineSet
EndChar

StartChar: uni2AE50338
Encoding: 250 -1 226
Width: 1038
Flags: HW
HStem: 0 21G<246 326.346 664 750 862 948> 213 86<90 299 403 664> 408 86<90 351 455 664> 687 20G<427.654 508 664 750 862 948>
VStem: 664 86<0 213 299 408 494 707> 862 86<0 707>
LayerCount: 2
Fore
SplineSet
664 299 m 1
 664 408 l 1
 432 408 l 1
 403 299 l 1
 664 299 l 1
862 707 m 1
 948 707 l 1
 948 0 l 1
 862 0 l 1
 862 707 l 1
321 -4 m 1
 246 16 l 1
 299 213 l 1
 90 213 l 1
 90 299 l 1
 322 299 l 1
 351 408 l 1
 90 408 l 1
 90 494 l 1
 375 494 l 1
 433 711 l 1
 508 691 l 1
 455 494 l 1
 664 494 l 1
 664 707 l 1
 750 707 l 1
 750 0 l 1
 664 0 l 1
 664 213 l 1
 379 213 l 1
 321 -4 l 1
EndSplineSet
EndChar

StartChar: sym081_uni0338
Encoding: 251 -1 227
Width: 840
Flags: HW
HStem: 529 86<90 280 366 475 561 750> 727 86<90 750>
VStem: 280 86<-106 119 233 529> 475 86<-106 190 304 529>
LayerCount: 2
Fore
SplineSet
475 529 m 1
 366 529 l 1
 366 233 l 1
 475 273 l 1
 475 529 l 1
90 727 m 1
 90 813 l 1
 750 813 l 1
 750 727 l 1
 90 727 l 1
730 366 m 1
 757 293 l 1
 561 222 l 1
 561 -106 l 1
 475 -106 l 1
 475 190 l 1
 366 150 l 1
 366 -106 l 1
 280 -106 l 1
 280 119 l 1
 110 57 l 1
 83 130 l 1
 280 202 l 1
 280 529 l 1
 90 529 l 1
 90 615 l 1
 750 615 l 1
 750 529 l 1
 561 529 l 1
 561 304 l 1
 730 366 l 1
EndSplineSet
EndChar

StartChar: uni22AA0338
Encoding: 252 -1 228
Width: 1038
Flags: HW
HStem: 0 21G<90 176 288 374 486 572 629 709.397> 311 86<572 708 812 948> 687 20G<90 176 288 374 486 572 810.65 891>
VStem: 90 86<0 707> 288 86<0 707> 486 86<0 311 397 707>
CounterMasks: 1 1c
LayerCount: 2
Fore
SplineSet
176 0 m 1
 90 0 l 1
 90 707 l 1
 176 707 l 1
 176 0 l 1
374 0 m 1
 288 0 l 1
 288 707 l 1
 374 707 l 1
 374 0 l 1
816 711 m 1
 891 691 l 1
 812 397 l 1
 948 397 l 1
 948 311 l 1
 789 311 l 1
 704 -4 l 1
 629 16 l 1
 708 311 l 1
 572 311 l 1
 572 0 l 1
 486 0 l 1
 486 707 l 1
 572 707 l 1
 572 397 l 1
 732 397 l 1
 816 711 l 1
EndSplineSet
EndChar

StartChar: sym082_uni0338
Encoding: 253 -1 229
Width: 1038
Flags: HW
HStem: 0 21G<147 227.397 466 552 664 750 862 948> 311 86<90 226 330 466> 687 20G<328.65 409 466 552 664 750 862 948>
VStem: 466 86<0 311 397 707> 664 86<0 707> 862 86<0 707>
CounterMasks: 1 1c
LayerCount: 2
Fore
SplineSet
862 707 m 1
 948 707 l 1
 948 0 l 1
 862 0 l 1
 862 707 l 1
664 707 m 1
 750 707 l 1
 750 0 l 1
 664 0 l 1
 664 707 l 1
222 -4 m 1
 147 16 l 1
 226 311 l 1
 90 311 l 1
 90 397 l 1
 250 397 l 1
 334 711 l 1
 409 691 l 1
 330 397 l 1
 466 397 l 1
 466 707 l 1
 552 707 l 1
 552 0 l 1
 466 0 l 1
 466 311 l 1
 307 311 l 1
 222 -4 l 1
EndSplineSet
EndChar

StartChar: uni2AE20338
Encoding: 254 -1 230
Width: 840
Flags: HW
HStem: 0 17G<90 176 332 412.333> 116 86<176 359 462 750> 311 86<176 411 515 750> 506 86<176 464 567 750> 691 16G<90 176 513.622 594>
VStem: 90 86<0 116 202 311 397 506 592 707>
LayerCount: 2
Fore
SplineSet
176 397 m 1
 435 397 l 1
 464 506 l 1
 176 506 l 1
 176 397 l 1
176 202 m 1
 382 202 l 1
 411 311 l 1
 176 311 l 1
 176 202 l 1
519 711 m 1
 594 691 l 1
 567 592 l 1
 750 592 l 1
 750 506 l 1
 544 506 l 1
 515 397 l 1
 750 397 l 1
 750 311 l 1
 492 311 l 1
 462 202 l 1
 750 202 l 1
 750 116 l 1
 439 116 l 1
 407 -4 l 1
 332 16 l 1
 359 116 l 1
 176 116 l 1
 176 0 l 1
 90 0 l 1
 90 707 l 1
 176 707 l 1
 176 592 l 1
 487 592 l 1
 519 711 l 1
EndSplineSet
EndChar

StartChar: sym083_uni0338
Encoding: 255 -1 231
Width: 840
Flags: HW
HStem: 0 17G<246 326.333 664 750> 116 86<90 273 376 664> 311 86<90 325 429 664> 506 86<90 378 481 664> 691 16G<427.622 508 664 750>
VStem: 664 86<0 116 202 311 397 506 592 707>
LayerCount: 2
Fore
SplineSet
664 311 m 1
 406 311 l 1
 376 202 l 1
 664 202 l 1
 664 311 l 1
664 506 m 1
 458 506 l 1
 429 397 l 1
 664 397 l 1
 664 506 l 1
321 -4 m 1
 246 16 l 1
 273 116 l 1
 90 116 l 1
 90 202 l 1
 296 202 l 1
 325 311 l 1
 90 311 l 1
 90 397 l 1
 349 397 l 1
 378 506 l 1
 90 506 l 1
 90 592 l 1
 401 592 l 1
 433 711 l 1
 508 691 l 1
 481 592 l 1
 664 592 l 1
 664 707 l 1
 750 707 l 1
 750 0 l 1
 664 0 l 1
 664 116 l 1
 353 116 l 1
 321 -4 l 1
EndSplineSet
EndChar
